<?xml version="1.0" encoding="utf-8"?>
<!-- Generator: Adobe Illustrator 27.0.0, SVG Export Plug-In . SVG Version: 6.00 Build 0)  -->
<svg version="1.1" xmlns="http://www.w3.org/2000/svg" xmlns:xlink="http://www.w3.org/1999/xlink" x="0px" y="0px"
	 viewBox="0 0 750 650.1" style="enable-background:new 0 0 750 650.1;" xml:space="preserve">
<style type="text/css">
	.st0{fill:#E0E0E0;}
	.st1{fill:#EBEBEB;}
	.st2{fill:#F5F5F5;}
	.st3{fill:#F0F0F0;}
	.st4{fill:#FAFAFA;}
	.st5{fill:#E6E6E6;}
	.st6{fill:#FFFFFF;}
	.st7{display:none;}
	.st8{display:inline;}
	.st9{fill:#407BFF;}
	.st10{opacity:0.9;fill:#FFFFFF;}
	.st11{opacity:0.2;}
	.st12{fill:#5BC3FC;}
	.st13{opacity:0.2;fill:#FFFFFF;enable-background:new    ;}
	.st14{opacity:0.7;fill:#FFFFFF;enable-background:new    ;}
	.st15{fill:#263838;}
	.st16{opacity:0.3;}
	.st17{opacity:0.4;fill:#FFFFFF;enable-background:new    ;}
	.st18{opacity:0.3;fill:#FFFFFF;}
	.st19{fill:#A2413F;}
	.st20{opacity:0.5;fill:#FFFFFF;}
	.st21{fill:#263238;}
	.st22{opacity:0.2;fill:#FFFFFF;}
	.st23{fill:none;stroke:#000000;stroke-width:0.75;stroke-miterlimit:10;}
	.st24{opacity:0.4;}
	.st25{fill:#A24E3F;}
</style>
<g id="Background_complete">
	<g>
		<g>
			<g>
				<g>
					<g>
						<g>
							<path class="st0" d="M673.7,486.4H493c-3.2,0-5.9-2.7-5.9-5.9V213.4c0-3.3,2.6-5.9,5.9-5.9h180.7c3.2,0,5.9,2.7,5.9,5.9
								v267.1C679.6,483.7,677,486.4,673.7,486.4z M493,207.7c-3.1,0-5.6,2.6-5.6,5.7v267.1c0,3.1,2.5,5.7,5.6,5.7h180.7
								c3.1,0,5.6-2.6,5.6-5.7V213.4c0-3.1-2.5-5.7-5.6-5.7H493z"/>
						</g>
					</g>
					<g>
						<g>
							<path class="st0" d="M465.3,486.4H284.6c-3.2,0-5.9-2.7-5.9-5.9V213.4c0-3.3,2.6-5.9,5.9-5.9h180.7c3.2,0,5.9,2.7,5.9,5.9
								v267.1C471.2,483.7,468.5,486.4,465.3,486.4z M284.6,207.7c-3.1,0-5.6,2.6-5.6,5.7v267.1c0,3.1,2.5,5.7,5.6,5.7h180.7
								c3.1,0,5.6-2.6,5.6-5.7V213.4c0-3.1-2.5-5.7-5.6-5.7H284.6z"/>
						</g>
					</g>
				</g>
			</g>
			<g>
				<g>
					<rect y="548.3" class="st0" width="750" height="0.1"/>
				</g>
			</g>
		</g>
		<g>
			<rect x="653.6" y="578.1" class="st1" width="55.7" height="0.4"/>
			<rect x="495" y="582.8" class="st1" width="14.6" height="0.4"/>
			<rect x="40.6" y="565.2" class="st1" width="72.7" height="0.4"/>
			<rect x="128.3" y="565.2" class="st1" width="10.7" height="0.4"/>
			<rect x="173.6" y="572.4" class="st1" width="157.6" height="0.4"/>
		</g>
	</g>
	<g>
		<g>
			<path class="st2" d="M600.9,309.6c-3.5-2.6-8.6-2.9-12.4-0.7c-5-10.2-19-14.6-29-9.3c-2.6-10.9-13.4-19.4-24.6-19.2
				c-11.3,0.1-21.8,8.8-24.2,19.8c-0.4,1.7-0.6,3.7-1.9,4.9c-2,2.1-5.4,1.4-8.3,1.2c-9.1-0.7-18.3,5.7-20.8,14.5l125.5-0.5
				C606.3,316,604.4,312.2,600.9,309.6z"/>
		</g>
	</g>
	<g>
		<g>
			<path class="st1" d="M400,298.8c-2.6-1.9-6.3-2.2-9.1-0.5c-3.7-7.4-13.9-10.7-21.3-6.8c-1.9-8-9.8-14.2-18-14.1
				c-8.2,0.1-16,6.4-17.7,14.5c-0.3,1.3-0.5,2.7-1.4,3.6c-1.5,1.5-4,1-6.1,0.8c-6.7-0.5-13.4,4.2-15.2,10.6l91.9-0.3
				C404,303.5,402.6,300.7,400,298.8z"/>
		</g>
	</g>
	<g>
		<g>
			<path class="st2" d="M237.4,282.2c-1.4-1.1-3.5-1.2-5-0.3c-2-4.1-7.7-5.9-11.7-3.8c-1.1-4.4-5.4-7.8-9.9-7.8
				c-4.5,0.1-8.8,3.6-9.8,8c-0.2,0.7-0.2,1.5-0.8,2c-0.8,0.8-2.2,0.6-3.4,0.5c-3.7-0.3-7.4,2.3-8.4,5.8l50.7-0.2
				C239.6,284.8,238.8,283.3,237.4,282.2z"/>
		</g>
	</g>
	<g>
		<g>
			<path class="st1" d="M471,233.4c-1.4-1.1-3.5-1.2-5-0.3c-2-4.1-7.7-5.9-11.7-3.8c-1.1-4.4-5.4-7.8-9.9-7.8
				c-4.5,0.1-8.8,3.6-9.8,8c-0.2,0.7-0.2,1.5-0.8,2c-0.8,0.8-2.2,0.6-3.4,0.5c-3.7-0.3-7.4,2.3-8.4,5.8l50.7-0.2
				C473.2,236,472.4,234.4,471,233.4z"/>
		</g>
	</g>
	<g>
		<g>
			<path class="st2" d="M712.9,299.2c-2-1.5-5-1.7-7.1-0.4c-2.9-5.8-11-8.4-16.7-5.3c-1.5-6.3-7.7-11.1-14.2-11.1
				c-6.5,0.1-12.6,5.1-13.9,11.4c-0.2,1-0.4,2.1-1.1,2.8c-1.2,1.2-3.1,0.8-4.8,0.7c-5.2-0.4-10.5,3.3-11.9,8.3l72.2-0.3
				C716,302.9,714.9,300.8,712.9,299.2z"/>
		</g>
	</g>
	<g>
		<g>
			<path class="st2" d="M616.9,212.6c-2-1.5-5-1.7-7.1-0.4c-2.9-5.8-11-8.4-16.7-5.3c-1.5-6.3-7.7-11.1-14.2-11.1
				c-6.5,0.1-12.6,5.1-13.9,11.4c-0.2,1-0.4,2.1-1.1,2.8c-1.2,1.2-3.1,0.8-4.8,0.7c-5.2-0.4-10.5,3.3-11.9,8.3l72.2-0.3
				C620,216.3,618.9,214.2,616.9,212.6z"/>
		</g>
	</g>
	<g>
		<g id="freepik--background-complete--inject-481_00000063624541958344973550000005548528831549426314_">
			<g>
				<polygon class="st3" points="675,416 675,364.2 642.9,364.2 642.9,376 621.5,376 621.5,246.5 580.4,246.5 580.4,297.5 
					568,297.5 568,272.1 535.9,272.1 535.9,396.2 490.7,396.2 490.7,352.3 462.3,352.3 462.3,257.2 427.3,257.2 427.3,320.6 
					394.4,320.6 394.4,457.2 368.9,457.2 368.9,390.7 342.5,390.7 342.5,347.9 314.6,347.9 314.6,315 283.3,331.5 283.3,419.4 
					250.4,419.4 250.4,401.3 206.5,401.3 206.5,564.5 718.2,564.7 718.2,416 				"/>
				<rect x="435.3" y="268.5" class="st4" width="10.2" height="11.7"/>
				<rect x="435.3" y="288.2" class="st4" width="10.2" height="11.7"/>
				<rect x="435.3" y="307.9" class="st4" width="10.2" height="11.7"/>
				<rect x="435.3" y="327.5" class="st4" width="10.2" height="11.7"/>
				<rect x="435.3" y="347.2" class="st4" width="10.2" height="11.7"/>
				<rect x="435.3" y="366.9" class="st4" width="10.2" height="11.7"/>
				<rect x="435.3" y="386.6" class="st4" width="10.2" height="11.7"/>
				<rect x="435.3" y="406.3" class="st4" width="10.2" height="11.7"/>
				<rect x="589.2" y="252.7" class="st4" width="10.2" height="11.7"/>
				<rect x="589.2" y="272.4" class="st4" width="10.2" height="11.7"/>
				<rect x="589.2" y="292.1" class="st4" width="10.2" height="11.7"/>
				<rect x="589.2" y="311.8" class="st4" width="10.2" height="11.7"/>
				<rect x="589.2" y="331.5" class="st4" width="10.2" height="11.7"/>
				<rect x="589.2" y="351.2" class="st4" width="10.2" height="11.7"/>
				<rect x="589.2" y="370.9" class="st4" width="10.2" height="11.7"/>
				<rect x="589.2" y="390.6" class="st4" width="10.2" height="11.7"/>
			</g>
			<g>
				<path class="st0" d="M400.3,564.6V375.7h-40.8v188.8L400.3,564.6z"/>
				<rect x="362.6" y="381.7" class="st4" width="4.9" height="10.2"/>
				<rect x="372.5" y="381.7" class="st4" width="4.9" height="10.2"/>
				<rect x="382.4" y="381.7" class="st4" width="4.9" height="10.2"/>
				<rect x="392.2" y="381.7" class="st4" width="4.9" height="10.2"/>
				<rect x="362.6" y="398.8" class="st4" width="4.9" height="10.2"/>
				<rect x="372.5" y="398.8" class="st4" width="4.9" height="10.2"/>
				<rect x="382.4" y="398.8" class="st4" width="4.9" height="10.2"/>
				<rect x="392.2" y="398.8" class="st4" width="4.9" height="10.2"/>
				<rect x="362.6" y="415.9" class="st4" width="4.9" height="10.2"/>
				<rect x="372.5" y="415.9" class="st4" width="4.9" height="10.2"/>
				<rect x="382.4" y="415.9" class="st4" width="4.9" height="10.2"/>
				<rect x="392.2" y="415.9" class="st4" width="4.9" height="10.2"/>
				<rect x="362.6" y="433" class="st4" width="4.9" height="10.2"/>
				<rect x="372.5" y="433" class="st4" width="4.9" height="10.2"/>
				<rect x="382.4" y="433" class="st4" width="4.9" height="10.2"/>
				<rect x="392.2" y="433" class="st4" width="4.9" height="10.2"/>
				<rect x="362.6" y="450.1" class="st4" width="4.9" height="10.2"/>
				<rect x="372.5" y="450.1" class="st4" width="4.9" height="10.2"/>
				<rect x="382.4" y="450.1" class="st4" width="4.9" height="10.2"/>
				<rect x="392.2" y="450.1" class="st4" width="4.9" height="10.2"/>
				<rect x="362.6" y="467.2" class="st4" width="4.9" height="10.2"/>
				<rect x="372.5" y="467.2" class="st4" width="4.9" height="10.2"/>
				<rect x="382.4" y="467.2" class="st4" width="4.9" height="10.2"/>
				<rect x="392.2" y="467.2" class="st4" width="4.9" height="10.2"/>
				<rect x="362.6" y="484.3" class="st4" width="4.9" height="10.2"/>
				<rect x="372.5" y="484.3" class="st4" width="4.9" height="10.2"/>
				<rect x="382.4" y="484.3" class="st4" width="4.9" height="10.2"/>
				<rect x="392.2" y="484.3" class="st4" width="4.9" height="10.2"/>
				<rect x="362.6" y="501.4" class="st4" width="4.9" height="10.2"/>
				<rect x="372.5" y="501.4" class="st4" width="4.9" height="10.2"/>
				<rect x="382.4" y="501.4" class="st4" width="4.9" height="10.2"/>
				<rect x="392.2" y="501.4" class="st4" width="4.9" height="10.2"/>
			</g>
			<g>
				<path class="st5" d="M541.9,564.7V353.9h-84.5v210.8C457.4,564.7,541.3,564.7,541.9,564.7z"/>
				<rect x="463.8" y="360.9" class="st0" width="10.2" height="11.7"/>
				<rect x="484.3" y="360.9" class="st0" width="10.2" height="11.7"/>
				<rect x="504.8" y="360.9" class="st0" width="10.2" height="11.7"/>
				<rect x="525.3" y="360.9" class="st0" width="10.2" height="11.7"/>
				<rect x="463.8" y="380.6" class="st0" width="10.2" height="11.7"/>
				<rect x="484.3" y="380.6" class="st0" width="10.2" height="11.7"/>
				<rect x="504.8" y="380.6" class="st0" width="10.2" height="11.7"/>
				<rect x="525.3" y="380.6" class="st0" width="10.2" height="11.7"/>
				<rect x="463.8" y="400.3" class="st0" width="10.2" height="11.7"/>
				<rect x="484.3" y="400.3" class="st0" width="10.2" height="11.7"/>
				<rect x="504.8" y="400.3" class="st0" width="10.2" height="11.7"/>
				<rect x="525.3" y="400.3" class="st0" width="10.2" height="11.7"/>
				<rect x="463.8" y="420" class="st0" width="10.2" height="11.7"/>
				<rect x="484.3" y="420" class="st0" width="10.2" height="11.7"/>
				<rect x="504.8" y="420" class="st0" width="10.2" height="11.7"/>
				<rect x="525.3" y="420" class="st0" width="10.2" height="11.7"/>
				<rect x="463.8" y="439.7" class="st0" width="10.2" height="11.7"/>
				<rect x="484.3" y="439.7" class="st0" width="10.2" height="11.7"/>
				<rect x="504.8" y="439.7" class="st0" width="10.2" height="11.7"/>
				<rect x="525.3" y="439.7" class="st0" width="10.2" height="11.7"/>
				<rect x="463.8" y="459.4" class="st0" width="10.2" height="11.7"/>
				<rect x="484.3" y="459.4" class="st0" width="10.2" height="11.7"/>
				<rect x="504.8" y="459.4" class="st0" width="10.2" height="11.7"/>
				<rect x="525.3" y="459.4" class="st0" width="10.2" height="11.7"/>
				<rect x="463.8" y="479.1" class="st0" width="10.2" height="11.7"/>
				<rect x="484.3" y="479.1" class="st0" width="10.2" height="11.7"/>
				<rect x="504.8" y="479.1" class="st0" width="10.2" height="11.7"/>
				<rect x="525.3" y="479.1" class="st0" width="10.2" height="11.7"/>
				<rect x="463.8" y="498.8" class="st0" width="10.2" height="11.7"/>
				<rect x="484.3" y="498.8" class="st0" width="10.2" height="11.7"/>
				<rect x="504.8" y="498.8" class="st0" width="10.2" height="11.7"/>
				<rect x="525.3" y="498.8" class="st0" width="10.2" height="11.7"/>
			</g>
			<g>
				<path class="st5" d="M344.7,564.6V339.2h-35v225.5C320.8,564.5,344.7,564.6,344.7,564.6z"/>
				<rect x="314.9" y="343.4" class="st4" width="10.2" height="11.7"/>
				<rect x="314.9" y="363.1" class="st4" width="10.2" height="11.7"/>
				<rect x="314.9" y="382.8" class="st4" width="10.2" height="11.7"/>
				<rect x="314.9" y="402.5" class="st4" width="10.2" height="11.7"/>
				<rect x="314.9" y="422.1" class="st4" width="10.2" height="11.7"/>
				<rect x="314.9" y="441.8" class="st4" width="10.2" height="11.7"/>
				<rect x="314.9" y="461.5" class="st4" width="10.2" height="11.7"/>
				<rect x="314.9" y="481.2" class="st4" width="10.2" height="11.7"/>
				<rect x="328.6" y="343.4" class="st4" width="10.2" height="11.7"/>
				<rect x="328.6" y="363.1" class="st4" width="10.2" height="11.7"/>
				<rect x="328.6" y="382.8" class="st4" width="10.2" height="11.7"/>
				<rect x="328.6" y="402.5" class="st4" width="10.2" height="11.7"/>
				<rect x="328.6" y="422.1" class="st4" width="10.2" height="11.7"/>
				<rect x="328.6" y="441.8" class="st4" width="10.2" height="11.7"/>
				<rect x="328.6" y="461.5" class="st4" width="10.2" height="11.7"/>
				<rect x="328.6" y="481.2" class="st4" width="10.2" height="11.7"/>
			</g>
			<g>
				<rect x="617.9" y="343.2" class="st5" width="61.7" height="221.5"/>
				<rect x="627" y="352.4" class="st4" width="18.1" height="11.7"/>
				<rect x="627" y="372.1" class="st4" width="18.1" height="11.7"/>
				<rect x="627" y="391.8" class="st4" width="18.1" height="11.7"/>
				<rect x="627" y="411.5" class="st4" width="18.1" height="11.7"/>
				<rect x="627" y="431.2" class="st4" width="18.1" height="11.7"/>
				<rect x="627" y="450.8" class="st4" width="18.1" height="11.7"/>
				<rect x="627" y="470.5" class="st4" width="18.1" height="11.7"/>
				<rect x="627" y="490.2" class="st4" width="18.1" height="11.7"/>
				<rect x="651.2" y="352.4" class="st4" width="18.1" height="11.7"/>
				<rect x="651.2" y="372.1" class="st4" width="18.1" height="11.7"/>
				<rect x="651.2" y="391.8" class="st4" width="18.1" height="11.7"/>
				<rect x="651.2" y="411.5" class="st4" width="18.1" height="11.7"/>
				<rect x="651.2" y="431.2" class="st4" width="18.1" height="11.7"/>
				<rect x="651.2" y="450.8" class="st4" width="18.1" height="11.7"/>
				<rect x="651.2" y="470.5" class="st4" width="18.1" height="11.7"/>
				<rect x="651.2" y="490.2" class="st4" width="18.1" height="11.7"/>
			</g>
			<g>
				<path class="st0" d="M577.5,564.7V400.3h-26.9v164.4L577.5,564.7z"/>
				<rect x="552.6" y="405.5" class="st4" width="3.3" height="8.8"/>
				<rect x="559.2" y="405.5" class="st4" width="3.3" height="8.8"/>
				<rect x="565.7" y="405.5" class="st4" width="3.3" height="8.8"/>
				<rect x="572.2" y="405.5" class="st4" width="3.3" height="8.8"/>
				<rect x="552.6" y="420.2" class="st4" width="3.3" height="8.8"/>
				<rect x="559.2" y="420.2" class="st4" width="3.3" height="8.8"/>
				<rect x="565.7" y="420.2" class="st4" width="3.3" height="8.8"/>
				<rect x="572.2" y="420.2" class="st4" width="3.3" height="8.8"/>
				<rect x="552.6" y="434.9" class="st4" width="3.3" height="8.8"/>
				<rect x="559.2" y="434.9" class="st4" width="3.3" height="8.8"/>
				<rect x="565.7" y="434.9" class="st4" width="3.3" height="8.8"/>
				<rect x="572.2" y="434.9" class="st4" width="3.3" height="8.8"/>
				<rect x="552.6" y="449.5" class="st4" width="3.3" height="8.8"/>
				<rect x="559.2" y="449.5" class="st4" width="3.3" height="8.8"/>
				<rect x="565.7" y="449.5" class="st4" width="3.3" height="8.8"/>
				<rect x="572.2" y="449.5" class="st4" width="3.3" height="8.8"/>
				<rect x="552.6" y="464.2" class="st4" width="3.3" height="8.8"/>
				<rect x="559.2" y="464.2" class="st4" width="3.3" height="8.8"/>
				<rect x="565.7" y="464.2" class="st4" width="3.3" height="8.8"/>
				<rect x="572.2" y="464.2" class="st4" width="3.3" height="8.8"/>
				<rect x="552.6" y="478.9" class="st4" width="3.3" height="8.8"/>
				<rect x="559.2" y="478.9" class="st4" width="3.3" height="8.8"/>
				<rect x="565.7" y="478.9" class="st4" width="3.3" height="8.8"/>
				<rect x="572.2" y="478.9" class="st4" width="3.3" height="8.8"/>
				<rect x="552.6" y="493.6" class="st4" width="3.3" height="8.8"/>
				<rect x="559.2" y="493.6" class="st4" width="3.3" height="8.8"/>
				<rect x="565.7" y="493.6" class="st4" width="3.3" height="8.8"/>
				<rect x="572.2" y="493.6" class="st4" width="3.3" height="8.8"/>
				<rect x="552.6" y="508.3" class="st4" width="3.3" height="8.8"/>
				<rect x="559.2" y="508.3" class="st4" width="3.3" height="8.8"/>
				<rect x="565.7" y="508.3" class="st4" width="3.3" height="8.8"/>
				<rect x="572.2" y="508.3" class="st4" width="3.3" height="8.8"/>
			</g>
			<g>
				<path class="st4" d="M312.8,564.7V424.7h-72v139.8L312.8,564.7z"/>
				<rect x="246.3" y="429" class="st0" width="8.7" height="7.3"/>
				<rect x="263.8" y="429" class="st0" width="8.7" height="7.3"/>
				<rect x="281.2" y="429" class="st0" width="8.7" height="7.3"/>
				<rect x="298.7" y="429" class="st0" width="8.7" height="7.3"/>
				<rect x="246.3" y="441.3" class="st0" width="8.7" height="7.3"/>
				<rect x="263.8" y="441.3" class="st0" width="8.7" height="7.3"/>
				<rect x="281.2" y="441.3" class="st0" width="8.7" height="7.3"/>
				<rect x="298.7" y="441.3" class="st0" width="8.7" height="7.3"/>
				<rect x="246.3" y="453.7" class="st0" width="8.7" height="7.3"/>
				<rect x="263.8" y="453.7" class="st0" width="8.7" height="7.3"/>
				<rect x="281.2" y="453.7" class="st0" width="8.7" height="7.3"/>
				<rect x="298.7" y="453.7" class="st0" width="8.7" height="7.3"/>
				<rect x="246.3" y="466" class="st0" width="8.7" height="7.3"/>
				<rect x="263.8" y="466" class="st0" width="8.7" height="7.3"/>
				<rect x="281.2" y="466" class="st0" width="8.7" height="7.3"/>
				<rect x="298.7" y="466" class="st0" width="8.7" height="7.3"/>
				<rect x="246.3" y="478.3" class="st0" width="8.7" height="7.3"/>
				<rect x="263.8" y="478.3" class="st0" width="8.7" height="7.3"/>
				<rect x="281.2" y="478.3" class="st0" width="8.7" height="7.3"/>
				<rect x="298.7" y="478.3" class="st0" width="8.7" height="7.3"/>
				<rect x="246.3" y="490.6" class="st0" width="8.7" height="7.3"/>
				<rect x="263.8" y="490.6" class="st0" width="8.7" height="7.3"/>
				<rect x="281.2" y="490.6" class="st0" width="8.7" height="7.3"/>
				<rect x="298.7" y="490.6" class="st0" width="8.7" height="7.3"/>
				<rect x="246.3" y="502.9" class="st0" width="8.7" height="7.3"/>
				<rect x="263.8" y="502.9" class="st0" width="8.7" height="7.3"/>
				<rect x="281.2" y="502.9" class="st0" width="8.7" height="7.3"/>
				<rect x="298.7" y="502.9" class="st0" width="8.7" height="7.3"/>
			</g>
		</g>
	</g>
	<g>
		<g>
			<g>
				
					<rect x="103.5" y="555.7" transform="matrix(-1 -1.224647e-16 1.224647e-16 -1 213.0885 1119.0432)" class="st0" width="6.1" height="7.7"/>
				
					<rect x="60.9" y="555.9" transform="matrix(-1 -1.224647e-16 1.224647e-16 -1 127.9873 1119.5061)" class="st0" width="6.1" height="7.7"/>
				
					<rect x="61.7" y="555.7" transform="matrix(-1 -1.224647e-16 1.224647e-16 -1 165.7577 1114.8439)" class="st0" width="42.4" height="3.5"/>
			</g>
			<g>
				
					<rect x="21.6" y="555.7" transform="matrix(-1 -1.224647e-16 1.224647e-16 -1 49.3961 1119.0432)" class="st0" width="6.1" height="7.7"/>
				
					<rect x="26.5" y="555.7" transform="matrix(-1 -1.224647e-16 1.224647e-16 -1 91.8606 1114.8439)" class="st0" width="38.9" height="3.5"/>
			</g>
			<g>
				
					<rect x="22.6" y="534.2" transform="matrix(-1 -1.224647e-16 1.224647e-16 -1 74.7089 1089.9846)" class="st5" width="29.6" height="21.6"/>
				
					<rect x="46.3" y="534.2" transform="matrix(-1 -1.224647e-16 1.224647e-16 -1 98.3967 1089.9846)" class="st0" width="5.9" height="21.6"/>
				
					<rect x="36.6" y="536.9" transform="matrix(-1 -1.224647e-16 1.224647e-16 -1 78.9949 1080.9274)" class="st6" width="5.7" height="7.2"/>
			</g>
			<g>
				
					<rect x="22.6" y="512.5" transform="matrix(-1 -1.224647e-16 1.224647e-16 -1 74.7089 1046.5812)" class="st1" width="29.6" height="21.6"/>
				
					<rect x="46.3" y="512.5" transform="matrix(-1 -1.224647e-16 1.224647e-16 -1 98.3967 1046.5812)" class="st0" width="5.9" height="21.6"/>
				
					<rect x="36.6" y="515.2" transform="matrix(-1 -1.224647e-16 1.224647e-16 -1 78.9949 1037.5239)" class="st6" width="5.7" height="7.2"/>
			</g>
			<g>
				<g>
					<path class="st0" d="M22.8,534.5c9.5,0,19,0,28.5,0c0.5,0,0.5-0.8,0-0.8c-9.5,0-19,0-28.5,0C22.4,533.7,22.4,534.5,22.8,534.5
						L22.8,534.5z"/>
				</g>
			</g>
			<g>
				
					<rect x="51.3" y="534.2" transform="matrix(-1 -1.224647e-16 1.224647e-16 -1 132.1777 1089.9846)" class="st1" width="29.6" height="21.6"/>
				
					<rect x="75" y="534.2" transform="matrix(-1 -1.224647e-16 1.224647e-16 -1 155.8654 1089.9846)" class="st0" width="5.9" height="21.6"/>
				
					<rect x="65.4" y="536.9" transform="matrix(-1 -1.224647e-16 1.224647e-16 -1 136.4636 1080.9274)" class="st6" width="5.7" height="7.2"/>
			</g>
			<g>
				
					<rect x="51.3" y="512.5" transform="matrix(-1 -1.224647e-16 1.224647e-16 -1 132.1777 1046.5812)" class="st2" width="29.6" height="21.6"/>
				
					<rect x="75" y="512.5" transform="matrix(-1 -1.224647e-16 1.224647e-16 -1 155.8654 1046.5812)" class="st0" width="5.9" height="21.6"/>
				
					<rect x="65.4" y="515.2" transform="matrix(-1 -1.224647e-16 1.224647e-16 -1 136.4636 1037.5239)" class="st6" width="5.7" height="7.2"/>
			</g>
			<g>
				<g>
					<path class="st0" d="M51.6,534.5c9.5,0,19,0,28.5,0c0.5,0,0.5-0.8,0-0.8c-9.5,0-19,0-28.5,0C51.1,533.7,51.1,534.5,51.6,534.5
						L51.6,534.5z"/>
				</g>
			</g>
			<g>
				
					<rect x="80" y="534.2" transform="matrix(-1 -1.224647e-16 1.224647e-16 -1 189.6463 1089.9846)" class="st5" width="29.6" height="21.6"/>
				
					<rect x="103.7" y="534.2" transform="matrix(-1 -1.224647e-16 1.224647e-16 -1 213.3341 1089.9846)" class="st0" width="5.9" height="21.6"/>
				
					<rect x="94.1" y="536.9" transform="matrix(-1 -1.224647e-16 1.224647e-16 -1 193.9323 1080.9274)" class="st6" width="5.7" height="7.2"/>
			</g>
			<g>
				
					<rect x="80" y="512.5" transform="matrix(-1 -1.224647e-16 1.224647e-16 -1 189.6463 1046.5812)" class="st1" width="29.6" height="21.6"/>
				
					<rect x="103.7" y="512.5" transform="matrix(-1 -1.224647e-16 1.224647e-16 -1 213.3341 1046.5812)" class="st0" width="5.9" height="21.6"/>
				
					<rect x="94.1" y="515.2" transform="matrix(-1 -1.224647e-16 1.224647e-16 -1 193.9323 1037.5239)" class="st6" width="5.7" height="7.2"/>
			</g>
			<g>
				<g>
					<path class="st0" d="M80.3,534.5c9.5,0,19,0,28.5,0c0.5,0,0.5-0.8,0-0.8c-9.5,0-19,0-28.5,0C79.8,533.7,79.8,534.5,80.3,534.5
						L80.3,534.5z"/>
				</g>
			</g>
		</g>
		<g>
			<g>
				
					<rect x="103.5" y="507" transform="matrix(-1 -1.224647e-16 1.224647e-16 -1 213.0885 1021.7761)" class="st0" width="6.1" height="7.7"/>
				
					<rect x="60.9" y="507.3" transform="matrix(-1 -1.224647e-16 1.224647e-16 -1 127.9873 1022.239)" class="st0" width="6.1" height="7.7"/>
				
					<rect x="61.7" y="507" transform="matrix(-1 -1.224647e-16 1.224647e-16 -1 165.7577 1017.5767)" class="st0" width="42.4" height="3.5"/>
			</g>
			<g>
				
					<rect x="21.6" y="507" transform="matrix(-1 -1.224647e-16 1.224647e-16 -1 49.3961 1021.7761)" class="st0" width="6.1" height="7.7"/>
				
					<rect x="26.5" y="507" transform="matrix(-1 -1.224647e-16 1.224647e-16 -1 91.8606 1017.5767)" class="st0" width="38.9" height="3.5"/>
			</g>
			<g>
				
					<rect x="22.6" y="485.6" transform="matrix(-1 -1.224647e-16 1.224647e-16 -1 74.7089 992.7173)" class="st5" width="29.6" height="21.6"/>
				
					<rect x="46.3" y="485.6" transform="matrix(-1 -1.224647e-16 1.224647e-16 -1 98.3967 992.7173)" class="st0" width="5.9" height="21.6"/>
				
					<rect x="36.6" y="488.2" transform="matrix(-1 -1.224647e-16 1.224647e-16 -1 78.9949 983.6603)" class="st6" width="5.7" height="7.2"/>
			</g>
			<g>
				
					<rect x="22.6" y="463.9" transform="matrix(-1 -1.224647e-16 1.224647e-16 -1 74.7089 949.314)" class="st1" width="29.6" height="21.6"/>
				
					<rect x="46.3" y="463.9" transform="matrix(-1 -1.224647e-16 1.224647e-16 -1 98.3967 949.314)" class="st0" width="5.9" height="21.6"/>
				
					<rect x="36.6" y="466.5" transform="matrix(-1 -1.224647e-16 1.224647e-16 -1 78.9949 940.257)" class="st6" width="5.7" height="7.2"/>
			</g>
			<g>
				<g>
					<path class="st0" d="M22.8,485.8c9.5,0,19,0,28.5,0c0.5,0,0.5-0.8,0-0.8c-9.5,0-19,0-28.5,0C22.4,485.1,22.4,485.8,22.8,485.8
						L22.8,485.8z"/>
				</g>
			</g>
			<g>
				
					<rect x="51.3" y="485.6" transform="matrix(-1 -1.224647e-16 1.224647e-16 -1 132.1777 992.7173)" class="st1" width="29.6" height="21.6"/>
				
					<rect x="75" y="485.6" transform="matrix(-1 -1.224647e-16 1.224647e-16 -1 155.8654 992.7173)" class="st0" width="5.9" height="21.6"/>
				
					<rect x="65.4" y="488.2" transform="matrix(-1 -1.224647e-16 1.224647e-16 -1 136.4636 983.6603)" class="st6" width="5.7" height="7.2"/>
			</g>
			<g>
				
					<rect x="51.3" y="463.9" transform="matrix(-1 -1.224647e-16 1.224647e-16 -1 132.1777 949.314)" class="st2" width="29.6" height="21.6"/>
				
					<rect x="75" y="463.9" transform="matrix(-1 -1.224647e-16 1.224647e-16 -1 155.8654 949.314)" class="st0" width="5.9" height="21.6"/>
				
					<rect x="65.4" y="466.5" transform="matrix(-1 -1.224647e-16 1.224647e-16 -1 136.4636 940.257)" class="st6" width="5.7" height="7.2"/>
			</g>
			<g>
				<g>
					<path class="st0" d="M51.6,485.8c9.5,0,19,0,28.5,0c0.5,0,0.5-0.8,0-0.8c-9.5,0-19,0-28.5,0C51.1,485.1,51.1,485.8,51.6,485.8
						L51.6,485.8z"/>
				</g>
			</g>
			<g>
				
					<rect x="80" y="485.6" transform="matrix(-1 -1.224647e-16 1.224647e-16 -1 189.6463 992.7173)" class="st5" width="29.6" height="21.6"/>
				
					<rect x="103.7" y="485.6" transform="matrix(-1 -1.224647e-16 1.224647e-16 -1 213.3341 992.7173)" class="st0" width="5.9" height="21.6"/>
				
					<rect x="94.1" y="488.2" transform="matrix(-1 -1.224647e-16 1.224647e-16 -1 193.9323 983.6603)" class="st6" width="5.7" height="7.2"/>
			</g>
			<g>
				
					<rect x="80" y="463.9" transform="matrix(-1 -1.224647e-16 1.224647e-16 -1 189.6463 949.314)" class="st1" width="29.6" height="21.6"/>
				
					<rect x="103.7" y="463.9" transform="matrix(-1 -1.224647e-16 1.224647e-16 -1 213.3341 949.314)" class="st0" width="5.9" height="21.6"/>
				
					<rect x="94.1" y="466.5" transform="matrix(-1 -1.224647e-16 1.224647e-16 -1 193.9323 940.257)" class="st6" width="5.7" height="7.2"/>
			</g>
			<g>
				<g>
					<path class="st0" d="M80.3,485.8c9.5,0,19,0,28.5,0c0.5,0,0.5-0.8,0-0.8c-9.5,0-19,0-28.5,0C79.8,485.1,79.8,485.8,80.3,485.8
						L80.3,485.8z"/>
				</g>
			</g>
		</g>
		<g>
			<g>
				
					<rect x="103.5" y="456.9" transform="matrix(-1 -1.224647e-16 1.224647e-16 -1 213.0885 921.4092)" class="st0" width="6.1" height="7.7"/>
				
					<rect x="60.9" y="457.1" transform="matrix(-1 -1.224647e-16 1.224647e-16 -1 127.9873 921.8722)" class="st0" width="6.1" height="7.7"/>
				
					<rect x="61.7" y="456.9" transform="matrix(-1 -1.224647e-16 1.224647e-16 -1 165.7577 917.2098)" class="st0" width="42.4" height="3.5"/>
			</g>
			<g>
				
					<rect x="21.6" y="456.9" transform="matrix(-1 -1.224647e-16 1.224647e-16 -1 49.3961 921.4092)" class="st0" width="6.1" height="7.7"/>
				
					<rect x="26.5" y="456.9" transform="matrix(-1 -1.224647e-16 1.224647e-16 -1 91.8606 917.2098)" class="st0" width="38.9" height="3.5"/>
			</g>
			<g>
				
					<rect x="22.6" y="435.4" transform="matrix(-1 -1.224647e-16 1.224647e-16 -1 74.7089 892.3506)" class="st5" width="29.6" height="21.6"/>
				
					<rect x="46.3" y="435.4" transform="matrix(-1 -1.224647e-16 1.224647e-16 -1 98.3967 892.3506)" class="st0" width="5.9" height="21.6"/>
				
					<rect x="36.6" y="438" transform="matrix(-1 -1.224647e-16 1.224647e-16 -1 78.9949 883.2936)" class="st6" width="5.7" height="7.2"/>
			</g>
			<g>
				
					<rect x="22.6" y="413.7" transform="matrix(-1 -1.224647e-16 1.224647e-16 -1 74.7089 848.9471)" class="st1" width="29.6" height="21.6"/>
				
					<rect x="46.3" y="413.7" transform="matrix(-1 -1.224647e-16 1.224647e-16 -1 98.3967 848.9471)" class="st0" width="5.9" height="21.6"/>
				
					<rect x="36.6" y="416.3" transform="matrix(-1 -1.224647e-16 1.224647e-16 -1 78.9949 839.8901)" class="st6" width="5.7" height="7.2"/>
			</g>
			<g>
				<g>
					<path class="st0" d="M22.8,435.6c9.5,0,19,0,28.5,0c0.5,0,0.5-0.8,0-0.8c-9.5,0-19,0-28.5,0C22.4,434.9,22.4,435.6,22.8,435.6
						L22.8,435.6z"/>
				</g>
			</g>
			<g>
				
					<rect x="51.3" y="435.4" transform="matrix(-1 -1.224647e-16 1.224647e-16 -1 132.1777 892.3506)" class="st1" width="29.6" height="21.6"/>
				
					<rect x="75" y="435.4" transform="matrix(-1 -1.224647e-16 1.224647e-16 -1 155.8654 892.3506)" class="st0" width="5.9" height="21.6"/>
				
					<rect x="65.4" y="438" transform="matrix(-1 -1.224647e-16 1.224647e-16 -1 136.4636 883.2936)" class="st6" width="5.7" height="7.2"/>
			</g>
			<g>
				
					<rect x="51.3" y="413.7" transform="matrix(-1 -1.224647e-16 1.224647e-16 -1 132.1777 848.9471)" class="st2" width="29.6" height="21.6"/>
				
					<rect x="75" y="413.7" transform="matrix(-1 -1.224647e-16 1.224647e-16 -1 155.8654 848.9471)" class="st0" width="5.9" height="21.6"/>
				
					<rect x="65.4" y="416.3" transform="matrix(-1 -1.224647e-16 1.224647e-16 -1 136.4636 839.8901)" class="st6" width="5.7" height="7.2"/>
			</g>
			<g>
				<g>
					<path class="st0" d="M51.6,435.6c9.5,0,19,0,28.5,0c0.5,0,0.5-0.8,0-0.8c-9.5,0-19,0-28.5,0C51.1,434.9,51.1,435.6,51.6,435.6
						L51.6,435.6z"/>
				</g>
			</g>
			<g>
				
					<rect x="80" y="435.4" transform="matrix(-1 -1.224647e-16 1.224647e-16 -1 189.6463 892.3506)" class="st5" width="29.6" height="21.6"/>
				
					<rect x="103.7" y="435.4" transform="matrix(-1 -1.224647e-16 1.224647e-16 -1 213.3341 892.3506)" class="st0" width="5.9" height="21.6"/>
				
					<rect x="94.1" y="438" transform="matrix(-1 -1.224647e-16 1.224647e-16 -1 193.9323 883.2936)" class="st6" width="5.7" height="7.2"/>
			</g>
			<g>
				
					<rect x="80" y="413.7" transform="matrix(-1 -1.224647e-16 1.224647e-16 -1 189.6463 848.9471)" class="st1" width="29.6" height="21.6"/>
				
					<rect x="103.7" y="413.7" transform="matrix(-1 -1.224647e-16 1.224647e-16 -1 213.3341 848.9471)" class="st0" width="5.9" height="21.6"/>
				
					<rect x="94.1" y="416.3" transform="matrix(-1 -1.224647e-16 1.224647e-16 -1 193.9323 839.8901)" class="st6" width="5.7" height="7.2"/>
			</g>
			<g>
				<g>
					<path class="st0" d="M80.3,435.6c9.5,0,19,0,28.5,0c0.5,0,0.5-0.8,0-0.8c-9.5,0-19,0-28.5,0C79.8,434.9,79.8,435.6,80.3,435.6
						L80.3,435.6z"/>
				</g>
			</g>
		</g>
	</g>
</g>
<g id="Background_simple" class="st7">
	<g class="st8">
		<path class="st9" d="M234.2,235.1c-37.8,4-74.2,12.5-106.5,25.8c-38.1,15.7-77,40.2-65.5,72.2c21.2,59.1,123,60.2,102.6,99.9
			c-23,45-7.6,97.8,95.7,112.5c196.1,27.9,433.2-135.3,366.6-225C585.7,264.7,434.7,213.9,234.2,235.1z"/>
		<path class="st10" d="M234.2,235.1c-37.8,4-74.2,12.5-106.5,25.8c-38.1,15.7-77,40.2-65.5,72.2c21.2,59.1,123,60.2,102.6,99.9
			c-23,45-7.6,97.8,95.7,112.5c196.1,27.9,433.2-135.3,366.6-225C585.7,264.7,434.7,213.9,234.2,235.1z"/>
	</g>
</g>
<g id="Shadow">
	<g>
		<g>
			<path class="st2" d="M722.3,589.2c0,10.1-156.6,18.4-349.8,18.4s-349.8-8.2-349.8-18.4c0-10.1,156.6-18.4,349.8-18.4
				S722.3,579.1,722.3,589.2z"/>
		</g>
	</g>
</g>
<g id="Warehouse">
	<g class="st11">
		<path d="M63,190.4c0.2-86.7,70.3-154.7,154.2-155.1c85.8-0.5,154.7,68.3,156.2,152.2c1.6,86.8-68.4,158.6-156,158.1
			C132.2,345.2,63.1,276.1,63,190.4z M218.3,342.2c83.2,0,150.3-66.9,151.7-148.9c1.5-85.3-66.6-153.1-148.8-154.7
			C135.8,37.1,67.1,105.6,66.4,189C65.7,273.9,134.4,342.4,218.3,342.2z"/>
		<path d="M96.8,304.2c-0.1,0.1-0.2,0.2-0.3,0.3c0-0.1,0-0.2,0-0.3C96.6,304.2,96.7,304.2,96.8,304.2z"/>
		<path d="M97.1,304.2c-0.1,0-0.2,0-0.3,0.1c0.1-0.1,0.2-0.2,0.3-0.3l0,0C97.1,304,97,304.1,97.1,304.2z"/>
		<polygon points="97.1,303.9 97.2,303.9 97.1,303.9 		"/>
		<path d="M96.5,304.6c0,0.2-0.1,0.4-0.3,0.3C96.2,304.8,96.4,304.7,96.5,304.6z"/>
		<path d="M327.2,191.8c0.1,59.1-47.7,108.9-109.1,108.9c-60.9,0-108.4-48.9-109.1-107.6c-0.8-62,49.6-111.2,110.1-110.7
			C278.4,82.9,327.4,131.4,327.2,191.8z M132.4,253.7c0.1,0.1,0.2,0.3,0.3,0.4c0.1,0.1,0.1,0.2,0.2,0.3c0.1,0.4,0.4,0.8,0.8,1l0,0
			c0.1,0.6,0.5,1,1,1.4c0.1,0.1,0.1,0.2,0.2,0.3c0.2,0.4,0.4,0.8,0.8,1l0,0c0.1,0.1,0.2,0.2,0.3,0.4l0,0c0.1,0.2,0.2,0.3,0.3,0.5
			c0.1,0.1,0.1,0.2,0.2,0.3c0.2,0.6,0.6,1,1.1,1.3l0,0c0.1,0.1,0.2,0.3,0.3,0.4c0.1,0.1,0.1,0.2,0.2,0.3c0.5,0.9,1.3,1.7,2.1,2.3
			l0,0c0.1,0.1,0.2,0.2,0.3,0.4l0,0c0.2,0.5,0.6,0.8,1,1.1c0.8,1,1.6,1.8,2.6,2.6c0.3,0.4,0.6,0.8,1.1,1l0,0
			c0.1,0.1,0.2,0.2,0.4,0.4l0,0c0.3,0.6,0.8,1,1.4,1.3l0,0c0.3,0.5,0.7,0.9,1.3,1.1c0.1,0.3,0.3,0.5,0.6,0.5
			c0.1,0.1,0.3,0.2,0.4,0.4l0,0c0.3,0.5,0.7,0.9,1.3,1.1c0.1,0.3,0.4,0.5,0.7,0.5c0.3,0.5,0.8,0.9,1.3,1.1c0.1,0.1,0.2,0.2,0.3,0.2
			c0.2,0.4,0.5,0.7,1,0.7c0,0,0,0,0,0c0.1,0.1,0.3,0.2,0.4,0.3l0,0c0.2,0.4,0.5,0.6,0.9,0.7l0,0c0.3,0.5,0.8,0.8,1.4,1
			c0.1,0.1,0.2,0.1,0.3,0.2c0.2,0.4,0.6,0.6,1,0.7l0,0c0.2,0.4,0.5,0.6,1,0.7l0,0c1.3,1.2,2.8,2,4.3,2.7l0,0c0.6,0.6,1.3,1,2.1,1.2
			l0,0c1.1,0.9,2.3,1.6,3.6,2l0,0c0.1,0.1,0.3,0.2,0.4,0.2c0.1,0.1,0.1,0.1,0.2,0.1c0.1,0.1,0.3,0.2,0.4,0.2c0,0.1,0.1,0.1,0.2,0.1
			c0.4,0.2,0.7,0.5,1.1,0.7c20.3,9.8,41.6,13.1,63.8,9.5c24.3-4,45.1-15.1,61.4-33.5c23.7-26.6,31.8-57.7,25.3-92.7
			c-1.1-5.9-2.8-11.6-5.1-17.1l0,0c-1.1-3.1-2.4-6.1-4-9l0,0c-0.3-0.9-0.7-1.9-1.4-2.6l0,0c0-0.5-0.2-0.8-0.6-1.1l0,0
			c-0.1-0.5-0.3-1-0.7-1.3l0,0c0-0.4-0.2-0.8-0.6-1l0,0c-0.2-0.7-0.5-1.3-1-1.7c0-0.1,0-0.1-0.1-0.2c0-0.2-0.1-0.3-0.3-0.4l0,0
			c0-0.5-0.3-0.8-0.6-1l0,0c-0.1-0.4-0.3-0.8-0.7-1l0,0c-0.1-0.4-0.3-0.8-0.7-1l0,0c-0.4-0.9-0.9-1.7-1.6-2.3l0,0
			c-0.4-0.9-0.9-1.7-1.7-2.3l0,0c-0.2-0.6-0.5-1-1-1.3l0,0c-0.2-0.7-0.8-1.3-1.3-1.8c0-0.1,0-0.1-0.1-0.2c-1-1.5-2.1-2.9-3.5-4.1
			l0,0c-0.1-0.1-0.2-0.3-0.3-0.4c-0.1-0.1-0.1-0.2-0.2-0.3c-2.8-3.3-5.9-6.3-9.4-9c0,0,0,0,0,0c-0.5-0.5-1-1-1.6-1.5
			c-4.3-3.6-9-6.7-13.9-9.6c-19-11-39.5-15.6-61.4-14c-2.3,0.2-4.7,0.2-7,0.9c-0.4,0-0.9,0-1.3,0.1c-11.7,1.9-22.7,5.5-33.2,11.1
			c-17.9,9.6-32,23.3-42.2,40.9c-3.5,6-6.4,12.2-8.4,18.9c-0.2,0.1-0.2,0.3-0.2,0.5c0,0.2-0.1,0.4-0.1,0.5c-0.3,0.2-0.3,0.5-0.2,0.8
			c-0.1,0.1-0.1,0.1-0.1,0.2c-0.3,0.2-0.3,0.5-0.2,0.8c-0.1,0.1-0.1,0.2-0.1,0.3c-0.3,0.2-0.3,0.4-0.2,0.7c0,0.1-0.1,0.2-0.1,0.3
			c-0.4,0.7-0.7,1.5-0.6,2.3c-0.1,0-0.1,0.1-0.1,0.2c-0.3,0.2-0.3,0.5-0.2,0.8c0,0.1,0,0.2-0.1,0.3c-0.4,0.3-0.4,0.6-0.3,1
			c0,0.2-0.1,0.4-0.1,0.6c-0.3,0.2-0.3,0.5-0.2,0.8c0,0.2-0.1,0.4-0.1,0.6c-0.4,0.4-0.3,0.9-0.3,1.4c-0.1,0.1-0.1,0.1,0,0.2
			c-0.9,3.4-1.4,6.9-1.6,10.4c0,0.3-0.1,0.6-0.1,1c-0.7,5.5-0.7,11.1-0.3,16.7c0.9,14.5,4.6,28.2,11.2,41.1c2.1,4.2,4.4,8.3,7.2,12
			l0,0c0.1,0.1,0.2,0.3,0.3,0.4l0,0c0.1,0.6,0.5,1,1,1.4c0,0.1,0,0.2,0.1,0.2C132.2,253.5,132.3,253.6,132.4,253.7L132.4,253.7z"/>
		<path d="M329.2,223.1c1.8,1.1,3.5,2,3.9,4.5c0.4,2.6,1.1,5.3,2.6,8c1.1-3,1.6-5.9,2.2-8.8c0.6-3,0.7-6,1.2-9
			c0.6-3.6,6.2-6.2,8.9-4.2c0.3,0.3,0.8,0.4,1.2,0.6c3.7,1.8,3.7,1.8,2.9,5.7c-1.5,7.5-3.1,14.9-4.5,22.4c-0.3,1.5-0.8,1.7-2.1,1.3
			c-0.6-0.2-1.3-0.4-1.9-0.2c0,0.1,0,0.1,0,0.2c0.5,0.9,2.5,0.2,2,2c-0.8,3-1.6,3.7-4.1,3.8c-0.3,0-0.5,0-0.9,0
			c0.2,0.3,0.3,0.5,0.5,0.6c2.2,1.4,1.7,3.2,0.7,5.1c-1.1,2-1.7,4.5-5,4.6c1.9,1.7,1.1,3.1,0.2,4.7c-4.5,7.5-9.5,14.7-15.3,21.2
			c-3.4,3.9-7.3,7.4-10.9,11.2c-2.1,2.2-4.6,2.4-7.2,0.7c-0.4-0.2-0.7-0.5-1.1-0.8c-0.1,0.1-0.2,0.2-0.2,0.3c0,1.2,0.8,2.5-0.3,3.6
			c-1.5,1.5-3.3,2.5-5.4,3.2c-0.5,0.2-0.9,0-1.1-0.5c-1.1-2.2-2.4-4.3-1.1-6.9c0.5-1.1,0.8-2.3,1.2-3.4c0.4-1.1,0.7-1.9-0.3-3.1
			c-0.9-1-0.4-2.6-0.8-4.2c1.6,0.6,2.5,1.6,3.5,2.5c1.3,1.2,2.6,2.4,3.9,3.6c1.7,1.5,2.5,1.5,4.1-0.1c6.5-6.4,12.9-12.8,18.1-20.3
			c2.8-3.9,5.4-7.9,7.7-12.2c0.5-0.9,0.6-1.5-0.5-1.9c-1.9-0.9-2.2-2.8-2.8-4.5c-0.3-0.9,0.4-0.9,0.9-0.6c1,0.6,2.1,1.3,3,2
			c0.9,0.7,1.6,0.6,2.1-0.4c0.6-1.3,1.2-2.6,1.8-3.9c0.4-0.8,0.2-1.2-0.6-1.4c-2.4-0.8-4.7-1.7-7.1-2.3c-2.6-0.7-3.8-2.6-4.9-4.7
			l0,0c3.7,0.8,7.2,2.1,10.7,3.2c3.5,1.1,3.5,1.1,4.9-2.3c0.9,0.2,1.1-0.2,1.3-1c1.3-6.8,2.7-13.5,4-20.3c0.3-1.4,0.8-2.7,0.7-4.3
			c-1.8,0.8-2,2.3-2.3,3.7c-0.8,5.3-1.5,10.7-2.9,15.9c0,0.1-0.1,0.2-0.1,0.4c-0.5,0.9-0.8,1.9-1.7,2.6c-0.1,0-0.2,0.1-0.4,0.1
			c-0.8-0.2-1.5-0.5-2.3-0.7c0,0,0,0,0,0c-0.1-0.1-0.2-0.2-0.3-0.3c0,0,0,0,0,0c-0.1-0.1-0.2-0.2-0.3-0.3c0,0,0,0,0,0
			c-0.1-0.1-0.2-0.2-0.3-0.3c-0.3-0.3-0.5-0.7-0.8-1c-0.1-0.1-0.2-0.2-0.2-0.3c0,0,0-0.1,0-0.1c-0.1-0.1-0.2-0.2-0.3-0.3
			c0,0,0,0,0,0c0-0.3-0.1-0.5-0.4-0.6c0,0,0-0.1,0-0.1c-0.1-0.1-0.2-0.2-0.2-0.4c-0.1-0.2-0.3-0.4-0.4-0.7c-0.2-0.6-0.4-1.2-0.9-1.7
			c0-0.1,0-0.2-0.1-0.3c-0.1-0.1-0.1-0.3-0.2-0.4c0-0.1,0-0.2-0.1-0.3c0-0.5-0.2-1-0.6-1.4c0-0.1,0-0.2-0.1-0.3
			c-0.1-0.6-0.2-1.2-0.6-1.7c0-0.1,0-0.2-0.1-0.3C329.7,226.4,328.9,224.8,329.2,223.1z M296.8,297.1c1.4-0.8,2.7-1.3,2.9-2.6
			c0.1-0.7-1-1.2-1.7-1.6C298,294.3,297.4,295.5,296.8,297.1z M342.7,243.1c-0.1,0.1-0.2,0.1-0.3,0.2c0.1,0,0.2,0.1,0.3,0.1
			c0.1,0,0.2,0,0.3-0.1C342.9,243.2,342.8,243.2,342.7,243.1z"/>
		<path d="M256.2,323.6c0.3,2.8-1.5,3-3.1,3.4c-1.1,0.3-2.3,0.6-3.4,0.7c-0.6,0.1-1.5,0.3-2,0c-1.4-0.8-2.4-1.3-3,0.8
			c-0.1,0.3-1.2,0.5-1.8,0.6c-6.2,1.1-12.4,1.7-18.6,2c-7,0.3-13.9,0.1-20.9-0.6c-0.3,0-0.6,0-0.8,0c-5.1-0.1-6.4-1.3-6.8-6.3
			c-0.1,0-0.3,0-0.3,0c-2.1,2.6-2.7,2.8-5.9,1.8c-4-1.3-4.1-1.5-2.2-5.2c0.6-1.1,1.4-2,2.6-2.4c1.1-0.4,2.3-0.9,3.4-1.4
			c1.3-0.5,2.6-0.8,2.7-2.8c0.1-1.1,1.5-2,2.7-3c0.5,2.7,0.4,5.2,0.3,7.7c0,0.1,0,0.2,0,0.3c0.1,3.7,0.2,4.1,3.9,4.4
			c5.7,0.4,11.4,0.9,17.1,0.8c7.8-0.1,15.5-0.9,23.1-2.3c0.9-0.2,1.4-0.4,1.1-1.5c-0.5-2,0.7-3.5,1.7-5c0.1-0.2,0.4-0.5,0.6-0.5
			c0.4,0,0.5,0.5,0.5,0.7c0.1,1.2,0.3,2.3,0.3,3.5c0,1.2,0.5,1.7,1.7,1.6c1.7-0.2,3.2-0.8,4.8-1.2c1-0.3,0.7-1.1,0.5-1.6
			c-0.6-1.9,0.5-3.4,1.3-5c0.4-0.7,0.9-0.7,1.1,0.1c0.3,1.1,0.5,2.3,0.7,3.4c0.2,1.6,0.5,1.9,2.2,1.4c1.4-0.4,2.8-0.9,4.3-1.3
			c0.6-0.2,0.8-0.4,0.8-1.2c-0.2-3.2,0.8-6.1,2.8-8.6c1.1-1.5,2.6-1.4,3.8,0.1c1,1.3,1.5,2.9,1.7,4.6c0.1,1,0.4,1.3,1.4,0.9
			c2.8-1.2,5.4-2.8,8.1-4.2c0.8-0.4,0.7-0.8,0.1-1.3c-0.3-0.2-0.6-0.6-0.9-0.7c-2.5-0.8-2.2-2.9-2.2-4.8c0-1,0.3-1.4,1.4-0.9
			c2.3,1.2,4.2,2.9,5.2,5.4c0.7,1.8,1.2,3.7,1.8,5.5c0.4,1.1,0,1.8-0.9,2.3c-8.2,4.7-16.8,8.4-25.8,11.1
			C259.4,325.2,257.9,325.3,256.2,323.6z M268.5,314.4c1,0,2.6-1.4,2.4-2.1c-0.3-0.9-1.1-1.2-1.9-1.3c-0.7-0.1-2.3,1.5-2.2,2.2
			C266.9,314.2,267.9,314.2,268.5,314.4z M195.7,318.4c-1.2,1-2.5,1.3-3.9,2c1.4,0.4,2.7,1.1,3.8,0.4
			C196.2,320.4,195.9,319.3,195.7,318.4z"/>
		<path d="M142.2,67.4c1.3,1.5,2.8,1.9,4.5,1.9c1.1,0,1.7,0.5,1.7,1.7c-0.1,2.3,1.1,4.1,2.6,5.7c1.8,2.1,2.7,4.5,3.5,7.1
			c0.3,1,0,1.7-0.9,2.2c-6,3.6-11.6,7.8-16.9,12.3c-1.2,1-1.9,1.2-4,0.8c1.3,2.1-0.3,3.1-1.5,4.3c-2,2-3.9,4-5.8,6.1
			c-1.2,1.3-2.3,2.8-5,2c1.9,2.1,0.5,3.2-0.5,4.5c-1.9,2.5-3.6,5-5.4,7.6c-0.7,1.1-1.5,2.1-2.9,2.2c-1,0.1-0.8,0.6-0.4,1.1
			c0.5,0.7,0.5,1.3,0,2.1c-4.9,8.4-8.9,17.2-11.6,26.5c-0.5,1.6-1.1,1.9-2.7,1.5c-4.1-1.1-8.2-2.1-12.4-2.9c-2.9-0.5-4.2-2.4-6-4.8
			c3.5,0.8,6.6,1.6,9.7,2.3c1.3,0.3,2.6,0.6,3.9,0.9c0.9,0.2,1.3-0.2,1.6-1c3-9.4,7-18.4,12.2-26.8c0.6-0.9,0.4-1.4-0.4-1.8
			c-1.8-1-2-2.8-2.5-4.5c-0.1-0.3-0.2-0.6,0.1-0.7c0.2-0.1,0.5,0,0.8,0.1c1.1,0.6,2,1.3,2.9,2.2c0.9,0.9,1.6,0.7,2.3-0.3
			c2.3-3.4,4.6-6.8,7.3-9.9c0.6-0.7,0.7-1.2-0.1-1.8c-1.7-1.2-1.7-3.1-2-4.9c-0.1-0.3-0.1-0.6,0.2-0.7c0.3-0.2,0.6,0.1,0.7,0.3
			c0.8,0.8,1.7,1.6,2.4,2.5c0.9,1.1,1.6,1.1,2.5,0c2.8-2.9,5.4-6,8.5-8.7c0.8-0.7,0.9-1.2,0.2-1.9c-1.3-1.3-1.1-3-1.3-4.7
			c0-0.4-0.1-0.9,0.3-1c0.4-0.2,0.7,0.3,0.9,0.5c0.7,0.9,1.4,1.7,2,2.7c0.7,1.1,1.4,1.2,2.3,0.4c5.2-4.4,10.5-8.4,16.3-12
			c0.8-0.5,1-0.8,0.3-1.6c-1.4-1.5-2.6-3.2-3.9-4.7c-0.2-0.3-0.4-0.5-0.7-0.7C142.2,72.1,141.7,70.8,142.2,67.4z"/>
		<path d="M243.4,48.3c0,4.4-0.7,8.7-1.1,13.1c-0.1,1.1,0.3,1.8,1.4,2c2.2,0.5,4.3,1,6.5,1.4c0.4-1.2-0.1-2.3-0.3-3.5
			c-0.3-1.1,1.5-4.1,2.6-4.4c0.6-0.1,0.6,0.4,0.7,0.7c0.8,2.1,1.1,4.3,0.6,6.5c-0.6,2.4-1.7,4.5-2.7,6.7c-0.3,0.7-1,1-1.8,0.8
			c-2.5-0.6-5.1-1.2-7.6-1.7c-1.8-0.4-2.1-1.9-2.3-3.5c-0.2,0.1-0.4,0.1-0.4,0.2c-0.9,2.6-2.8,2.5-5,2.2c-12-1.6-23.9-1.3-35.9,0.6
			c-0.7,0.1-1.5,0.1-2.3,0c-1.1-0.1-2.4-0.7-3.4,0.6c-0.5,0.7-1.7,0.9-2.6,0.7c-0.8-0.2-1.3-0.1-1.9,0.4c-0.6,0.5-1.4,0.9-2.1,0.9
			c-1.6-0.1-1.5,0.8-1.4,1.9c0,0.4,0,0.8,0,1.2c1.2,5.2-4.9,7.7-8.3,6.7c-1.6-0.5-2.5-1.7-3.1-3.3c-0.9-2.6-0.8-6,0.2-8.9
			c0.4,0.6,0.3,1.2,0.3,1.7c0.1,1.8,0,3.8,2,4.7c2,1,3.7,0,5.3-0.9c2.1-1.3,2.2-1.7,0.8-3.8c-0.2-0.3-0.3-0.6-0.6-0.8
			c-2.8-2.3-1.5-5.2-1.2-8c1,0.4,1.4,1.3,2,1.9c0.9,1.1,1.9,1.1,3.1,0.8c1.2-0.3,1.5-1.2,1.5-2.2c0-1,0.2-1.9,1.3-2.8
			c0.1,0.6,0.1,1.1,0.2,1.5c0.2,0.9-0.2,2.2,1.4,2.1c1.4-0.1,1.7-1,1.5-2.2c-0.2-1.4,0.5-2.4,1.4-3.3c0.7,0.9,0.5,1.9,0.7,2.7
			c0.3,1,0.8,1.4,1.9,1.3c11-0.6,21.9-2.3,33-1.2c3.3,0.3,6.6,0.7,9.9,1.1c1,0.1,1.3-0.1,1.4-1c0.3-2.4,0.7-4.8,0.8-7.3
			C240,51.5,241.5,49.8,243.4,48.3L243.4,48.3z"/>
		<path d="M328.9,121.5c0.9-1.1,0.4-2.1-0.1-2.9c-0.5-0.8-0.2-1.1,0.6-1.4c3.3-1,6.3,0.6,7,4.1c0.6,2.8-0.5,4.2-4.3,5.3
			c0.8,1.3,1.5,2.6,2.2,3.9c0.5,0.8,1.3,0.9,2.2,0.9c2.1,0.1,4.2,0.2,6,1.6c1.6,1.2,1.7,2.3,0.3,3.7c-2.6,2.5-5.4,4.4-9.3,3.7
			c-1.1-0.2-1.8-0.3-1.4-1.7c0.3-1.2,0.2-2.4,0.5-3.6c0.2-1-0.2-1.2-1-1.1c-2.4,0.3-3.9-0.8-4.9-2.9c-0.2-0.4-0.5-0.9-0.8-1.3
			c-0.8-1.2-1.7-2.4-0.2-4.1c-2.2,0.5-2.9-1-3.7-2.3c-5.9-8.8-12.7-16.8-20.6-23.8c-2.8-2.4-4.2-5-2.1-8.5c-0.2-0.1-0.3-0.2-0.4-0.2
			c-1.1,0.5-2.1,1.4-3.4,0.7c-1.8-1-3.1-2.5-4.1-4.2c-0.2-0.3-0.2-0.8,0.2-1.1c1.8-1.5,3.4-3.5,6.2-2.9c1.1,0.2,2.2,0.1,3.3,0.2
			c1.2,0.1,2.3,0.3,3.2-1.2c0.6-1,2.2-1.2,3.7-1.6c-0.6,2.2-1.7,4-2.7,5.8c-2.6,4.5-2.7,4.6,1,8c7.5,6.9,14.1,14.5,20.1,22.7
			C327.2,118.7,328,120.1,328.9,121.5z M302.1,85.7c-1.5,0.5-2.8,0.1-4.2,0.3c0.9,0.9,1.6,2,2.8,1.9
			C301.5,87.8,301.6,86.8,302.1,85.7z M338.1,136.4c0.9-0.8,1.8-1.1,1.6-2.1c-0.1-0.3-0.4-0.7-0.7-0.6
			C338.1,134.3,338.4,135.2,338.1,136.4z"/>
		<path d="M154.6,308.6c0.3-1.4-0.8-1.8-1.6-2.4c-0.8-0.5-0.8-0.9-0.1-1.5c1.3-1.1,2.2-2.8,4.5-1.9c2.5,0.9,4.8,1.8,5.4,4.7
			c0.2,1,0,1.8-0.7,2.6c-0.5,0.5-1.1,0.9-1.4,1.6c1.4,1.1,3.1,1.4,4.7,2.1c0.5,0.2,0.8,0.1,0.9-0.5c0.4-2.2,0.9-4.3,1.3-6.5
			c0.1-0.3,0-0.6,0.1-0.8c0-1-0.8-2,0-2.9c1-1.2,2.3-2.2,4-3c-0.6,2.1,0.4,3.7,1,5.3c0.4,0.9,0.2,1.5-0.6,2.1
			c-3.3,2.7-3.7,5.4-1.5,9.1c0.4,0.6,0.6,1.3,0.4,2c-0.6,1.7-1.4,3.4-2.5,4.8c-0.2,0.3-0.7,1-1,0.3c-1.2-3.4-4.6-3.4-7.1-4.5
			c-1.7-0.8-3.3-1.7-5.1-2.4c-1.2-0.5-0.8-1.7-1.2-2.7c-1.4,1.4-2.8,0.8-4.2,0c-1.5-0.8-3-1.7-4.5-2.5c-2.1-1.2-3.4-2.6-2.4-5.3
			c-0.4,0-0.6,0-0.6,0.1c-2.1,2.3-4.1,1-5.8-0.5c-1.5-1.3-2.5-1.4-4.2-0.3c-3.2,2.1-5.1,1.7-7.6-1.2c-1.1-1.2-2.2-2.5-2.5-4.6
			c3,2.7,6.2,3.8,9.9,2.7c-0.1-0.2-0.1-0.4-0.2-0.5c-2.7-2.3-2.8-4-0.2-6.4c1.8-1.7,3.9-3.1,6.3-3.8c2.2-0.7,3.3,0.4,2.9,2.6
			c-0.2,1.4-0.8,2.6-1.3,3.9c-0.2,0.4-0.5,0.8,0,1.2c1.3,1.1,2.7,1.9,4.1,2.7c0.6,0.4,0.7-0.3,0.9-0.7c1-1.8,2.2-3.6,3-5.5
			c1.2-2.9,3.4-4.2,6.2-5.1c-0.1,0.8-0.5,1.4-0.8,2c-1.7,3.2-3.4,6.5-5.2,9.7c-0.7,1.2-0.5,2.1,0.6,2.8
			C150.6,306.7,152.5,307.9,154.6,308.6c0,0.1,0,0.3,0.2,0.1C154.8,308.6,154.7,308.6,154.6,308.6z M137.3,297.5
			c0-1,0.6-1.9-0.4-2.5c-0.3-0.2-1-0.2-1.1,0.3C135.5,296.3,136.4,296.8,137.3,297.5z"/>
		<path d="M112.3,241.2c-4.3,2.1-8.2,4-12.1,5.8c-1.4,0.6-1.6,1.3-1,2.6c4.8,10.7,10.8,20.7,18.5,29.6c1,1.2,2,2.4,3,3.6
			c1.2,1.4,2.6,2.4,4.7,1.6c1.9-0.7,4-1,6-0.2c1.9,0.7,2.3,1.7,1.4,3.5c-1.6,3.5-3.9,6.1-8,6.7c-1,0.1-1.4-0.1-1.6-1
			c-0.3-1.4-0.7-2.7-0.9-4c-0.2-0.9-0.6-1.1-1.4-0.7c-2.6,1.3-4.3,0.2-6-1.8c-6.2-7.1-11.8-14.7-16.4-22.9
			c-2.7-4.9-5.2-9.9-7.2-15.1c-0.3-0.9-0.1-1.3,0.7-1.7c4.6-2.1,9.1-4.3,13.6-6.5c0.7-0.3,1.3-0.5,2.1-0.3
			C109.2,240.6,110.6,240.8,112.3,241.2z M128.4,288.4c0.6-0.2,0.6-0.7,0.8-1.1c0.2-0.5,0-0.9-0.4-1.1c-0.2-0.1-0.6-0.2-0.8-0.1
			c-0.5,0.2-0.2,0.7-0.1,1C128.1,287.5,127.9,288.1,128.4,288.4z"/>
		<path d="M276.6,72.2c1.7,0.1,3.4-0.4,5.1-0.5c1,0,2.1-0.2,3.1-0.2c2.3,0,3.6,1,4.2,3c0.6,2,0.1,3.6-1.7,4.9
			c-1.8,1.3-3.6,2.6-5.7,3.4c-1.7,0.6-3.3,0.6-4.9-0.3c-3.1-1.7-6.2-3.5-9.5-4.7c-0.8-0.3-1.2-0.2-1.8,0.4c-1.1,1.3-2.3,2.4-3.8,3.2
			c-1.6,0.9-2.7,0.7-4-0.5c-1.3-1.3-2.5-2.7-3.1-4.4c-0.1-0.3-0.4-0.6,0-0.9c0.3-0.2,0.5,0.1,0.7,0.3c3,1.9,6.3,1.7,8.9-0.6
			c0.6-0.5,0.9-1.1,0.9-1.9c0-0.6-0.1-1.2-0.2-1.8c-0.4-2.8,0.2-3.8,2.6-5.2c0.6-0.4,0.8-0.1,0.9,0.4c0.2,0.5,0.4,1.1,0.4,1.6
			c0,2.7,1.9,3.6,4,4.3c0.8,0.3,1.1-0.1,1.2-0.7c0.9-3.2,2.8-6,3.1-9.4c0.1-1.5,1.9-2.1,3.4-3.2c-0.5,1.9,0.1,3.3,0.9,4.6
			c0.6,1,0.5,1.6-0.6,2.1C278.4,67.3,277.9,70,276.6,72.2c-0.1,0-0.2,0-0.3,0c0,0.1,0,0.1,0,0.2C276.5,72.3,276.6,72.3,276.6,72.2z
			 M276.8,74.3c2,1.4,4,2.7,6.3,3.5c0.5,0.2,1.1,0.4,1.4-0.1c0.3-0.4,0-0.8-0.2-1.2c-0.6-1.3-1.6-2.1-3-2.2
			C279.7,74.2,278.2,74.3,276.8,74.3z"/>
		<path d="M336.9,144.1c0.1,0,0.2,0,0.3-0.1c0.1-0.1,0.3-0.2,0.4-0.2c0.1,0,0.2,0,0.2-0.1c0.3,0,0.5,0,0.6-0.3
			c0.2-0.1,0.5-0.2,0.7-0.3c0.5,0,1-0.2,1.4-0.6c0.1,0,0.2-0.1,0.3-0.1c0.1-0.1,0.3-0.1,0.4-0.2c0.1,0,0.2,0,0.3-0.1
			c0.1-0.1,0.3-0.1,0.4-0.2c0.1,0,0.2,0,0.2-0.1c0.7-0.2,1.4-0.4,2-0.9c0,0,0,0,0,0c0.3,0,0.5,0,0.7-0.3c0,0,0,0,0,0
			c0.5-0.1,1-0.3,1.4-0.6c0.1,0,0.2,0,0.3-0.1c0.1-0.1,0.3-0.1,0.4-0.2c0.1,0,0.2,0,0.2-0.1c0.3,0,0.5,0,0.6-0.3c0,0,0.1,0,0.1,0
			c0.7-0.2,1.3-0.5,2-0.7c0.3,0,0.7,0.1,1,0.1c0.3,0.3,0.6,0.3,1,0.2c0.2,0,0.4,0,0.7,0.1c0.5,0.4,1.1,0.4,1.6,0.3
			c0.2,0.2,0.4,0.3,0.3,0.7c-0.3,0-0.5,0.1-0.6,0.3c-0.1,0-0.2,0.1-0.3,0.1c-0.1,0.1-0.2,0.1-0.4,0.2c-0.1,0-0.2,0-0.3,0.1
			c-0.1,0.1-0.3,0.1-0.4,0.2c-0.1,0-0.2,0-0.2,0.1c-0.8,0.1-1.4,0.4-2,0.9c-0.1,0-0.2,0-0.3,0.1c-0.2,0-0.3,0-0.4,0.2c0,0,0,0,0,0
			c-1.3,0.4-2.5,1-3.7,1.7c-0.1,0-0.2,0-0.3,0.1c-0.1,0.1-0.3,0.1-0.4,0.2c-0.1,0-0.2,0-0.3,0.1c-0.3,0-0.5,0-0.6,0.3
			c0,0-0.1,0-0.1,0c-0.5,0.1-1,0.2-1.3,0.6c0,0,0,0,0,0c-1.4,0.3-2.1,0.9-1,2.3c0,0,0,0,0,0c0,0.3,0,0.6,0.3,0.7
			c0.1,0.2,0.3,0.4,0.4,0.6c0,0.3,0,0.5,0.2,0.7c0,0.2,0.1,0.4,0.1,0.7c-0.1,0.3,0,0.5,0.2,0.7c0,0.1,0,0.2,0.1,0.3
			c0,0.7,0.2,1.4,0.6,2.1c0,0.1,0,0.2,0.1,0.3c0,1,0.4,1.9,1,2.7c0.4,0.5,0.8,0.5,0.8-0.2c0-1.6,0.5-3.3-0.6-4.8c0,0,0-0.1,0-0.1
			c-0.1-0.6-0.4-1-0.9-1.4c0.1-0.3,0.3-0.6,0.6-0.7c1.1,0,2.2,0,3.3,0c0.2,0,0.4,0.1,0.6,0.1c0.2,0.2,0.4,0.3,0.7,0.2
			c0.1,0,0.2,0.1,0.4,0.1c0.6,0.6,1.3,1.2,1.9,1.7c0.4,2.2-0.2,4.3-1,6.3c-0.8,2-1.4,4-0.6,6.1c0.3,0.8,0.1,1.3-0.9,1.1
			c-1.3-0.3-2.8,0-4.1-0.6c0-0.7-0.2-1.4-0.6-2c0,0,0,0,0,0c0-0.3,0-0.6-0.3-0.7c0-0.1,0-0.2-0.1-0.3c-0.1-0.1-0.2-0.3-0.2-0.4
			c0-0.1,0-0.2-0.1-0.3c0-0.2-0.1-0.3-0.2-0.3c0,0,0,0,0,0c-0.2-0.6-0.7-0.9-1.2-1.1c0,0,0,0,0,0c-0.6-0.8-1.5-1-2.4-1.3
			c0,0,0,0,0,0c-0.1-0.3-0.4-0.3-0.6-0.3c0,0,0,0,0,0c-0.1-0.1-0.2-0.1-0.3-0.2c-0.1-0.1-0.2-0.1-0.3-0.1c-0.1-0.1-0.2-0.2-0.4-0.3
			c0,0,0,0,0,0c-0.1-0.1-0.2-0.2-0.3-0.3c0,0,0,0,0,0c-0.1-0.1-0.2-0.2-0.3-0.3c-0.1-0.2-0.3-0.4-0.4-0.6c-0.1-0.6-0.2-1.2-0.6-1.7
			c0-0.1,0-0.2-0.1-0.3c0.1-0.7-0.1-1.2-0.6-1.7c0,0,0,0,0,0c-0.2-1.2-0.6-2.3-1.3-3.3c0,0,0,0,0,0c0-0.6-0.3-1.2-0.7-1.7
			c0-0.1,0-0.2-0.1-0.3c0.1-0.1,0-0.2-0.1-0.3c0-0.1,0.1-0.3,0.1-0.4c0.1-0.1,0.2-0.2,0.3-0.2c0,0,0,0,0,0c0.2-0.1,0.3-0.2,0.5-0.2
			c0.1,0,0.1,0,0.2-0.1c0.3,0,0.5,0,0.7-0.3c0,0,0,0,0,0c0.3,0,0.6,0,0.7-0.3c0.1,0,0.2,0,0.3-0.1
			C336.6,144.2,336.8,144.1,336.9,144.1z"/>
		<path d="M98.6,220.3c-1.5,0.6-2.7,0.4-3.8,0.5c-2.6,0.3-3.6,1.6-3,4.2c0.8,3.5,1.6,6.9,2.3,10.3c0.2,1,0.5,1.3,1.4,0.6
			c0.3-0.2,0.6-0.3,0.8-0.6c1.7-2.4,3.7-1.4,5.7-0.7c0.9,0.3,0.7,0.6,0.3,1.1c-1.8,2.1-4,3.5-6.8,3.8c-1.9,0.2-3.7,0.2-5.6,0.3
			c-1.1,0.1-1.8-0.4-2.1-1.6c-0.9-4.2-2-8.4-2.9-12.6c-0.6-2.8,0.4-4.5,3-5.5C91.3,219,94.8,219.1,98.6,220.3z"/>
		<path d="M173.5,324.3c1.1-5.3,1.9-10.3,3.2-15.3c0.6-2.2,2.6-3.6,4.5-5.4c-0.5,4.2-1.2,7.9-2.2,11.5c-0.4,1.6-0.7,3.2-1.4,4.8
			C176.8,321.7,175.6,323.2,173.5,324.3z"/>
		<path d="M254.5,73.1c0.6-3.2,1.1-6,1.6-8.9c0.3-1.4,0.7-2.8,0.8-4.2c0.2-3.2,2.4-5.1,4.6-7.7c-0.2,3.1-0.7,5.6-1.2,8.2
			c-0.5,2.6-1,5.3-2,7.9C257.7,70.2,256.7,71.9,254.5,73.1z"/>
		<path d="M341.3,267.7c-0.8,0.1-0.9-0.2-1-0.5c-0.3-0.6-0.5-1.2-0.8-1.8c-0.6-1.1-0.3-1.9,0.9-2.2c1.6-0.5,2.3-1.3,1.3-3
			c-0.3-0.6-0.2-1,0.5-1.2c0.3-0.1,0.6-0.3,0.9-0.4c0.8-0.2,1.7-1.5,2.3-0.9c0.8,0.7,1.1,2,1.4,3.1c0.3,0.9-0.8,1.1-1.3,1.4
			c-1.3,0.6-2.1,1.4-1.2,2.9c0.3,0.5,0.2,0.9-0.3,1.2C342.9,266.8,342,267.3,341.3,267.7z"/>
		<path d="M266.5,304.1c-0.6-0.1-1.2-0.1-1.7-0.3c-1-0.4-1.6,0-1.8,1c-0.2,1.1-0.8,1.5-1.9,1.2c-0.5-0.2-1.1-0.3-1.6-0.3
			c-1.2-0.1-1.5-0.7-1-1.8c0.1-0.2,0.1-0.3,0.1-0.5c0.8-2.3,0.8-2.4,3.1-1.7c1.3,0.4,1.8,0.1,2-1.2c0.2-1.2,0.8-1.6,1.9-1
			c0,0,0.1,0,0.2,0c3.1,0.8,3.1,0.9,1.8,3.8C267.4,303.9,267.2,304.3,266.5,304.1z"/>
		<path d="M250.6,335c-0.4-0.1-0.7-0.2-1-0.3c-1.4-0.7-2.7-1.2-3.5,0.9c-0.1,0.4-0.5,0.5-1,0.4c-3.4-0.6-3.8-1.6-1.9-4.5
			c0.5-0.7,0.9-0.8,1.6-0.4c0.5,0.3,1,0.4,1.5,0.7c0.8,0.5,1.2,0.3,1.5-0.5c0.6-1.6,1.4-1.6,2.8-0.8c2.2,1.2,2.3,1.1,1,3.3
			C251.4,334.2,251.3,334.9,250.6,335z"/>
		<path d="M199,309.1c-0.3,1.1-1,1.3-1.4,1.8c-1.1,1.2-2.2,1.5-3.3,0c-0.8-1.1-1.7-1.4-2.7-0.2c-0.5,0.6-1,0.5-1.7,0
			c-2.6-2.1-2.5-3.4,0.5-4.9c0.4-0.2,0.7-0.2,1,0.2c0.4,0.4,0.9,0.8,1.3,1.3c0.6,0.9,1.3,0.9,1.9,0.1c1-1.2,1.8-0.8,2.6,0.3
			C197.7,308.3,198.5,308.7,199,309.1z"/>
		<path d="M293.7,286.7c0.5,1.8-0.8,2.2-2.4,2.2c-1.2,0-1.9,0.3-1.7,1.6c0.2,1.1-0.5,1.4-1.5,1.5c-3.2,0.3-3.3,0.1-3-3.1
			c0.1-1.1,0.5-1.4,1.5-1.3c0.4,0,0.9-0.1,1.3,0c1,0.1,1.3-0.3,1.2-1.2c-0.2-1.5,0.5-2.1,2-1.8c0.2,0,0.4,0,0.7,0
			C293.9,284.3,293.9,284.3,293.7,286.7z"/>
		<path d="M141.4,102.1c0.5,1.6-0.3,2.2-1.7,2.2c-1.3,0-2.1,0.4-1.8,2c0.2,1-0.6,1.1-1.3,1.2c-2.8,0.4-3.8-0.7-3.2-3.5
			c0.2-0.8,0.7-0.6,1.1-0.6c1.6-0.1,3-0.2,2.5-2.4c-0.1-0.3-0.1-0.7,0.4-0.8c1.2-0.1,2.4-0.4,3.4-0.2
			C141.8,100.2,141.1,101.4,141.4,102.1z"/>
		<path d="M303,77.2c-0.6-0.1-1.3,0.7-1.8-0.1c-0.6-1-0.9-2.1-1-3.3c0-0.4,0.3-0.5,0.7-0.6c0.6-0.2,1.3-0.3,1.9-0.5
			c1.2-0.5,1.7,0,1.9,1.2c0.2,1.5,0.8,2.3,2.5,1.7c0.7-0.3,1.2,0,1.2,0.9c0,0.2,0.1,0.4,0.1,0.7c0.1,0.8,1,1.7,0.4,2.3
			c-0.7,0.8-2,0.8-3.1,0.9c-1.3,0.1-1-1.2-1.3-1.9C304,77.8,304.1,76.9,303,77.2z"/>
		<path d="M120.1,127.6c0,1.2-0.9,1.3-1.5,1.5c-1.2,0.4-2,0.9-1.2,2.3c0.4,0.8,0,1.2-0.7,1.5c-0.6,0.2-1.2,0.5-1.8,0.8
			c-0.7,0.3-1.3,0.2-1.5-0.6c-0.1-0.3-0.2-0.6-0.3-0.9c-0.8-2.1-0.8-2.2,1.3-2.9c1.2-0.4,1.5-0.9,0.9-2c-0.5-0.9-0.3-1.6,0.8-1.7
			c0.2,0,0.4-0.1,0.6-0.2c0.7-0.2,1.7-1.1,2.1-0.6C119.5,125.5,119.8,126.7,120.1,127.6z"/>
		<path d="M276.4,298.8c-1.3-0.5-1.9,0-2,1.4c-0.2,1.5-1.4,0.9-2.2,0.9c-0.6,0-1.8,0.2-1.9-0.6c-0.2-1.1,0.1-2.3,0.7-3.3
			c0.3-0.5,0.9-0.1,1.4,0c1.4,0.3,2.5,0.1,2.7-1.7c0.1-0.7,0.5-1.1,1.2-0.9c0.2,0,0.4,0.1,0.7,0.1c2.6,0.3,2.5,0.3,2.1,2.8
			C278.7,299.3,277.5,298.7,276.4,298.8z"/>
		<path d="M103.8,221.2c1,0.5,2,1,2.9,1.5c0.6,0.3,0.1,0.8-0.1,1.1c-0.8,1.5-1,2.8,1,3.5c0.6,0.2,0.7,0.6,0.4,1.2
			c-0.1,0.2-0.2,0.4-0.3,0.6c-1,2.7-1.4,2.7-3.9,1.1c-0.9-0.6-0.4-1.3-0.2-1.9c0.6-1.4,0.9-2.4-0.9-3.2c-1.1-0.5-0.1-1.5,0.1-2.3
			C102.9,222.3,103,221.5,103.8,221.2z"/>
		<path d="M161.6,81.5c-0.7-0.3-0.7-1-1.1-1.5c-1-1.4-0.9-2.2,0.9-2.8c1.6-0.6,3.1-1.4,4.6-2.2c1-0.5,1.5-0.3,1.9,0.7
			c0.1,0.4,0.3,0.7,0.5,1c0.7,1,0.4,1.5-0.6,2c-1.8,0.7-3.5,1.6-5.2,2.5C162.2,81.2,161.9,81.3,161.6,81.5z"/>
		<path d="M252.8,309.9c-1.3,0-3.5-1.1-3.2-1.7c0.6-1.2,0.7-3.2,1.9-3.4c1.1-0.2,2.6,0.9,3.6,1.8C255.6,307,253.5,309.9,252.8,309.9
			z"/>
		<path d="M125.3,118.8c-1.4,0-2.2-1.1-1.9-3.5c0.2-1.8,2.3-1.1,3.3-1.1c1.7,0,1.1,2,1.1,3C128,119,126,118.2,125.3,118.8z"/>
		<path d="M330.8,159c0.5-0.9,0.3-2.4,1.8-2.7c0.8-0.1,3.5,1.7,3.3,1.9c-0.9,1-0.6,2.9-2.1,3.2C332.7,161.8,330.7,160,330.8,159z"/>
		<path d="M245.8,78.4c-0.6,0-2.5-2.2-2.6-2.9c0-0.3,2.8-2.8,3-2.6c1,1,1.8,2.1,2.7,3.1C249,76.3,246.1,78.4,245.8,78.4z"/>
		<path d="M323.8,241.4c0,0-0.1,0-0.1-0.1C323.7,241.4,323.8,241.4,323.8,241.4C323.8,241.4,323.8,241.4,323.8,241.4z"/>
		<path d="M329.2,223.1l-0.2,0c0,0-0.2,0-0.2,0C329,223,329.1,222.7,329.2,223.1z"/>
		<path d="M243.4,48.3c0,0,0-0.1,0-0.1C243.4,48.2,243.4,48.3,243.4,48.3C243.4,48.3,243.4,48.3,243.4,48.3z"/>
		<path d="M221.8,267.7c-2.1,0-4.2-0.1-6.3-0.1c-0.8,0-1.3-0.1-1.2-1.1c0-0.3,0.1-0.8-0.3-0.9c-1.7-0.3-1.2-1.6-1.1-2.6
			c0-2.3-0.5-4.6,0.2-6.8c6.9-0.1,13.8-0.2,20.7-0.2c1.3,0,1.6-0.4,1.6-1.6c-0.1-2.7,0-5.4,0-8.1c0-31.6,0-63.1,0-94.7
			c0-3.9,0-3.9,3.8-3.9c13.5-0.1,26.9-0.1,40.4-0.2c1.2,0,1.7,0.3,1.7,1.6c0,0.5-0.5,1.5,0.7,1.4c1.7-0.2,2.3,0.5,2.1,2.2
			c-0.1,1,0,2.1,0,3.1c0,0.6,0.1,1.1-0.7,1.2c-0.1-0.1-0.2-0.1-0.3,0c-0.6,0-1.2,0-1.7,0c-0.6,0-1.3,0-1.9,0c-0.5,0-0.9,0-1.4,0
			c-2.2,0-4.4,0-6.6,0c-0.4,0-0.7,0-1.1,0c-7.7,0-15.5,0-23.2-0.1c-1.2,0-1,0.7-1,1.4c0,5.6,0,11.2,0,16.8c0,5.8,0.1,11.6,0.1,17.4
			c0,2,0,4,0,6c0,0.6-0.1,1.2-0.1,1.8c0,11.9,0,23.8,0,35.7c0,1.3,0.1,2.7,0.1,4c0,0.7,0,1.4,0,2c-0.1,3.2-0.2,6.4,0,9.6
			c0,2.7,0,5.3,0,8c0,2.2-0.1,4.4-0.1,6.6c0,1.1-0.4,1.4-1.4,1.4c-3.7,0-7.4,0-11.1,0c-1.9,0-3.8,0-5.8,0
			C225.8,267.8,223.8,267.7,221.8,267.7z"/>
		<path d="M178.7,247c0,0.6,0,1.2,0,1.8c-0.1,0.1-0.1,0.2,0,0.3c0,2.1,0,4.3,0,6.4c-0.4,1.3,0.5,1.3,1.4,1.3c5,0,10,0,15,0.1
			c4.4,0,4.4,0,4.2,4.4c0,0.6-0.1,1.2,0.8,0.9c0.8,0,1.6,0.1,2.4,0.1c0.7,0,1,0.2,1,0.9c-0.1,1.3-0.1,2.6,0,3.8c0,0.4,0,0.7,0,1.1
			c-0.1,0.1-0.1,0.1,0,0.2c-0.1,0.1-0.1,0.1-0.1,0.2c-1,0.1-2-0.2-3,0.2c-0.2,0-0.4,0-0.7,0c-0.7-0.3-1.3-0.2-2,0
			c-1.3-0.3-2.7-0.3-4,0c-1-0.2-2-0.2-3,0c-3-0.3-6-0.1-8.9-0.1c-3,0-6,0-9,0c-2.5,0-2.5,0-2.7-2.5c0-0.2-0.1-0.6-0.1-0.6
			c-2.1-0.1-1.7-1.6-1.7-2.8c0-28.7-0.1-57.4-0.1-86.2c0-6.7,0.1-13.4,0.2-20.1c0,0,0.1,0,0.1,0c2.3,0,4.6,0.1,7,0
			c1.1,0,1.5,0.3,1.4,1.4c0,0.6-0.6,1.6,0.6,1.9c0.8,0,1.1,0.4,1.1,1.2c0,2.2,0,4.4,0.1,6.5c0,0.3-0.1,0.7-0.1,1
			c0,17.6,0,35.3,0,52.9c0,6.5,0,13,0.1,19.6c0,1.9,0,3.8,0,5.7C178.7,246.6,178.7,246.8,178.7,247z"/>
		<path d="M276,142.2c-19.4,0-38.8,0-58.2,0c-5,0-9.9,0.1-14.9,0.1c-0.8,0-1.5-0.1-2.3-0.1c-2.2,0-2.2,0-2.4-2.2
			c0.2-0.9-0.4-0.9-1-0.9c-1.3,0.2-1.6-0.6-1.5-1.7c0.1-1.3,0.1-2.7,0-4c-0.1-1.2,0.4-1.5,1.5-1.5c4.7,0,9.3,0,14,0
			c22.3,0,44.7,0,67,0c2.4,0,2.4,0,2.7,2.3c0,0.3,0.2,0.4,0.4,0.4c2.3,0.2,2.3,0.2,2.3,2.5c0,1.2-0.1,2.4,0,3.6
			c0.1,1.2-0.4,1.5-1.5,1.5C280,142.1,278,142.2,276,142.2z"/>
		<path d="M191,147.6c0,0.4,0,0.8,0,1.1c-0.1,0.8-0.1,1.7,0,2.5c-0.3,0.8-1,0.5-1.6,0.5c-2.1,0.1-4.2-0.1-6.2,0.2
			c-0.5-0.1-1.1-0.2-1.6,0c-1-0.3-2-0.3-3-0.1c-1.1,0-2.2,0-3.3,0c-1.4-0.3-2.7-0.3-4.1,0c-0.7-0.3-2.1,0.5-1.9-1.1
			c0.2-1.1-1.1-1.2-1-2.2c0.2-1.8,0.2-3.5,0.2-5.3c0,0,0.1,0,0.1,0c0.4,0,0.9,0,1.3,0c5.9,0,11.8,0,17.7,0c0.7,0,1.6-0.2,1.5,0.9
			c-0.1,1.4,0.8,1.3,1.7,1.3c0,0.1,0,0.2,0.1,0.2C191,146.4,191,147,191,147.6z"/>
		<path d="M191,134.7c0,0.3,0,0.5,0,0.8c-0.2,1.6,0.2,3.3-0.2,4.9c-1.7-0.1-3.3-0.2-4.9,0c-1.2,0-2.4,0-3.6,0
			c-3.6,0-7.2-0.1-10.8-0.1c-1.1,0-1.7,0-2.4-1.5c-1.2-2.4-0.6-4.6-0.5-6.9c5.9,0,11.8,0.1,17.7,0.1c1.4,0,2.9-0.3,3.2,1.8
			c0.5,0.3,1.3-0.1,1.5,0.7C190.9,134.5,190.9,134.6,191,134.7z"/>
		<path d="M232.1,200.5c-0.2,2.1-0.1,4.2,0,6.3c0,1.4-0.1,2.8-0.1,4.1c0,12.8,0,25.6,0,38.3c0,2.8,0.4,2.4-2.3,2.4
			c-2.7,0-5.3,0-8-0.1c0.1-0.9-0.5-0.9-1.2-0.9c-1.6,0.1-3.2,0.2-4.7-0.1c0,0,0,0,0,0c0.1-2.8,0.2-5.5,0.3-8.3c0,0,0,0,0,0
			c1,0,2-0.1,3,0.1c1.3,0.1,1.7-0.4,1.7-1.7c-0.1-7.7,0-15.5,0-23.2c0-22.4,0-44.8,0-67.2c0-1.3,0.3-1.9,1.7-1.8
			c1.7,0.1,3.3,0.1,5,0c1.2-0.1,1.8,0.4,1.6,1.6c-0.2,1.3,0.3,1.9,1.6,1.7c1.3-0.2,1.4,0.6,1.4,1.6c0,13.4,0,26.9,0,40.3
			c0,0.4,0,0.8,0.1,1.2c0,0.3,0,0.7,0,1c-0.1,1.2-0.1,2.4,0,3.6C232.2,199.9,232.1,200.2,232.1,200.5z"/>
		<path d="M190.5,155.7c0.1,0.1,0.2,0.3,0.2,0.4c0,0.6,0,1.2,0,1.8c0,0.8,0.2,1.2,1,1.1c1.3-0.2,1.4,0.5,1.4,1.6
			c0,7.6,0,15.2,0,22.8c0,16.4,0,32.8,0,49.2c0,0.6,0.1,1.1,0.1,1.7c0,2.6,0,5.2-0.1,7.8c0,0.9,0.3,1.2,1.2,1.1c0.1,0,0.2,0,0.3,0
			c3,0,3,0,3.2,3c0,0.4-0.1,1,0.4,1c1.8,0,1.3,1.3,1.3,2.2c0,4.2,0,4.2-4.2,4.2c-2.9,0-5.9-0.1-8.8,0c-1.6,0.1-2.5-0.2-2.3-2
			c-0.1-1.2-1-0.5-1.6-0.7c0-0.1-0.1-0.2-0.1-0.3c0-7.4,0-14.8,0.1-22.3c0-23.4,0-46.9,0-70.3c0-0.7,0-1.4,0.1-2.2
			C185.2,155.7,187.9,155.7,190.5,155.7z"/>
	</g>
	<g>
		<g>
			<polygon class="st12" points="596.8,378.7 596.8,569.8 376.9,569.8 376.9,372 			"/>
			<polygon class="st13" points="596.8,378.7 596.8,569.8 376.9,569.8 376.9,372 			"/>
		</g>
		<polygon class="st12" points="241.4,305.6 118.7,380.3 118.7,580 378.9,580 378.9,376.6 		"/>
		<polygon class="st14" points="241.4,305.6 118.7,380.3 118.7,580 378.9,580 378.9,376.6 		"/>
		<polygon class="st12" points="167,568.6 167,410.2 334.6,410.2 334.6,569.8 604,569.8 604,580.8 114.3,580.8 114.3,568.4 		"/>
		<g>
			<rect x="393.3" y="454.4" class="st12" width="44.6" height="119.5"/>
			
				<rect x="358.9" y="494.7" transform="matrix(-1.836970e-16 1 -1 -1.836970e-16 929.657 98.5596)" class="st15" width="113.4" height="38.8"/>
		</g>
		<g>
			<rect x="461.3" y="454.2" class="st12" width="44.6" height="119.5"/>
			
				<rect x="426.9" y="494.5" transform="matrix(-1.836970e-16 1 -1 -1.836970e-16 997.4661 30.3177)" class="st15" width="113.4" height="38.8"/>
		</g>
		<g>
			<rect x="523.8" y="454.2" class="st12" width="44.6" height="119.5"/>
			
				<rect x="489.4" y="494.5" transform="matrix(-1.836970e-16 1 -1 -1.836970e-16 1059.9849 -32.201)" class="st15" width="113.4" height="38.8"/>
		</g>
		<polygon class="st12" points="114.3,382.9 114.3,373.8 242.5,301.1 421.4,300.5 600.3,372 600.3,378.7 376.9,378.7 242.5,309.7 		
			"/>
		<rect x="376.9" y="372" class="st16" width="223.5" height="6.7"/>
		<polygon class="st11" points="421.4,300.5 242.5,301.1 376.9,372 600.3,372 		"/>
		<g>
			<g>
				<path class="st15" d="M376.9,372.4c11.6,0,23.2,0,34.8,0c15.9,0,31.7,0,47.6,0c17.4,0,34.8,0,52.2,0c16.2,0,32.4,0,48.6,0
					c12.3,0,24.6,0,36.9,0c1.1,0,2.2,0,3.3,0c0.5,0,0.5-0.8,0-0.8c-11.6,0-23.2,0-34.8,0c-15.9,0-31.7,0-47.6,0
					c-17.4,0-34.8,0-52.2,0c-16.2,0-32.4,0-48.6,0c-12.3,0-24.6,0-36.9,0c-1.1,0-2.2,0-3.3,0C376.4,371.6,376.4,372.4,376.9,372.4
					L376.9,372.4z"/>
			</g>
		</g>
		<g>
			<rect x="495.8" y="412.9" class="st17" width="40.3" height="18.5"/>
			<rect x="390.8" y="412.9" class="st17" width="40.3" height="18.5"/>
			<path class="st17" d="M393.6,431.4c0,0,5.4-11.6,12.7-8.4c7.3,3.1,10.1,6.6,13.8,2.6c3.7-3.9,2.4-12.7,2.4-12.7h5.1
				c0,0-2.8,13.9-8.7,16.8c-3.9,2-9.2-7.1-13.8-4.4c-4.6,2.8-5.9,6.1-5.9,6.1H393.6z"/>
			<path class="st17" d="M503.4,431.4c0,0,4.9-11.6,11.6-8.4c6.7,3.1,9.2,6.6,12.6,2.6c3.4-3.9,2.2-12.7,2.2-12.7h4.7
				c0,0-2.6,13.9-8,16.8c-3.6,2-8.4-7.1-12.6-4.4c-4.2,2.8-5.4,6.1-5.4,6.1H503.4z"/>
			<polygon class="st16" points="390.8,431.4 390.8,412.9 431,412.9 431,417.2 394.6,416.8 394.6,431.4 			"/>
			<rect x="443.3" y="412.9" class="st17" width="40.3" height="18.5"/>
			<polygon class="st16" points="443.3,431.4 443.3,412.9 483.6,412.9 483.6,417.2 447.2,416.8 447.2,431.4 			"/>
			<polygon class="st16" points="495.8,431.4 495.8,412.9 536.1,412.9 536.1,417.2 499.7,416.8 499.7,431.4 			"/>
			<rect x="542.6" y="412.9" class="st17" width="40.3" height="18.5"/>
			<polygon class="st16" points="542.6,431.4 542.6,412.9 582.9,412.9 582.9,417.2 546.5,416.8 546.5,431.4 			"/>
		</g>
		<g>
			<rect x="174.9" y="416.4" class="st15" width="149" height="164.3"/>
			<g>
				<g>
					<rect x="241" y="483.6" class="st12" width="48.5" height="60.5"/>
					<rect x="241" y="483.6" class="st16" width="6.3" height="60.8"/>
					<rect x="266" y="501.8" class="st6" width="4.4" height="9.8"/>
					<g>
						<g>
							<path class="st15" d="M241,502.2c16.2,0,32.4,0,48.5,0c0.5,0,0.5-0.8,0-0.8c-16.2,0-32.4,0-48.5,0
								C240.5,501.4,240.5,502.2,241,502.2L241,502.2z"/>
						</g>
					</g>
					<g>
						<g>
							<path class="st15" d="M241,523.5c16.3,0,32.5,0,48.8,0c0.5,0,0.5-0.8,0-0.8c-16.3,0-32.5,0-48.8,0
								C240.5,522.8,240.5,523.5,241,523.5L241,523.5z"/>
						</g>
					</g>
					<rect x="266" y="483.6" class="st6" width="4.4" height="9.8"/>
					<rect x="275.3" y="525.1" class="st6" width="9.8" height="4.3"/>
				</g>
				<g>
					<path class="st15" d="M207.3,552.9v15.8l7.2-7.7h103l6.3,6.4v-14.5H207.3z M232.6,558h-10.9v-1.8h10.9V558z M252.2,558h-10.9
						v-1.8h10.9V558z M271.7,558h-10.9v-1.8h10.9V558z M291.2,558h-10.9v-1.8h10.9V558z M310.3,558h-10.9v-1.8h10.9V558z"/>
					<path class="st18" d="M207.3,552.9v15.8l7.2-7.7h103l6.3,6.4v-14.5H207.3z M232.6,558h-10.9v-1.8h10.9V558z M252.2,558h-10.9
						v-1.8h10.9V558z M271.7,558h-10.9v-1.8h10.9V558z M291.2,558h-10.9v-1.8h10.9V558z M310.3,558h-10.9v-1.8h10.9V558z"/>
				</g>
				<g>
					<path class="st15" d="M207.3,457v15.8l7.2-7.7h103l6.3,6.4V457H207.3z M232.6,462.1h-10.9v-1.8h10.9V462.1z M252.2,462.1h-10.9
						v-1.8h10.9V462.1z M271.7,462.1h-10.9v-1.8h10.9V462.1z M291.2,462.1h-10.9v-1.8h10.9V462.1z M310.3,462.1h-10.9v-1.8h10.9
						V462.1z"/>
					<path class="st18" d="M207.3,457v15.8l7.2-7.7h103l6.3,6.4V457H207.3z M232.6,462.1h-10.9v-1.8h10.9V462.1z M252.2,462.1h-10.9
						v-1.8h10.9V462.1z M271.7,462.1h-10.9v-1.8h10.9V462.1z M291.2,462.1h-10.9v-1.8h10.9V462.1z M310.3,462.1h-10.9v-1.8h10.9
						V462.1z"/>
				</g>
				<g>
					<rect x="209.9" y="544.2" class="st19" width="6.8" height="8.5"/>
					<rect x="241" y="544.2" class="st19" width="6.8" height="8.5"/>
					<rect x="216.1" y="544.2" class="st19" width="26.4" height="3.9"/>
				</g>
				<g>
					<rect x="247.2" y="544.2" class="st19" width="6.8" height="8.5"/>
					<rect x="278.3" y="544.2" class="st19" width="6.8" height="8.5"/>
					<rect x="253.4" y="544.2" class="st19" width="26.4" height="3.9"/>
				</g>
				<g>
					<rect x="285.5" y="544.2" class="st19" width="6.8" height="8.5"/>
					<rect x="316.6" y="544.2" class="st19" width="6.8" height="8.5"/>
					<rect x="291.6" y="544.2" class="st19" width="26.4" height="3.9"/>
				</g>
				<rect x="210.3" y="514.7" class="st12" width="34.7" height="29.5"/>
				<rect x="210.3" y="514.7" class="st20" width="34.7" height="29.5"/>
				<g>
					<g>
						<path class="st15" d="M210.3,531c11.4,0,22.9,0,34.3,0c0.5,0,0.5-0.8,0-0.8c-11.4,0-22.9,0-34.3,0
							C209.9,530.3,209.9,531,210.3,531L210.3,531z"/>
					</g>
				</g>
				<rect x="236.6" y="516.7" class="st6" width="4.4" height="6.2"/>
				<rect x="219.6" y="532.4" class="st6" width="4.4" height="6.2"/>
				<g>
					<rect x="289.5" y="520.4" class="st12" width="32.8" height="24"/>
					<rect x="289.5" y="520.4" class="st16" width="6.5" height="24"/>
					<rect x="300.4" y="523.4" class="st6" width="6.3" height="8"/>
				</g>
				<g>
					<rect x="289.5" y="496.4" class="st12" width="32.8" height="24"/>
					<rect x="289.5" y="496.4" class="st20" width="32.8" height="24"/>
					<rect x="289.5" y="496.4" class="st16" width="6.5" height="24"/>
					<rect x="300.4" y="499.3" class="st6" width="6.3" height="8"/>
				</g>
				<g>
					<rect x="212.2" y="490.8" class="st12" width="32.8" height="24.1"/>
					<rect x="212.2" y="490.8" class="st16" width="6.5" height="24.1"/>
					<rect x="223" y="493.7" class="st6" width="6.3" height="8"/>
					<g>
						<g>
							<path class="st15" d="M210.5,515.2c11.5,0,23,0,34.4,0c0.5,0,0.5-0.8,0-0.8c-11.5,0-23,0-34.4,0
								C210,514.5,210,515.2,210.5,515.2L210.5,515.2z"/>
						</g>
					</g>
				</g>
				<g>
					<rect x="204.7" y="440.1" class="st15" width="5.2" height="140.4"/>
					<rect x="204.7" y="440.1" class="st18" width="5.2" height="140.4"/>
				</g>
				<g>
					<g>
						<path class="st15" d="M322,519.9c-10.5,0-21.1,0-31.6,0c-0.5,0-0.5,0.8,0,0.8c10.5,0,21.1,0,31.6,0
							C322.5,520.7,322.5,519.9,322,519.9L322,519.9z"/>
					</g>
				</g>
			</g>
			<rect x="174.9" y="416.4" class="st0" width="149" height="23.7"/>
			<rect x="174.9" y="416.4" class="st16" width="5.7" height="163.5"/>
			<g>
				<g>
					<path class="st15" d="M175.2,437.7c19.2,0,38.3,0,57.5,0s38.3,0,57.5,0c10.8,0,21.7,0,32.5,0c0.5,0,0.5-0.8,0-0.8
						c-19.2,0-38.3,0-57.5,0s-38.3,0-57.5,0c-10.8,0-21.7,0-32.5,0C174.7,436.9,174.7,437.7,175.2,437.7L175.2,437.7z"/>
				</g>
			</g>
			<g>
				<g>
					<path class="st15" d="M175.2,433.9c19.2,0,38.3,0,57.5,0s38.3,0,57.5,0c10.8,0,21.7,0,32.5,0c0.5,0,0.5-0.8,0-0.8
						c-19.2,0-38.3,0-57.5,0s-38.3,0-57.5,0c-10.8,0-21.7,0-32.5,0C174.7,433.1,174.7,433.9,175.2,433.9L175.2,433.9z"/>
				</g>
			</g>
			<g>
				<g>
					<path class="st15" d="M175.2,430.1c19.2,0,38.3,0,57.5,0s38.3,0,57.5,0c10.8,0,21.7,0,32.5,0c0.5,0,0.5-0.8,0-0.8
						c-19.2,0-38.3,0-57.5,0s-38.3,0-57.5,0c-10.8,0-21.7,0-32.5,0C174.7,429.4,174.7,430.1,175.2,430.1L175.2,430.1z"/>
				</g>
			</g>
			<g>
				<g>
					<path class="st15" d="M175.2,426.3c19.2,0,38.3,0,57.5,0s38.3,0,57.5,0c10.8,0,21.7,0,32.5,0c0.5,0,0.5-0.8,0-0.8
						c-19.2,0-38.3,0-57.5,0s-38.3,0-57.5,0c-10.8,0-21.7,0-32.5,0C174.7,425.6,174.7,426.3,175.2,426.3L175.2,426.3z"/>
				</g>
			</g>
			<g>
				<g>
					<path class="st15" d="M175.2,422.6c19.2,0,38.3,0,57.5,0s38.3,0,57.5,0c10.8,0,21.7,0,32.5,0c0.5,0,0.5-0.8,0-0.8
						c-19.2,0-38.3,0-57.5,0s-38.3,0-57.5,0c-10.8,0-21.7,0-32.5,0C174.7,421.8,174.7,422.6,175.2,422.6L175.2,422.6z"/>
				</g>
			</g>
			<g>
				<g>
					<path class="st15" d="M175.2,418.8c19.2,0,38.3,0,57.5,0s38.3,0,57.5,0c10.8,0,21.7,0,32.5,0c0.5,0,0.5-0.8,0-0.8
						c-19.2,0-38.3,0-57.5,0s-38.3,0-57.5,0c-10.8,0-21.7,0-32.5,0C174.7,418,174.7,418.8,175.2,418.8L175.2,418.8z"/>
				</g>
			</g>
		</g>
		<g>
			<g>
				<rect x="162.4" y="380.9" class="st17" width="37.9" height="17"/>
				<polygon class="st16" points="162.4,398 167,398 167,384.8 200.3,384.8 200.3,380.9 162.4,380.9 				"/>
			</g>
			<g>
				<rect x="207.7" y="380.9" class="st17" width="37.9" height="17"/>
				<polygon class="st16" points="207.7,398 212.3,398 212.3,384.8 245.6,384.8 245.6,380.9 207.7,380.9 				"/>
			</g>
			<g>
				<rect x="253.1" y="380.9" class="st17" width="37.9" height="17"/>
				<polygon class="st16" points="253.1,398 257.7,398 257.7,384.8 291,384.8 291,380.9 253.1,380.9 				"/>
			</g>
			<g>
				<rect x="298.4" y="380.9" class="st17" width="37.9" height="17"/>
				<polygon class="st16" points="298.4,398 303,398 303,384.8 336.3,384.8 336.3,380.9 298.4,380.9 				"/>
			</g>
		</g>
		<g>
			<rect x="144.7" y="505" class="st12" width="15" height="25.6"/>
			<path class="st15" d="M155.1,512.7c0,1.6-1.3,2.9-2.9,2.9c-1.6,0-2.9-1.3-2.9-2.9c0-1.6,1.3-2.9,2.9-2.9
				C153.8,509.9,155.1,511.1,155.1,512.7z"/>
			<path class="st6" d="M155.1,522.2c0,1.6-1.3,2.9-2.9,2.9c-1.6,0-2.9-1.3-2.9-2.9s1.3-2.9,2.9-2.9
				C153.8,519.4,155.1,520.6,155.1,522.2z"/>
		</g>
	</g>
</g>
<g id="Trucks">
	<g>
		<g>
			<polygon points="532.3,568.1 613,568.1 717.5,568.1 723.2,562.6 716.4,545.7 691.1,541.1 528.3,541.1 			"/>
			<path class="st9" d="M723,534.6l-11.9-6.1c-1-0.5-1.8-1.4-2.2-2.5l-17.7-46.6c-0.7-1.8-2.4-3-4.4-3l-172,0.8
				c-2.6,0-4.6,2.1-4.6,4.6v83.2c0,2.6,2.1,4.6,4.6,4.6h21.3c0-0.2,0-0.4,0-0.6c0-11,8.9-19.9,19.9-19.9c11,0,19.9,8.9,19.9,19.9
				c0,0.2,0,0.4,0,0.6h107.2c0,0,0,0,0,0c0.5-10.5,9.2-18.9,19.9-18.9c8.3,0,15.5,5.1,18.4,12.4c2.3-0.3,4.1-2.2,4.1-4.6v-19.8
				C725.5,537,724.6,535.4,723,534.6z"/>
			<path class="st11" d="M723,534.6l-11.9-6.1c-1-0.5-1.8-1.4-2.2-2.5l-17.7-46.6c-0.7-1.8-2.4-3-4.4-3l-172,0.8
				c-2.6,0-4.6,2.1-4.6,4.6v83.2c0,2.6,2.1,4.6,4.6,4.6h21.3c0-0.2,0-0.4,0-0.6c0-11,8.9-19.9,19.9-19.9c11,0,19.9,8.9,19.9,19.9
				c0,0.2,0,0.4,0,0.6h107.2c0,0,0,0,0,0c0.5-10.5,9.2-18.9,19.9-18.9c8.3,0,15.5,5.1,18.4,12.4c2.3-0.3,4.1-2.2,4.1-4.6v-19.8
				C725.5,537,724.6,535.4,723,534.6z"/>
			<path class="st21" d="M686.3,497.4v25.4c0,1.2,1,2.1,2.2,2.1h17.7L695.6,496h-7.8C687,496,686.3,496.6,686.3,497.4z"/>
			<g>
				<ellipse class="st21" cx="556" cy="568.9" rx="17.8" ry="17.8"/>
				<path class="st17" d="M563.7,576.6c-4.3,4.3-11.2,4.3-15.5,0c-4.3-4.3-4.3-11.2,0-15.4c4.3-4.3,11.2-4.3,15.5,0
					C568,565.4,568,572.4,563.7,576.6z"/>
				<g class="st16">
					<path class="st6" d="M556.9,560v5.6c0,0.5-0.4,0.9-0.9,0.9h0c-0.5,0-0.9-0.4-0.9-0.9V560c0-0.5,0.4-0.9,0.9-0.9h0
						C556.5,559.1,556.9,559.5,556.9,560z"/>
				</g>
				<g class="st16">
					<path class="st6" d="M556.9,572.2v5.6c0,0.5-0.4,0.9-0.9,0.9h0c-0.5,0-0.9-0.4-0.9-0.9v-5.6c0-0.5,0.4-0.9,0.9-0.9h0
						C556.5,571.4,556.9,571.8,556.9,572.2z"/>
				</g>
				<g class="st16">
					<path class="st6" d="M559.3,568c-0.4,0.2-0.9,0.1-1.2-0.3l0,0c0,0,0,0,0,0c-0.2-0.4-0.1-0.9,0.3-1.2l4.9-2.8c0,0,0,0,0,0
						c0.4-0.2,1-0.1,1.2,0.3l0,0c0,0,0,0,0,0c0.2,0.4,0.1,0.9-0.3,1.2L559.3,568C559.3,568,559.3,568,559.3,568z"/>
				</g>
				<g class="st16">
					<path class="st6" d="M547.5,573.8L547.5,573.8C547.5,573.8,547.5,573.8,547.5,573.8c-0.2-0.4-0.1-1,0.3-1.2l4.8-2.8
						c0.4-0.2,1-0.1,1.2,0.3l0,0c0.2,0.4,0.1,1-0.3,1.2l-4.8,2.8C548.2,574.3,547.7,574.2,547.5,573.8z"/>
				</g>
				<g class="st16">
					<path class="st6" d="M564.5,573.8c-0.2,0.4-0.8,0.6-1.2,0.3l-4.9-2.8c-0.4-0.2-0.6-0.8-0.3-1.2l0,0c0,0,0,0,0,0
						c0.2-0.4,0.8-0.6,1.2-0.3l4.8,2.8c0,0,0,0,0,0C564.6,572.9,564.7,573.4,564.5,573.8L564.5,573.8
						C564.5,573.8,564.5,573.8,564.5,573.8z"/>
				</g>
				<g class="st16">
					<path class="st6" d="M553.8,567.7c-0.2,0.4-0.8,0.6-1.2,0.3l-4.8-2.8c0,0,0,0,0,0c-0.4-0.2-0.6-0.8-0.3-1.2l0,0
						c0.2-0.4,0.8-0.6,1.2-0.3l4.8,2.8c0,0,0,0,0,0C553.9,566.7,554.1,567.2,553.8,567.7L553.8,567.7
						C553.8,567.7,553.8,567.7,553.8,567.7z"/>
				</g>
				<path class="st21" d="M556,567.4L556,567.4c0.8,0,1.5,0.7,1.5,1.5c0,0.8-0.7,1.5-1.5,1.5c-0.8,0-1.5-0.7-1.5-1.5
					C554.5,568.1,555.2,567.4,556,567.4z"/>
			</g>
			<g>
				<ellipse class="st21" cx="703.4" cy="570.6" rx="17.8" ry="17.8"/>
				<path class="st17" d="M711.1,578.3c-4.3,4.3-11.2,4.3-15.5,0c-4.3-4.3-4.3-11.2,0-15.4c4.3-4.3,11.2-4.3,15.5,0
					C715.4,567.1,715.4,574,711.1,578.3z"/>
				<g class="st16">
					<path class="st6" d="M704.2,561.6v5.6c0,0.5-0.4,0.9-0.9,0.9h0c-0.5,0-0.9-0.4-0.9-0.9v-5.6c0-0.5,0.4-0.9,0.9-0.9h0
						C703.8,560.7,704.2,561.1,704.2,561.6z"/>
				</g>
				<g class="st16">
					<path class="st6" d="M704.2,573.9v5.6c0,0.5-0.4,0.9-0.9,0.9h0c-0.5,0-0.9-0.4-0.9-0.9v-5.6c0-0.5,0.4-0.9,0.9-0.9h0
						C703.8,573,704.2,573.4,704.2,573.9z"/>
				</g>
				<g class="st16">
					<path class="st6" d="M706.7,569.6c-0.4,0.2-0.9,0.1-1.2-0.3l0,0c0,0,0,0,0,0c-0.2-0.4-0.1-0.9,0.3-1.2l4.9-2.8c0,0,0,0,0,0
						c0.4-0.2,1-0.1,1.2,0.3l0,0c0,0,0,0,0,0c0.2,0.4,0.1,0.9-0.3,1.2L706.7,569.6C706.7,569.6,706.7,569.6,706.7,569.6z"/>
				</g>
				<g class="st16">
					<path class="st6" d="M694.8,575.4L694.8,575.4C694.8,575.4,694.8,575.4,694.8,575.4c-0.2-0.4-0.1-1,0.3-1.2l4.8-2.8
						c0.4-0.2,1-0.1,1.2,0.3l0,0c0.2,0.4,0.1,1-0.3,1.2l-4.8,2.8C695.6,576,695.1,575.9,694.8,575.4z"/>
				</g>
				<g class="st16">
					<path class="st6" d="M711.9,575.5c-0.2,0.4-0.8,0.6-1.2,0.3l-4.9-2.8c-0.4-0.2-0.6-0.8-0.3-1.2l0,0c0,0,0,0,0,0
						c0.2-0.4,0.8-0.6,1.2-0.3l4.8,2.8c0,0,0,0,0,0C712,574.5,712.1,575,711.9,575.5L711.9,575.5
						C711.9,575.5,711.9,575.5,711.9,575.5z"/>
				</g>
				<g class="st16">
					<path class="st6" d="M701.2,569.3c-0.2,0.4-0.8,0.6-1.2,0.3l-4.8-2.8c0,0,0,0,0,0c-0.4-0.2-0.6-0.8-0.3-1.2l0,0
						c0.2-0.4,0.8-0.6,1.2-0.3l4.8,2.8c0,0,0,0,0,0C701.3,568.4,701.5,568.9,701.2,569.3L701.2,569.3
						C701.2,569.3,701.2,569.3,701.2,569.3z"/>
				</g>
				<path class="st21" d="M703.4,569.1L703.4,569.1c0.8,0,1.5,0.7,1.5,1.5c0,0.8-0.7,1.5-1.5,1.5c-0.8,0-1.5-0.7-1.5-1.5
					C701.9,569.7,702.6,569.1,703.4,569.1z"/>
			</g>
			<path class="st21" d="M673.5,524.9h-17.8c-2.3,0-4.1-1.8-4.1-4.1v-19.5c0-2.3,1.8-4.1,4.1-4.1h17.8c2.3,0,4.1,1.8,4.1,4.1v19.5
				C677.6,523.1,675.8,524.9,673.5,524.9z"/>
			<path class="st21" d="M675.2,536.2L675.2,536.2c-0.9,0-1.7-0.8-1.7-1.7v-4.9c0-0.9,0.8-1.7,1.7-1.7l0,0c0.9,0,1.7,0.8,1.7,1.7
				v4.9C676.9,535.5,676.2,536.2,675.2,536.2z"/>
			<path class="st21" d="M721.2,564.4L721.2,564.4l-5.3-8.9l11-0.6c0,0,0.9,6.7-0.6,7.7C725,563.6,721.2,564.4,721.2,564.4z"/>
			<path class="st13" d="M721.2,564.4L721.2,564.4l-5.3-8.9l11-0.6c0,0,0.9,6.7-0.6,7.7C725,563.6,721.2,564.4,721.2,564.4z"/>
			<path class="st9" d="M723,534.6c0,0-1.6,1.3-1.4,3.8l3.9,0.3C725.5,538.7,725.7,536,723,534.6z"/>
			<path class="st22" d="M653.4,514.5c0-4,0-10.5,0-13.8c0-1.1,0.9-2,2-2h18.8c1.1,0,2,0.9,2,2v4.3c0,0.8-0.4,1.5-1.1,1.8l-18.8,9.5
				C655,517,653.4,516,653.4,514.5z"/>
		</g>
		<rect x="510.1" y="560.7" width="28" height="9"/>
		<rect x="574.8" y="560.7" width="73.6" height="9"/>
		<rect x="510.1" y="538.7" class="st9" width="138.2" height="7.4"/>
		<path class="st23" d="M680.9,569.8h-32.5v-70.5c0-3,2.5-5.5,5.5-5.5h21.5c3,0,5.5,2.5,5.5,5.5V569.8z"/>
		<rect x="520.6" y="518.4" class="st9" width="13.7" height="13.7"/>
		<rect x="538.2" y="527.6" class="st9" width="14.8" height="3.4"/>
	</g>
	<g>
		<g>
			<polygon points="484.6,568.1 565.4,568.1 669.8,568.1 675.5,562.6 668.7,545.7 643.5,541.1 480.7,541.1 			"/>
			<path class="st9" d="M675.3,534.6l-11.9-6.1c-1-0.5-1.8-1.4-2.2-2.5l-17.7-46.6c-0.7-1.8-2.4-3-4.4-3l-172,0.8
				c-2.6,0-4.6,2.1-4.6,4.6v83.2c0,2.6,2.1,4.6,4.6,4.6h21.3c0-0.2,0-0.4,0-0.6c0-11,8.9-19.9,19.9-19.9s19.9,8.9,19.9,19.9
				c0,0.2,0,0.4,0,0.6h107.2c0,0,0,0,0,0c0.5-10.5,9.2-18.9,19.9-18.9c8.3,0,15.5,5.1,18.4,12.4c2.3-0.3,4.1-2.2,4.1-4.6v-19.8
				C677.9,537,676.9,535.4,675.3,534.6z"/>
			<path class="st24" d="M675.3,534.6l-11.9-6.1c-1-0.5-1.8-1.4-2.2-2.5l-17.7-46.6c-0.7-1.8-2.4-3-4.4-3l-172,0.8
				c-2.6,0-4.6,2.1-4.6,4.6v83.2c0,2.6,2.1,4.6,4.6,4.6h21.3c0-0.2,0-0.4,0-0.6c0-11,8.9-19.9,19.9-19.9s19.9,8.9,19.9,19.9
				c0,0.2,0,0.4,0,0.6h107.2c0,0,0,0,0,0c0.5-10.5,9.2-18.9,19.9-18.9c8.3,0,15.5,5.1,18.4,12.4c2.3-0.3,4.1-2.2,4.1-4.6v-19.8
				C677.9,537,676.9,535.4,675.3,534.6z"/>
			<path class="st21" d="M638.6,497.4v25.4c0,1.2,1,2.1,2.2,2.1h17.7L647.9,496h-7.8C639.3,496,638.6,496.6,638.6,497.4z"/>
			<g>
				<ellipse class="st21" cx="508.3" cy="568.9" rx="17.8" ry="17.8"/>
				<path class="st17" d="M516,576.6c-4.3,4.3-11.2,4.3-15.5,0c-4.3-4.3-4.3-11.2,0-15.4c4.3-4.3,11.2-4.3,15.5,0
					C520.3,565.4,520.3,572.4,516,576.6z"/>
				<g class="st16">
					<path class="st6" d="M509.2,560v5.6c0,0.5-0.4,0.9-0.9,0.9h0c-0.5,0-0.9-0.4-0.9-0.9V560c0-0.5,0.4-0.9,0.9-0.9h0
						C508.8,559.1,509.2,559.5,509.2,560z"/>
				</g>
				<g class="st16">
					<path class="st6" d="M509.2,572.2v5.6c0,0.5-0.4,0.9-0.9,0.9h0c-0.5,0-0.9-0.4-0.9-0.9v-5.6c0-0.5,0.4-0.9,0.9-0.9h0
						C508.8,571.4,509.2,571.8,509.2,572.2z"/>
				</g>
				<g class="st16">
					<path class="st6" d="M511.6,568c-0.4,0.2-0.9,0.1-1.2-0.3l0,0c0,0,0,0,0,0c-0.2-0.4-0.1-0.9,0.3-1.2l4.9-2.8c0,0,0,0,0,0
						c0.4-0.2,1-0.1,1.2,0.3l0,0c0,0,0,0,0,0c0.2,0.4,0.1,0.9-0.3,1.2L511.6,568C511.7,568,511.6,568,511.6,568z"/>
				</g>
				<g class="st16">
					<path class="st6" d="M499.8,573.8L499.8,573.8C499.8,573.8,499.8,573.8,499.8,573.8c-0.2-0.4-0.1-1,0.3-1.2l4.8-2.8
						c0.4-0.2,1-0.1,1.2,0.3l0,0c0.2,0.4,0.1,1-0.3,1.2l-4.8,2.8C500.6,574.3,500,574.2,499.8,573.8z"/>
				</g>
				<g class="st16">
					<path class="st6" d="M516.8,573.8c-0.2,0.4-0.8,0.6-1.2,0.3l-4.9-2.8c-0.4-0.2-0.6-0.8-0.3-1.2l0,0c0,0,0,0,0,0
						c0.2-0.4,0.8-0.6,1.2-0.3l4.8,2.8c0,0,0,0,0,0C516.9,572.9,517.1,573.4,516.8,573.8L516.8,573.8
						C516.8,573.8,516.8,573.8,516.8,573.8z"/>
				</g>
				<g class="st16">
					<path class="st6" d="M506.2,567.7c-0.2,0.4-0.8,0.6-1.2,0.3l-4.8-2.8c0,0,0,0,0,0c-0.4-0.2-0.6-0.8-0.3-1.2l0,0
						c0.2-0.4,0.8-0.6,1.2-0.3l4.8,2.8c0,0,0,0,0,0C506.3,566.7,506.4,567.2,506.2,567.7L506.2,567.7
						C506.2,567.7,506.2,567.7,506.2,567.7z"/>
				</g>
				<path class="st21" d="M508.3,567.4L508.3,567.4c0.8,0,1.5,0.7,1.5,1.5c0,0.8-0.7,1.5-1.5,1.5c-0.8,0-1.5-0.7-1.5-1.5
					C506.8,568.1,507.5,567.4,508.3,567.4z"/>
			</g>
			<g>
				<ellipse class="st21" cx="655.7" cy="570.6" rx="17.8" ry="17.8"/>
				<path class="st17" d="M663.4,578.3c-4.3,4.3-11.2,4.3-15.5,0c-4.3-4.3-4.3-11.2,0-15.4c4.3-4.3,11.2-4.3,15.5,0
					C667.7,567.1,667.7,574,663.4,578.3z"/>
				<g class="st16">
					<path class="st6" d="M656.6,561.6v5.6c0,0.5-0.4,0.9-0.9,0.9h0c-0.5,0-0.9-0.4-0.9-0.9v-5.6c0-0.5,0.4-0.9,0.9-0.9h0
						C656.2,560.7,656.6,561.1,656.6,561.6z"/>
				</g>
				<g class="st16">
					<path class="st6" d="M656.6,573.9v5.6c0,0.5-0.4,0.9-0.9,0.9h0c-0.5,0-0.9-0.4-0.9-0.9v-5.6c0-0.5,0.4-0.9,0.9-0.9h0
						C656.2,573,656.6,573.4,656.6,573.9z"/>
				</g>
				<g class="st16">
					<path class="st6" d="M659,569.6c-0.4,0.2-0.9,0.1-1.2-0.3l0,0c0,0,0,0,0,0c-0.2-0.4-0.1-0.9,0.3-1.2l4.9-2.8c0,0,0,0,0,0
						c0.4-0.2,1-0.1,1.2,0.3l0,0c0,0,0,0,0,0c0.2,0.4,0.1,0.9-0.3,1.2L659,569.6C659,569.6,659,569.6,659,569.6z"/>
				</g>
				<g class="st16">
					<path class="st6" d="M647.2,575.4L647.2,575.4C647.2,575.4,647.2,575.4,647.2,575.4c-0.2-0.4-0.1-1,0.3-1.2l4.8-2.8
						c0.4-0.2,1-0.1,1.2,0.3l0,0c0.2,0.4,0.1,1-0.3,1.2l-4.8,2.8C647.9,576,647.4,575.9,647.2,575.4z"/>
				</g>
				<g class="st16">
					<path class="st6" d="M664.2,575.5c-0.2,0.4-0.8,0.6-1.2,0.3l-4.9-2.8c-0.4-0.2-0.6-0.8-0.3-1.2l0,0c0,0,0,0,0,0
						c0.2-0.4,0.8-0.6,1.2-0.3l4.8,2.8c0,0,0,0,0,0C664.3,574.5,664.4,575,664.2,575.5L664.2,575.5
						C664.2,575.5,664.2,575.5,664.2,575.5z"/>
				</g>
				<g class="st16">
					<path class="st6" d="M653.5,569.3c-0.2,0.4-0.8,0.6-1.2,0.3l-4.8-2.8c0,0,0,0,0,0c-0.4-0.2-0.6-0.8-0.3-1.2l0,0
						c0.2-0.4,0.8-0.6,1.2-0.3l4.8,2.8c0,0,0,0,0,0C653.6,568.4,653.8,568.9,653.5,569.3L653.5,569.3
						C653.5,569.3,653.5,569.3,653.5,569.3z"/>
				</g>
				<path class="st21" d="M655.7,569.1L655.7,569.1c0.8,0,1.5,0.7,1.5,1.5c0,0.8-0.7,1.5-1.5,1.5c-0.8,0-1.5-0.7-1.5-1.5
					C654.2,569.7,654.9,569.1,655.7,569.1z"/>
			</g>
			<path class="st21" d="M625.8,524.9h-17.8c-2.3,0-4.1-1.8-4.1-4.1v-19.5c0-2.3,1.8-4.1,4.1-4.1h17.8c2.3,0,4.1,1.8,4.1,4.1v19.5
				C630,523.1,628.1,524.9,625.8,524.9z"/>
			<path class="st21" d="M627.6,536.2L627.6,536.2c-0.9,0-1.7-0.8-1.7-1.7v-4.9c0-0.9,0.8-1.7,1.7-1.7l0,0c0.9,0,1.7,0.8,1.7,1.7
				v4.9C629.3,535.5,628.5,536.2,627.6,536.2z"/>
			<path class="st21" d="M673.5,564.4L673.5,564.4l-5.3-8.9l11-0.6c0,0,0.9,6.7-0.6,7.7C677.3,563.6,673.5,564.4,673.5,564.4z"/>
			<path class="st13" d="M673.5,564.4L673.5,564.4l-5.3-8.9l11-0.6c0,0,0.9,6.7-0.6,7.7C677.3,563.6,673.5,564.4,673.5,564.4z"/>
			<path class="st9" d="M675.3,534.6c0,0-1.6,1.3-1.4,3.8l3.9,0.3C677.9,538.7,678.1,536,675.3,534.6z"/>
			<path class="st22" d="M605.8,514.5c0-4,0-10.5,0-13.8c0-1.1,0.9-2,2-2h18.8c1.1,0,2,0.9,2,2v4.3c0,0.8-0.4,1.5-1.1,1.8l-18.8,9.5
				C607.4,517,605.8,516,605.8,514.5z"/>
		</g>
		<rect x="462.5" y="560.7" width="28" height="9"/>
		<rect x="527.1" y="560.7" width="73.6" height="9"/>
		<rect x="462.5" y="538.7" class="st9" width="138.2" height="7.4"/>
		<path class="st23" d="M633.2,569.8h-32.5v-70.5c0-3,2.5-5.5,5.5-5.5h21.5c3,0,5.5,2.5,5.5,5.5V569.8z"/>
		<rect x="472.9" y="518.4" class="st9" width="13.7" height="13.7"/>
		<rect x="490.5" y="527.6" class="st9" width="14.8" height="3.4"/>
	</g>
	<g>
		<g>
			<polygon points="429.8,568.1 510.5,568.1 615,568.1 620.7,562.6 613.9,545.7 588.7,541.1 425.9,541.1 			"/>
			<path class="st9" d="M620.5,534.6l-11.9-6.1c-1-0.5-1.8-1.4-2.2-2.5l-17.7-46.6c-0.7-1.8-2.4-3-4.4-3l-172,0.8
				c-2.6,0-4.6,2.1-4.6,4.6v83.2c0,2.6,2.1,4.6,4.6,4.6h21.3c0-0.2,0-0.4,0-0.6c0-11,8.9-19.9,19.9-19.9c11,0,19.9,8.9,19.9,19.9
				c0,0.2,0,0.4,0,0.6h107.2c0,0,0,0,0,0c0.5-10.5,9.2-18.9,19.9-18.9c8.3,0,15.5,5.1,18.4,12.4c2.3-0.3,4.1-2.2,4.1-4.6v-19.8
				C623,537,622.1,535.4,620.5,534.6z"/>
			<path class="st11" d="M620.5,534.6l-11.9-6.1c-1-0.5-1.8-1.4-2.2-2.5l-17.7-46.6c-0.7-1.8-2.4-3-4.4-3l-172,0.8
				c-2.6,0-4.6,2.1-4.6,4.6v83.2c0,2.6,2.1,4.6,4.6,4.6h21.3c0-0.2,0-0.4,0-0.6c0-11,8.9-19.9,19.9-19.9c11,0,19.9,8.9,19.9,19.9
				c0,0.2,0,0.4,0,0.6h107.2c0,0,0,0,0,0c0.5-10.5,9.2-18.9,19.9-18.9c8.3,0,15.5,5.1,18.4,12.4c2.3-0.3,4.1-2.2,4.1-4.6v-19.8
				C623,537,622.1,535.4,620.5,534.6z"/>
			<path class="st21" d="M583.8,497.4v25.4c0,1.2,1,2.1,2.2,2.1h17.7L593.1,496h-7.8C584.5,496,583.8,496.6,583.8,497.4z"/>
			<g>
				<ellipse class="st21" cx="453.5" cy="568.9" rx="17.8" ry="17.8"/>
				<ellipse class="st17" cx="453.5" cy="568.9" rx="10.9" ry="10.9"/>
				<g class="st16">
					<path class="st6" d="M454.4,560v5.6c0,0.5-0.4,0.9-0.9,0.9h0c-0.5,0-0.9-0.4-0.9-0.9V560c0-0.5,0.4-0.9,0.9-0.9h0
						C454,559.1,454.4,559.5,454.4,560z"/>
				</g>
				<g class="st16">
					<path class="st6" d="M454.4,572.2v5.6c0,0.5-0.4,0.9-0.9,0.9h0c-0.5,0-0.9-0.4-0.9-0.9v-5.6c0-0.5,0.4-0.9,0.9-0.9h0
						C454,571.4,454.4,571.8,454.4,572.2z"/>
				</g>
				<g class="st16">
					<path class="st6" d="M456.8,568c-0.4,0.2-0.9,0.1-1.2-0.3l0,0c0,0,0,0,0,0c-0.2-0.4-0.1-0.9,0.3-1.2l4.9-2.8c0,0,0,0,0,0
						c0.4-0.2,1-0.1,1.2,0.3l0,0c0,0,0,0,0,0c0.2,0.4,0.1,0.9-0.3,1.2L456.8,568C456.8,568,456.8,568,456.8,568z"/>
				</g>
				<g class="st16">
					<path class="st6" d="M445,573.8L445,573.8C445,573.8,445,573.8,445,573.8c-0.2-0.4-0.1-1,0.3-1.2l4.8-2.8
						c0.4-0.2,1-0.1,1.2,0.3l0,0c0.2,0.4,0.1,1-0.3,1.2l-4.8,2.8C445.8,574.3,445.2,574.2,445,573.8z"/>
				</g>
				<g class="st16">
					<path class="st6" d="M462,573.8c-0.2,0.4-0.8,0.6-1.2,0.3l-4.9-2.8c-0.4-0.2-0.6-0.8-0.3-1.2l0,0c0,0,0,0,0,0
						c0.2-0.4,0.8-0.6,1.2-0.3l4.8,2.8c0,0,0,0,0,0C462.1,572.9,462.3,573.4,462,573.8L462,573.8C462,573.8,462,573.8,462,573.8z"/>
				</g>
				<g class="st16">
					<path class="st6" d="M451.3,567.7c-0.2,0.4-0.8,0.6-1.2,0.3l-4.8-2.8c0,0,0,0,0,0c-0.4-0.2-0.6-0.8-0.3-1.2l0,0
						c0.2-0.4,0.8-0.6,1.2-0.3l4.8,2.8c0,0,0,0,0,0C451.4,566.7,451.6,567.2,451.3,567.7L451.3,567.7
						C451.3,567.7,451.3,567.7,451.3,567.7z"/>
				</g>
				<path class="st21" d="M453.5,567.4L453.5,567.4c0.8,0,1.5,0.7,1.5,1.5c0,0.8-0.7,1.5-1.5,1.5c-0.8,0-1.5-0.7-1.5-1.5
					C452,568.1,452.7,567.4,453.5,567.4z"/>
			</g>
			<g>
				<ellipse class="st21" cx="600.9" cy="570.6" rx="17.8" ry="17.8"/>
				<path class="st17" d="M608.6,578.3c-4.3,4.3-11.2,4.3-15.5,0c-4.3-4.3-4.3-11.2,0-15.4c4.3-4.3,11.2-4.3,15.5,0
					C612.9,567.1,612.9,574,608.6,578.3z"/>
				<g class="st16">
					<path class="st6" d="M601.7,561.6v5.6c0,0.5-0.4,0.9-0.9,0.9h0c-0.5,0-0.9-0.4-0.9-0.9v-5.6c0-0.5,0.4-0.9,0.9-0.9h0
						C601.4,560.7,601.7,561.1,601.7,561.6z"/>
				</g>
				<g class="st16">
					<path class="st6" d="M601.7,573.9v5.6c0,0.5-0.4,0.9-0.9,0.9h0c-0.5,0-0.9-0.4-0.9-0.9v-5.6c0-0.5,0.4-0.9,0.9-0.9h0
						C601.4,573,601.7,573.4,601.7,573.9z"/>
				</g>
				<g class="st16">
					<path class="st6" d="M604.2,569.6c-0.4,0.2-0.9,0.1-1.2-0.3l0,0c0,0,0,0,0,0c-0.2-0.4-0.1-0.9,0.3-1.2l4.9-2.8c0,0,0,0,0,0
						c0.4-0.2,1-0.1,1.2,0.3l0,0c0,0,0,0,0,0c0.2,0.4,0.1,0.9-0.3,1.2L604.2,569.6C604.2,569.6,604.2,569.6,604.2,569.6z"/>
				</g>
				<g class="st16">
					<path class="st6" d="M592.4,575.4L592.4,575.4C592.4,575.4,592.4,575.4,592.4,575.4c-0.2-0.4-0.1-1,0.3-1.2l4.8-2.8
						c0.4-0.2,1-0.1,1.2,0.3l0,0c0.2,0.4,0.1,1-0.3,1.2l-4.8,2.8C593.1,576,592.6,575.9,592.4,575.4z"/>
				</g>
				<g class="st16">
					<path class="st6" d="M609.4,575.5c-0.2,0.4-0.8,0.6-1.2,0.3l-4.9-2.8c-0.4-0.2-0.6-0.8-0.3-1.2l0,0c0,0,0,0,0,0
						c0.2-0.4,0.8-0.6,1.2-0.3l4.8,2.8c0,0,0,0,0,0C609.5,574.5,609.6,575,609.4,575.5L609.4,575.5
						C609.4,575.5,609.4,575.5,609.4,575.5z"/>
				</g>
				<g class="st16">
					<path class="st6" d="M598.7,569.3c-0.2,0.4-0.8,0.6-1.2,0.3l-4.8-2.8c0,0,0,0,0,0c-0.4-0.2-0.6-0.8-0.3-1.2l0,0
						c0.2-0.4,0.8-0.6,1.2-0.3l4.8,2.8c0,0,0,0,0,0C598.8,568.4,599,568.9,598.7,569.3L598.7,569.3
						C598.7,569.3,598.7,569.3,598.7,569.3z"/>
				</g>
				<path class="st21" d="M600.9,569.1L600.9,569.1c0.8,0,1.5,0.7,1.5,1.5c0,0.8-0.7,1.5-1.5,1.5c-0.8,0-1.5-0.7-1.5-1.5
					C599.4,569.7,600.1,569.1,600.9,569.1z"/>
			</g>
			<path class="st21" d="M571,524.9h-17.8c-2.3,0-4.1-1.8-4.1-4.1v-19.5c0-2.3,1.8-4.1,4.1-4.1H571c2.3,0,4.1,1.8,4.1,4.1v19.5
				C575.1,523.1,573.3,524.9,571,524.9z"/>
			<path class="st21" d="M572.7,536.2L572.7,536.2c-0.9,0-1.7-0.8-1.7-1.7v-4.9c0-0.9,0.8-1.7,1.7-1.7l0,0c0.9,0,1.7,0.8,1.7,1.7
				v4.9C574.5,535.5,573.7,536.2,572.7,536.2z"/>
			<path class="st21" d="M618.7,564.4L618.7,564.4l-5.3-8.9l11-0.6c0,0,0.9,6.7-0.6,7.7C622.5,563.6,618.7,564.4,618.7,564.4z"/>
			<path class="st13" d="M618.7,564.4L618.7,564.4l-5.3-8.9l11-0.6c0,0,0.9,6.7-0.6,7.7C622.5,563.6,618.7,564.4,618.7,564.4z"/>
			<path class="st9" d="M620.5,534.6c0,0-1.6,1.3-1.4,3.8l3.9,0.3C623,538.7,623.3,536,620.5,534.6z"/>
			<path class="st22" d="M551,514.5c0-4,0-10.5,0-13.8c0-1.1,0.9-2,2-2h18.8c1.1,0,2,0.9,2,2v4.3c0,0.8-0.4,1.5-1.1,1.8l-18.8,9.5
				C552.6,517,551,516,551,514.5z"/>
		</g>
		<rect x="407.7" y="560.7" width="28" height="9"/>
		<rect x="472.3" y="560.7" width="73.6" height="9"/>
		<rect x="407.7" y="538.7" class="st9" width="138.2" height="7.4"/>
		<path class="st23" d="M578.4,569.8h-32.5v-70.5c0-3,2.5-5.5,5.5-5.5h21.5c3,0,5.5,2.5,5.5,5.5V569.8z"/>
		<rect x="418.1" y="518.4" class="st9" width="13.7" height="13.7"/>
		<rect x="435.7" y="527.6" class="st9" width="14.8" height="3.4"/>
	</g>
</g>
<g id="Boxes">
	<g>
		<g>
			
				<rect x="117.7" y="522.7" transform="matrix(-1 -1.224647e-16 1.224647e-16 -1 241.6046 1053.1533)" class="st25" width="6.1" height="7.7"/>
			
				<rect x="75.2" y="523" transform="matrix(-1 -1.224647e-16 1.224647e-16 -1 156.5033 1053.6162)" class="st25" width="6.1" height="7.7"/>
			
				<rect x="76" y="522.7" transform="matrix(-1 -1.224647e-16 1.224647e-16 -1 194.2738 1048.954)" class="st25" width="42.4" height="3.5"/>
		</g>
		<g>
			
				<rect x="35.9" y="522.7" transform="matrix(-1 -1.224647e-16 1.224647e-16 -1 77.9121 1053.1533)" class="st25" width="6.1" height="7.7"/>
			
				<rect x="40.7" y="522.7" transform="matrix(-1 -1.224647e-16 1.224647e-16 -1 120.3767 1048.954)" class="st25" width="38.9" height="3.5"/>
		</g>
		<g>
			
				<rect x="36.8" y="501.2" transform="matrix(-1 -1.224647e-16 1.224647e-16 -1 103.2249 1024.0946)" class="st9" width="29.6" height="21.6"/>
			
				<rect x="60.5" y="501.2" transform="matrix(-1 -1.224647e-16 1.224647e-16 -1 126.9127 1024.0946)" class="st16" width="5.9" height="21.6"/>
			
				<rect x="50.9" y="503.9" transform="matrix(-1 -1.224647e-16 1.224647e-16 -1 107.5109 1015.0375)" class="st6" width="5.7" height="7.2"/>
		</g>
		<g>
			
				<rect x="36.8" y="479.5" transform="matrix(-1 -1.224647e-16 1.224647e-16 -1 103.2249 980.6913)" class="st9" width="29.6" height="21.6"/>
			
				<rect x="36.8" y="479.5" transform="matrix(-1 -1.224647e-16 1.224647e-16 -1 103.2249 980.6913)" class="st20" width="29.6" height="21.6"/>
			
				<rect x="60.5" y="479.5" transform="matrix(-1 -1.224647e-16 1.224647e-16 -1 126.9127 980.6913)" class="st16" width="5.9" height="21.6"/>
			
				<rect x="50.9" y="482.2" transform="matrix(-1 -1.224647e-16 1.224647e-16 -1 107.5109 971.6342)" class="st6" width="5.7" height="7.2"/>
		</g>
		<g>
			<g>
				<path class="st21" d="M37.1,501.5c9.5,0,19,0,28.5,0c0.5,0,0.5-0.8,0-0.8c-9.5,0-19,0-28.5,0C36.6,500.8,36.6,501.5,37.1,501.5
					L37.1,501.5z"/>
			</g>
		</g>
		<g>
			
				<rect x="65.6" y="501.2" transform="matrix(-1 -1.224647e-16 1.224647e-16 -1 160.6937 1024.0946)" class="st9" width="29.6" height="21.6"/>
			
				<rect x="89.3" y="501.2" transform="matrix(-1 -1.224647e-16 1.224647e-16 -1 184.3814 1024.0946)" class="st16" width="5.9" height="21.6"/>
			
				<rect x="79.6" y="503.9" transform="matrix(-1 -1.224647e-16 1.224647e-16 -1 164.9797 1015.0375)" class="st6" width="5.7" height="7.2"/>
		</g>
		<g>
			
				<rect x="65.6" y="479.5" transform="matrix(-1 -1.224647e-16 1.224647e-16 -1 160.6937 980.6913)" class="st9" width="29.6" height="21.6"/>
			
				<rect x="89.3" y="479.5" transform="matrix(-1 -1.224647e-16 1.224647e-16 -1 184.3814 980.6913)" class="st16" width="5.9" height="21.6"/>
			
				<rect x="79.6" y="482.2" transform="matrix(-1 -1.224647e-16 1.224647e-16 -1 164.9797 971.6342)" class="st6" width="5.7" height="7.2"/>
		</g>
		<g>
			<g>
				<path class="st21" d="M65.8,501.5c9.5,0,19,0,28.5,0c0.5,0,0.5-0.8,0-0.8c-9.5,0-19,0-28.5,0C65.4,500.8,65.3,501.5,65.8,501.5
					L65.8,501.5z"/>
			</g>
		</g>
		<g>
			
				<rect x="94.3" y="501.2" transform="matrix(-1 -1.224647e-16 1.224647e-16 -1 218.1623 1024.0946)" class="st9" width="29.6" height="21.6"/>
			
				<rect x="118" y="501.2" transform="matrix(-1 -1.224647e-16 1.224647e-16 -1 241.8501 1024.0946)" class="st16" width="5.9" height="21.6"/>
			
				<rect x="108.4" y="503.9" transform="matrix(-1 -1.224647e-16 1.224647e-16 -1 222.4483 1015.0375)" class="st6" width="5.7" height="7.2"/>
		</g>
		<g>
			
				<rect x="94.3" y="479.5" transform="matrix(-1 -1.224647e-16 1.224647e-16 -1 218.1623 980.6913)" class="st9" width="29.6" height="21.6"/>
			
				<rect x="94.3" y="479.5" transform="matrix(-1 -1.224647e-16 1.224647e-16 -1 218.1623 980.6913)" class="st20" width="29.6" height="21.6"/>
			
				<rect x="118" y="479.5" transform="matrix(-1 -1.224647e-16 1.224647e-16 -1 241.8501 980.6913)" class="st16" width="5.9" height="21.6"/>
			
				<rect x="108.4" y="482.2" transform="matrix(-1 -1.224647e-16 1.224647e-16 -1 222.4483 971.6342)" class="st6" width="5.7" height="7.2"/>
		</g>
		<g>
			<g>
				<path class="st21" d="M94.6,501.5c9.5,0,19,0,28.5,0c0.5,0,0.5-0.8,0-0.8c-9.5,0-19,0-28.5,0C94.1,500.8,94.1,501.5,94.6,501.5
					L94.6,501.5z"/>
			</g>
		</g>
		<g>
			
				<rect x="117.7" y="572.7" transform="matrix(-1 -1.224647e-16 1.224647e-16 -1 241.6046 1153.0155)" class="st25" width="6.1" height="7.7"/>
			
				<rect x="75.2" y="572.9" transform="matrix(-1 -1.224647e-16 1.224647e-16 -1 156.5033 1153.4783)" class="st25" width="6.1" height="7.7"/>
			
				<rect x="76" y="572.7" transform="matrix(-1 -1.224647e-16 1.224647e-16 -1 194.2738 1148.816)" class="st25" width="42.4" height="3.5"/>
		</g>
		<g>
			
				<rect x="35.9" y="572.7" transform="matrix(-1 -1.224647e-16 1.224647e-16 -1 77.9121 1153.0155)" class="st25" width="6.1" height="7.7"/>
			
				<rect x="40.7" y="572.7" transform="matrix(-1 -1.224647e-16 1.224647e-16 -1 120.3767 1148.816)" class="st25" width="38.9" height="3.5"/>
		</g>
		<g>
			
				<rect x="36.8" y="551.2" transform="matrix(-1 -1.224647e-16 1.224647e-16 -1 103.2249 1123.9568)" class="st9" width="29.6" height="21.6"/>
			
				<rect x="60.5" y="551.2" transform="matrix(-1 -1.224647e-16 1.224647e-16 -1 126.9127 1123.9568)" class="st16" width="5.9" height="21.6"/>
			
				<rect x="50.9" y="553.8" transform="matrix(-1 -1.224647e-16 1.224647e-16 -1 107.5109 1114.8995)" class="st6" width="5.7" height="7.2"/>
		</g>
		<g>
			
				<rect x="36.8" y="529.5" transform="matrix(-1 -1.224647e-16 1.224647e-16 -1 103.2249 1080.5533)" class="st9" width="29.6" height="21.6"/>
			
				<rect x="60.5" y="529.5" transform="matrix(-1 -1.224647e-16 1.224647e-16 -1 126.9127 1080.5533)" class="st16" width="5.9" height="21.6"/>
			
				<rect x="50.9" y="532.1" transform="matrix(-1 -1.224647e-16 1.224647e-16 -1 107.5109 1071.4962)" class="st6" width="5.7" height="7.2"/>
		</g>
		<g>
			<g>
				<path class="st21" d="M37.1,551.4c9.5,0,19,0,28.5,0c0.5,0,0.5-0.8,0-0.8c-9.5,0-19,0-28.5,0C36.6,550.7,36.6,551.4,37.1,551.4
					L37.1,551.4z"/>
			</g>
		</g>
		<g>
			
				<rect x="65.6" y="551.2" transform="matrix(-1 -1.224647e-16 1.224647e-16 -1 160.6937 1123.9568)" class="st9" width="29.6" height="21.6"/>
			
				<rect x="89.3" y="551.2" transform="matrix(-1 -1.224647e-16 1.224647e-16 -1 184.3814 1123.9568)" class="st16" width="5.9" height="21.6"/>
			
				<rect x="79.6" y="553.8" transform="matrix(-1 -1.224647e-16 1.224647e-16 -1 164.9797 1114.8995)" class="st6" width="5.7" height="7.2"/>
		</g>
		<g>
			
				<rect x="65.6" y="529.5" transform="matrix(-1 -1.224647e-16 1.224647e-16 -1 160.6937 1080.5533)" class="st9" width="29.6" height="21.6"/>
			
				<rect x="65.6" y="529.5" transform="matrix(-1 -1.224647e-16 1.224647e-16 -1 160.6937 1080.5533)" class="st20" width="29.6" height="21.6"/>
			
				<rect x="89.3" y="529.5" transform="matrix(-1 -1.224647e-16 1.224647e-16 -1 184.3814 1080.5533)" class="st16" width="5.9" height="21.6"/>
			
				<rect x="79.6" y="532.1" transform="matrix(-1 -1.224647e-16 1.224647e-16 -1 164.9797 1071.4962)" class="st6" width="5.7" height="7.2"/>
		</g>
		<g>
			<g>
				<path class="st21" d="M65.8,551.4c9.5,0,19,0,28.5,0c0.5,0,0.5-0.8,0-0.8c-9.5,0-19,0-28.5,0C65.4,550.7,65.3,551.4,65.8,551.4
					L65.8,551.4z"/>
			</g>
		</g>
		<g>
			
				<rect x="94.3" y="551.2" transform="matrix(-1 -1.224647e-16 1.224647e-16 -1 218.1623 1123.9568)" class="st9" width="29.6" height="21.6"/>
			
				<rect x="118" y="551.2" transform="matrix(-1 -1.224647e-16 1.224647e-16 -1 241.8501 1123.9568)" class="st16" width="5.9" height="21.6"/>
			
				<rect x="108.4" y="553.8" transform="matrix(-1 -1.224647e-16 1.224647e-16 -1 222.4483 1114.8995)" class="st6" width="5.7" height="7.2"/>
		</g>
		<g>
			
				<rect x="94.3" y="529.5" transform="matrix(-1 -1.224647e-16 1.224647e-16 -1 218.1623 1080.5533)" class="st9" width="29.6" height="21.6"/>
			
				<rect x="118" y="529.5" transform="matrix(-1 -1.224647e-16 1.224647e-16 -1 241.8501 1080.5533)" class="st16" width="5.9" height="21.6"/>
			
				<rect x="108.4" y="532.1" transform="matrix(-1 -1.224647e-16 1.224647e-16 -1 222.4483 1071.4962)" class="st6" width="5.7" height="7.2"/>
		</g>
		<g>
			<g>
				<path class="st21" d="M94.6,551.4c9.5,0,19,0,28.5,0c0.5,0,0.5-0.8,0-0.8c-9.5,0-19,0-28.5,0C94.1,550.7,94.1,551.4,94.6,551.4
					L94.6,551.4z"/>
			</g>
		</g>
	</g>
</g>
</svg>
