<?xml version="1.0" encoding="utf-8"?>
<!-- Generator: Adobe Illustrator 27.0.0, SVG Export Plug-In . SVG Version: 6.00 Build 0)  -->
<svg version="1.1" id="Layer_1" xmlns="http://www.w3.org/2000/svg" xmlns:xlink="http://www.w3.org/1999/xlink" x="0px" y="0px"
	 viewBox="0 0 1561.4 512" style="enable-background:new 0 0 1561.4 512;" xml:space="preserve">
<style type="text/css">
	.st0{fill:#0396F7;}
	.st1{fill:#E1F5FC;}
</style>
<g>
	<path class="st0" d="M1142.6,369.9c-0.1,0.1-0.1,0.1-0.1,0.2c-0.1,0.2-0.2,0.3-0.3,0.5c0,0,0,0,0,0c-0.2,0-0.3,0.1-0.3,0.4
		c-0.1,0.1-0.2,0.2-0.1,0.3c-0.6,0.5-1,1.1-1.2,1.8c0,0,0,0,0,0c-0.5,0.2-0.7,0.6-0.7,1.1c0,0,0,0,0,0c-0.1,0.1-0.2,0.3-0.3,0.4
		c0,0,0,0,0,0c-0.3,0.1-0.4,0.4-0.4,0.7c0,0,0,0,0,0c-0.4,0.2-0.7,0.6-0.7,1.1c0,0,0,0,0,0c-0.2,0-0.3,0.2-0.3,0.4
		c-0.1,0-0.1,0.1-0.1,0.2c-0.4,0.3-0.7,0.7-0.7,1.2c0,0,0,0,0,0c-0.1,0.1-0.2,0.3-0.3,0.4c0,0,0,0,0,0c-0.7,0.7-1.2,1.5-1.6,2.5
		c0,0,0,0,0,0c-0.1,0.1-0.2,0.3-0.3,0.4c0,0,0,0,0,0c-0.2,0-0.3,0.2-0.3,0.4c-0.1,0-0.2,0.1-0.1,0.2c-0.4,0.3-0.7,0.7-0.7,1.2
		c0,0,0,0,0,0c-0.4,0.2-0.7,0.6-0.7,1.1c0,0,0,0,0,0c-0.1,0.1-0.2,0.3-0.3,0.4c-0.1,0-0.1,0.1-0.1,0.2c-0.1,0.2-0.2,0.3-0.3,0.5
		c0,0,0,0,0,0c-0.2,0-0.3,0.2-0.3,0.4c-0.1,0.1-0.1,0.2-0.1,0.3c-0.1,0.2-0.2,0.3-0.3,0.5c0,0,0,0,0,0c-0.2,0-0.3,0.1-0.3,0.3
		c-0.1,0.1-0.2,0.2-0.1,0.3c-0.6,0.5-1,1.1-1.2,1.8c0,0,0,0,0,0c-0.1,0.1-0.2,0.3-0.3,0.4c0,0,0,0,0,0c-0.1,0.1-0.2,0.2-0.3,0.4
		c-0.1,0.1-0.2,0.1-0.1,0.3c-0.4,0.3-0.7,0.7-0.7,1.2c0,0,0,0,0,0c-0.5,0.2-0.7,0.6-0.7,1.1c0,0,0,0,0,0c-0.6,0.5-1,1.1-1.2,1.8
		c0,0,0,0,0,0c-0.9,1-1.7,2.1-2.1,3.4c0,0,0,0,0,0c-0.7,0.6-1.4,1.3-1.2,2.1c0.2,0.6,1.3,0.4,2,0.5c6.6,1,13.2,1.9,19.8,2.9
		c21,3,41.9,6,62.9,8.9c17.7,2.5,35.4,5.1,53,7.6c1.3,0.2,1.6,0.7,1.5,1.9c-0.2,2.9-0.3,5.7-0.6,8.6c-0.1,1.2,0.5,1.4,1.5,1.2
		c0.8-0.1,2,0.6,2-1.1c0-1.7,0.5-3.4,1.3-4.9c2.7-5.1,8.7-7.9,14.8-6.8c5.7,1.1,10,5.6,10.5,11.4c0.1,1.6,1,1.3,1.9,1.4
		c1.2,0.1,1.5-0.4,1.5-1.5c-0.1-3.3,0.3-6.6-0.1-9.9c0,0,0.1-0.1,0.1-0.1c0.1-0.1,0.2-0.2,0.3-0.2c0,0,0,0,0,0c0.7,0,1.5,0,2.2-0.1
		c13.3-1.9,26.6-3.8,39.9-5.7c13.2-1.9,26.4-3.8,39.6-5.6c15.9-2.3,31.8-4.6,47.7-6.9c3.2-0.5,6.4-0.9,9.7-1.4
		c-0.9-1.6-1.6-3-2.7-4.1c0,0,0,0,0,0c-1-2.1-2.3-4-3.7-5.9c0,0,0,0,0,0c-0.3-0.9-0.7-1.6-1.4-2.2c0,0,0,0,0,0
		c-0.4-1.1-1-2.1-1.9-2.9c0,0,0,0,0,0c-1.5-2.8-3.2-5.5-5.2-8.1c0,0,0,0,0,0c-2.6-4.6-5.4-9-8.4-13.3c0,0,0,0,0,0
		c0-0.5-0.3-0.8-0.7-1.1c0,0,0,0,0,0c0-0.2-0.1-0.4-0.1-0.6l0,0c1.1,0.2,1.6,1.2,2.4,1.8c1.7,1.5,3,3.3,4.9,4.5c0,0,0,0,0,0
		c0.1,0.1,0.3,0.3,0.4,0.4c0,0,0,0,0,0c0.1,0.1,0.3,0.3,0.4,0.4c0,0,0,0,0,0c0.1,0.1,0.3,0.3,0.4,0.4c0,0,0,0,0,0
		c0.1,0.1,0.3,0.3,0.4,0.4c0,0,0,0,0,0c0.1,0.1,0.3,0.3,0.4,0.4c0,0,0,0,0,0c0.1,0.1,0.3,0.3,0.4,0.4c0.1,0.1,0.2,0.2,0.3,0.3
		c0.1,0.1,0.3,0.2,0.4,0.4c0,0,0,0,0,0c0.1,0.1,0.3,0.2,0.4,0.4c0,0,0,0,0,0c0.2,0.5,0.6,0.9,1.1,1.1c0,0,0,0,0,0
		c0.1,0.1,0.2,0.2,0.4,0.4c0,0,0,0,0,0c0.1,0.1,0.2,0.2,0.4,0.4c0,0,0,0,0,0c0.1,0.1,0.2,0.2,0.4,0.4c0,0,0,0,0,0
		c1.9,2.1,3.9,4.2,6.2,5.9c0,0,0,0,0,0c0.1,0.1,0.3,0.3,0.4,0.4c0,0,0,0,0,0c0.1,0.1,0.3,0.3,0.4,0.4c0,0,0,0,0,0
		c0.1,0.1,0.3,0.3,0.4,0.4c0,0,0,0,0,0c0.1,0.1,0.3,0.3,0.4,0.4c0,0,0,0,0,0c0.1,0.1,0.3,0.3,0.4,0.4c0,0,0,0,0,0
		c0.1,0.1,0.3,0.3,0.4,0.4c0,0,0,0,0,0c0.1,0.1,0.3,0.3,0.4,0.4c0,0,0,0,0,0c0.1,0.1,0.3,0.2,0.4,0.4c0,0,0,0,0,0
		c0.1,0.1,0.3,0.2,0.4,0.4c0,0,0,0,0,0c0.1,0.1,0.3,0.3,0.4,0.4c0,0,0,0,0,0c0.1,0.1,0.3,0.3,0.4,0.4c0,0,0,0,0,0
		c0.1,0.1,0.2,0.3,0.4,0.4c0,0,0,0,0,0c2.7,2.9,5.4,5.6,8.4,8.1c0,0,0,0,0,0c0.6,0.9,1.3,1.6,2.2,2.2c0,0,0,0,0,0
		c0.1,0.1,0.3,0.3,0.4,0.4c0,0,0,0,0,0c0.1,0.1,0.3,0.3,0.4,0.4c0,0,0,0,0,0c2.4,2.7,5,5.2,7.7,7.5c0.1,0.1,0.2,0.2,0.3,0.3
		c0.1,0.1,0.3,0.3,0.4,0.4c0.1,0.1,0.2,0.2,0.3,0.3c0.1,0.1,0.3,0.3,0.4,0.4c0,0,0,0,0,0c0.1,0.1,0.3,0.3,0.4,0.4c0,0,0,0,0,0
		c2.2,2.3,4.4,4.6,6.7,6.9l0,0c-0.2,0-0.5,0-0.7,0c-8.4,0.9-16.8,1.7-25.2,2.6c-8.5,0.9-16.9,1.8-25.4,2.6
		c-8.9,0.9-17.8,1.9-26.7,2.8c-10,1-20,2.1-29.9,3.1c5.5,0.4,11,0,16.4-0.3c3.8-0.2,7.6,0,11.3-0.6c0.6,0.1,1.2,0.1,1.8-0.1
		c2.6,0,5.2,0.2,7.8-0.3c0.7,0.1,1.5,0.1,2.2-0.1c3.5,0.1,7,0,10.4-0.3c2.5-0.2,5.1,0.2,7.6-0.4c0.9,0.1,1.7,0.2,2.5-0.1
		c2.6,0.1,5.2,0.2,7.8-0.3c0.2,0,0.5,0,0.7,0c3.1,0,6.2,0.2,9.2-0.3c0.9,0.1,1.7,0.1,2.5-0.1c6.4,0.1,12.8-0.2,19.1-0.7
		c0.4,0,0.7,0,1.1,0c5,0.2,9.9-0.3,15.1-0.4c-0.6-0.9-0.8-1.5-1.5-1.8l0,0c-0.1-0.1-0.2-0.3-0.4-0.4l0,0c-0.1-0.7-0.6-1.1-1.1-1.5
		l0,0c-0.6-1.1-1.3-2.1-2.2-2.9l0,0c-1.5-2.3-3.2-4.6-5.1-6.6c0,0,0,0,0,0c-0.2-0.8-0.8-1.3-1.4-1.9c0,0,0,0,0,0
		c-0.1-0.5-0.4-0.8-0.8-1c0,0,0,0,0,0c-0.1-0.1-0.2-0.3-0.4-0.4c0,0,0,0,0,0c-0.5-1.2-1.3-2.1-2.2-3c-0.1-0.1-0.2-0.2-0.3-0.4
		c-0.2-0.3-0.3-0.7-0.5-1c0.2,0,0.5,0,0.7,0c2.8,2,5.7,3.9,8.8,5.6c0,0,0,0,0,0c1.9,1.6,4.1,2.9,6.3,4.1c0,0,0,0,0,0
		c0.6,0.7,1.3,1.2,2.2,1.4c0,0,0,0,0,0c1.2,1.1,2.6,1.9,4,2.6c0,0,0,0,0,0c2,1.6,4,2.9,6.3,4c0,0,0,0,0,0c0.6,0.7,1.4,1.2,2.2,1.5
		c0,0,0,0,0,0c0.1,0.1,0.3,0.2,0.4,0.3c0,0.1,0.1,0.1,0.2,0.1c0.7,0.6,1.4,1.2,2.3,1.5c0,0,0,0,0,0c0.4,0.3,0.8,0.7,1.3,1
		c0,0.1,0,0.3,0,0.4c-1.2,0.8-2.2,1.8-3.1,2.9c0,0,0,0,0,0c-0.1,0.1-0.3,0.3-0.4,0.4c0,0,0,0,0,0c-1.5,0.8-2.6,2.1-3.7,3.3
		c0,0,0,0,0,0c-1.8,1.6-3.7,2.4-6.2,2.3c-2.6-0.1-5.2-0.3-7.8,0.3c-1.1-0.1-2.2-0.1-3.3,0c-0.4,0-0.7-0.1-1.1-0.1
		c-9.6,0.2-19.1,0.4-28.7,0.6c-10.3,0.2-20.6,0.5-30.9,0.7c-15.2,0.4-30.4,0.7-45.5,1.1c1.9,0.1,3.9,0.1,5.8,0.1
		c22.1,0,44.1,0.1,66.2,0.1c17.3,0,34.7,0,52,0c0.8,0,1.7,0.2,2.4-0.6c2.6-3.1,5.2-6.2,7.8-9.3c0,0,0,0,0,0c0.1-0.1,0.3-0.2,0.4-0.4
		c0.1,0,0.2,0,0.3,0c3.3,3.4,6.3,7.1,9.9,10.3l0.1-0.1c0,0-0.1,0.1-0.1,0.1c0.3,5.2,0.1,10.5,0.1,15.7c0,0,0,0,0,0c-1.3,0-2.7,0-4,0
		c-147.5,0-294.9,0-442.4,0c-0.5,0-1-0.1-1.5,0c-1.2,0.1-1.6-0.4-1.6-1.6c0.1-4.2,0-8.5,0-12.7c0-0.7,0.2-1.3,0.7-1.8
		c3.1-2.9,6.1-5.8,9.2-8.8c0.7-0.7,1.2-0.5,1.8,0.1c1.1,1,2,2.3,3.4,3c0,0,0,0,0,0c0.1,0.1,0.3,0.3,0.4,0.4c0,0,0,0,0,0
		c0.1,0.1,0.3,0.3,0.4,0.4c0,0,0,0,0,0c1.4,1.4,2.8,2.8,4.1,4.2c0.7,0.7,1.5,0.9,2.5,0.9c33.1-0.1,66.2-0.1,99.3-0.1
		c0.5,0,1.1,0.2,1.5-0.5c-0.4-0.1-0.6-0.2-0.9-0.2c-11-0.3-21.9-0.6-32.9-0.9c-10.8-0.3-21.5-0.4-32.3-0.7c-10-0.2-20-0.6-29.9-0.7
		c-1.3,0-2.2-0.4-3.1-1.3c-2.8-2.5-5.7-5-8.5-7.5c0-0.1,0-0.2,0-0.3c4.2-2.7,8.4-5.4,12.6-8.1c7.3-4.7,14.6-9.5,21.9-14.3
		c0.3,0.1,0.2,0.4,0.2,0.6c-4.6,5.9-9.3,11.9-13.9,17.8c-0.7,0.8-1.3,1.7-2.1,2.8c40.3,1.5,80.1,2.9,119.7,4.3
		c-2.6-0.3-5.5-0.7-8.4-1c-7.8-0.8-15.6-1.7-23.4-2.4c-4.4-0.4-8.9-1.2-13.3-1.2c-0.2,0-0.5-0.1-0.7-0.1c-0.3-0.3-0.8-0.3-1.2-0.3
		c-6.9-0.7-13.7-1.5-20.6-2.1c-4.4-0.4-8.7-1.1-13.1-1.2c-0.2,0-0.5-0.1-0.7-0.1c-5.2-0.9-10.4-1.2-15.6-1.8
		c-4.7-0.5-9.4-1-14.4-1.5c0.6-0.7,1-1.1,1.4-1.5c7.2-7,14.5-14,21.7-21.1c4.3-4.2,8.7-8.2,12.8-12.6c0,0,0,0,0,0
		c0.1-0.1,0.3-0.3,0.4-0.4c0,0,0,0,0,0c0.1-0.1,0.3-0.3,0.4-0.4c0,0,0,0,0,0c0.1-0.1,0.3-0.3,0.4-0.4c0.1-0.1,0.2-0.2,0.3-0.3
		c3.3-2.7,6.3-5.8,9.2-8.9c0,0,0,0,0,0c0.1-0.1,0.3-0.3,0.4-0.4c0,0,0,0,0,0c0.1-0.1,0.3-0.3,0.4-0.4c0,0,0,0,0,0
		c0.1-0.1,0.3-0.3,0.4-0.4c0,0,0,0,0,0c0.1-0.1,0.3-0.3,0.4-0.4c0,0,0,0,0,0c1-0.5,1.5-1.5,2.5-1.9c0,0.3,0,0.7-0.1,1c0,0,0,0,0,0
		c-0.4,0.2-0.7,0.6-0.7,1.1c0,0,0,0,0,0c-0.6,0.5-1,1.1-1.1,1.8c0,0,0,0,0,0c-0.1,0.1-0.2,0.3-0.3,0.4c0,0,0,0,0,0
		c-0.3,0.1-0.4,0.4-0.4,0.7c0,0,0,0,0,0c-0.7,0.6-1.2,1.4-1.4,2.2c0,0,0,0,0,0C1142.7,369.5,1142.6,369.6,1142.6,369.9z
		 M1350.9,422.8c-0.1-0.1-0.1-0.2-0.2-0.3c0.8,0,1.6,0.1,2.5,0.1C1352.4,422.7,1351.7,422.7,1350.9,422.8z"/>
	<path class="st0" d="M1110.3,235.5c0.2-95.9,77.8-171.1,170.6-171.7c94.9-0.5,171.2,75.6,172.9,168.4c1.8,96-75.6,175.4-172.6,175
		C1186.8,406.7,1110.4,330.3,1110.3,235.5z M1282.1,403.5c92,0,166.2-74,167.8-164.8c1.7-94.3-73.7-169.5-164.6-171.1
		c-94.5-1.7-170.5,74.1-171.3,166.3C1113.2,327.8,1189.3,403.6,1282.1,403.5z"/>
	<path class="st1" d="M1068.9,425.8c-1.4-0.7-2.3-2-3.4-3c-0.7-0.6-1.1-0.8-1.8-0.1c-3,2.9-6.1,5.9-9.2,8.8
		c-0.5,0.5-0.7,1.1-0.7,1.8c0,4.2,0,8.5,0,12.7c0,1.2,0.4,1.7,1.6,1.6c0.5-0.1,1,0,1.5,0c147.5,0,294.9,0,442.4,0c1.3,0,2.7,0,4,0
		c-0.1,0.8-0.7,0.7-1.2,0.7c-1,0-2.1,0-3.1,0c-147.6,0-295.1,0-442.7,0c-3.1,0-3.1,0-3.1-3.1c0-3.8,0-7.6,0-11.4
		c0-1.3,0.4-2.2,1.3-3.1c2.9-2.7,5.8-5.5,8.6-8.2c1.1-1.1,2.2-1.2,3.2,0.1C1067.1,423.6,1068.6,424.2,1068.9,425.8z"/>
	<path class="st1" d="M1162.8,418.1c4.5,0.1,8.9,0.8,13.3,1.2c7.8,0.8,15.6,1.6,23.4,2.4c2.9,0.3,5.8,0.7,8.4,1
		c-39.6-1.4-79.4-2.9-119.7-4.3c0.8-1.1,1.5-2,2.1-2.8c4.6-5.9,9.3-11.9,13.9-17.8c0.9,0.8,0,1.3-0.4,1.8c-1.4,1.8-2.9,3.6-4.3,5.4
		c-0.3,0.4-1,0.9-0.4,1.4c0.6,0.5,0.9-0.4,1.3-0.7c1.7-1.5,3.2-3.3,4.9-4.8c1.7-1.6,3.4-3.4,5.3-4.9c3.6-2.8,6.5-6.3,9.7-9.4
		c3.3-3.1,6.5-6.3,9.8-9.4c0.6-0.6,1.2-1.5,2.3-1.3c-4.1,4.4-8.5,8.4-12.8,12.6c-7.2,7-14.5,14-21.7,21.1c-0.4,0.4-0.8,0.9-1.4,1.5
		c5,0.5,9.7,1,14.4,1.5c5.2,0.6,10.5,0.9,15.6,1.8c-1.2,0.9-2.5,0.5-3.7,0.3c-5.3-0.9-10.8-1-16.1-1.8c-3.7-0.5-7.4-0.2-11-1.6
		c-0.5-0.2-0.9-0.3-1.3,0.2c-1.3,1.7-2.6,3.4-3.8,5.1c-0.5,0.7-0.4,1.1,0.6,1.1c4,0,8,0.6,12,0.7c7,0.2,14,0.3,21,0.7
		c6.2,0.4,12.4,0.6,18.6,0.6c9.6,0.1,19.2,1.1,28.7,0.9c0.4,0,1,0.2,1.4-0.5c-1.9-1-4-1-6-1C1165.5,419.1,1163.9,419.2,1162.8,418.1
		z"/>
	<path class="st1" d="M1069.4,419.8c2.8,2.5,5.7,5,8.5,7.5c0.9,0.8,1.8,1.2,3.1,1.3c10,0.2,20,0.5,29.9,0.7
		c10.8,0.3,21.5,0.4,32.3,0.7c11,0.3,21.9,0.6,32.9,0.9c0.3,0,0.6,0.1,0.9,0.2c-0.5,0.7-1,0.5-1.5,0.5c-33.1,0.1-66.2,0.1-99.3,0.1
		c-1,0-1.8-0.2-2.5-0.9c-1.4-1.4-2.7-2.8-4.1-4.2c0.8-0.2,1.4,0.2,1.7,0.8c2.8,4.3,7.1,3.8,11.3,3.5c1-0.1,1.9,0.1,2.9,0.1
		c7,0,14.1,0,21.1,0c0.3,0,0.7,0.1,1-0.4c-0.4-0.7-1.1-0.7-1.9-0.7c-7.5,0.3-14.9-0.8-22.4-0.3c-3.7,0.3-6.4-1.1-8.6-3.7
		c-1.3-1.5-3-2.7-4.5-4.1C1069.9,421.2,1069.4,420.7,1069.4,419.8z"/>
	<path class="st1" d="M1492.7,421.8c-2.6,3.1-5.2,6.2-7.8,9.3c-0.7,0.8-1.6,0.6-2.4,0.6c-17.3,0-34.7,0-52,0
		c-22.1,0-44.1,0-66.2-0.1c-1.9,0-3.9,0-5.8-0.1c15.2-0.4,30.4-0.7,45.5-1.1c10.3-0.2,20.6-0.5,30.9-0.7c9.6-0.2,19.1-0.4,28.7-0.6
		c0.4,0,0.7,0,1.1,0.1c-1.4,0.6-2.9,0.8-4.4,0.7c-5-0.2-10,0.5-15,0.4c-0.3,0-0.7-0.1-1,0.5c0.5,0.4,1.1,0.2,1.7,0.2
		c12.1,0,24.1,0,36.2,0c1.1,0,1.9-0.3,2.6-1.1c1.9-2.2,3.7-4.3,5.7-6.4C1491.1,422.8,1491.5,421.8,1492.7,421.8z"/>
	<path class="st1" d="M1295.8,420.3c0.4,3.3,0,6.6,0.1,9.9c0,1.1-0.3,1.6-1.5,1.5c-1-0.1-1.8,0.2-1.9-1.4
		c-0.5-5.8-4.8-10.3-10.5-11.4c-6.1-1.1-12.2,1.6-14.8,6.8c-0.8,1.6-1.2,3.2-1.3,4.9c0,1.6-1.2,1-2,1.1c-0.9,0.1-1.5-0.1-1.5-1.2
		c0.2-2.9,0.3-5.7,0.6-8.6c0.1-1.2-0.2-1.7-1.5-1.9c-17.7-2.5-35.4-5.1-53-7.6c-21-3-41.9-6-62.9-8.9c-6.6-0.9-13.2-1.9-19.8-2.9
		c-0.7-0.1-1.8,0.1-2-0.5c-0.3-0.8,0.5-1.5,1.2-2.1c-0.2,1.6,0.8,2.1,2.2,2.2c4.7,0.4,9.2,1.5,13.9,2c4.2,0.5,8.4,1.3,12.7,1.7
		c2.5,0.2,4.9,0.8,7.4,1.1c2.4,0.4,4.8,0.7,7.2,1c4.6,0.7,9.1,1.4,13.7,2c4.3,0.6,8.7,1.1,13,1.7c2.2,0.3,4.3,0.7,6.5,1.1
		c5.1,0.8,10.2,1.5,15.3,2.2c5.7,0.8,11.4,1.7,17.1,2.5c7.3,1,14.6,2.1,21.8,3.1c2.1,0.3,4.2,0.8,6.3,0.7c1.2-0.1,1.5,0.7,1.5,1.7
		c-0.1,2.4,0.3,4.9-0.3,7.3c-0.1,0.5,0,1.1-0.1,1.6c0,0.6,0.1,1.1,0.8,1.1c0.7,0,0.9-0.3,1-1c0.8-4.3,2.6-8,6.7-10
		c3.9-2,8-2.9,12.3-1.2c5,1.9,8.2,5.3,9.1,10.7c0.1,0.5-0.2,1.6,0.9,1.4c0.8-0.2,1.1-0.9,1.1-1.7c0-2.4,0-4.8,0-7.2
		C1295.2,421.3,1294.8,420.5,1295.8,420.3z"/>
	<path class="st1" d="M1432.8,395.9c1.1,1.1,1.8,2.6,2.7,4.1c-3.4,0.5-6.5,1-9.7,1.4c-15.9,2.3-31.8,4.6-47.7,6.9
		c-13.2,1.9-26.4,3.8-39.6,5.6c-13.3,1.9-26.6,3.8-39.9,5.7c-0.7,0.1-1.5,0.1-2.2,0.1c0-0.3,0.1-0.6,0.5-0.7c3.7-0.5,7.3-1,11-1.5
		c2.5-0.4,4.9-0.8,7.4-1.2c3.2-0.5,6.4-0.9,9.6-1.4c3.8-0.5,7.7-1.2,11.6-1.6c4.4-0.5,8.8-1.4,13.2-1.8c3.5-0.3,6.9-1.2,10.4-1.6
		c5-0.6,9.8-1.6,14.8-2.1c4.6-0.5,9.1-1.5,13.7-1.9c2.5-0.2,5-0.9,7.6-1c3.1-0.2,6.2-1,9.3-1.5c5-0.7,10-1.4,15-2.1
		c4-0.5,8-1.4,12.1-1.5c1.2,0,1.8-0.9,0.9-2C1432.8,397.3,1432.6,396.7,1432.8,395.9z"/>
	<path class="st1" d="M1103.9,397.2c-7.3,4.8-14.6,9.5-21.9,14.3c-4.2,2.7-8.4,5.4-12.6,8.1c-0.6-0.5-0.1-0.7,0.2-0.9
		c3.3-2.6,6.9-4.5,10.4-6.8c4.4-3,9.1-5.7,13.4-8.8c2.9-2.1,6.2-3.6,9-5.8C1102.9,396.9,1103.4,396.4,1103.9,397.2z"/>
	<path class="st1" d="M1460,405.1c1.9,2.1,3.6,4.3,5.1,6.6c-0.9,0-1.6-1-2.6-0.8c-2.2-2.3-4.4-4.6-6.7-6.9c1.5-0.2,2,1.2,3,1.8
		c0.4,0.3,0.6,0.9,1.3,0.9C1460.1,406.3,1460,405.7,1460,405.1z"/>
	<path class="st1" d="M1503.3,431.7c-3.5-3.2-6.6-6.9-9.9-10.3c0.5-0.7,0.8-0.1,1.2,0.2c3,2.6,5.3,5.7,8.1,8.5
		C1503.1,430.5,1503.4,431.1,1503.3,431.7z"/>
	<path class="st1" d="M1412.2,363.5c3,4.3,5.8,8.7,8.4,13.3c-1.1,0-1.5-0.8-1.9-1.6c-1.8-2.9-3.6-5.8-5.4-8.7
		C1412.8,365.6,1412,364.7,1412.2,363.5z"/>
	<path class="st1" d="M1468,429c2.6-0.6,5.2-0.4,7.8-0.3c2.5,0.1,4.4-0.7,6.2-2.3c-0.7,1.9-2,3-3.8,3c-2.8,0-5.6,0-8.5,0
		C1469.1,429.4,1468.4,429.6,1468,429z"/>
	<path class="st1" d="M1142.9,365.5c-2.9,3.1-5.9,6.2-9.2,8.9c-0.2-0.7,0.1-1.3,0.7-1.8c2.5-1.8,4.5-4.3,6.7-6.4
		C1141.7,365.7,1142.2,365.3,1142.9,365.5z"/>
	<path class="st1" d="M1411.4,361.8c0,0.2,0.1,0.4,0.1,0.6c-1.2,0.1-1.1-0.9-1-1.4c0.1-0.5,1-0.4,1.3-0.1c2.4,2.3,5.2,4.3,6.9,7.3
		c-1.9-1.2-3.2-3-4.9-4.5C1413,362.9,1412.5,362,1411.4,361.8c-0.1-0.1-0.1-0.3-0.1-0.4c0,0-0.1,0.1,0,0.1
		C1411.3,361.6,1411.3,361.7,1411.4,361.8z"/>
	<path class="st1" d="M1443.3,392c-3-2.5-5.8-5.3-8.4-8.1c1.9-0.1,2.7,1.6,3.8,2.6c1.5,1.3,2.7,3,4.3,4.2
		C1443.4,391,1443.4,391.5,1443.3,392z"/>
	<path class="st1" d="M1454,402.4c-2.7-2.3-5.3-4.8-7.7-7.5c1.4-0.2,2,1.1,2.8,1.8c1.4,1.3,2.8,2.7,4.1,4.1
		C1453.6,401.3,1454.1,401.6,1454,402.4z"/>
	<path class="st1" d="M1463.9,403.1c-3.1-1.6-5.9-3.6-8.8-5.6c0.2-0.1,0.5-0.4,0.6-0.3c2.7,1.9,5.7,3.2,8.1,5.4
		C1463.9,402.6,1463.9,402.9,1463.9,403.1z"/>
	<path class="st1" d="M1420.6,376.8c1.9,2.6,3.7,5.3,5.2,8.1c-0.1,0-0.3,0.1-0.4,0C1423.3,382.5,1421.5,379.9,1420.6,376.8z"/>
	<path class="st1" d="M1430.4,379.5c-2.3-1.7-4.3-3.8-6.2-5.9c0.9-0.2,1.3,0.4,1.9,0.9c1.3,1.2,2.3,2.6,3.8,3.6
		C1430.5,378.4,1430.6,378.9,1430.4,379.5z"/>
	<path class="st1" d="M1482.7,415.2c-2.2-1.1-4.3-2.5-6.3-4C1478.2,411.1,1482,413.6,1482.7,415.2z"/>
	<path class="st1" d="M1470.2,407.1c-2.2-1.2-4.3-2.4-6.3-4.1c1.2-0.3,2.2,0.4,3,1.1C1467.9,405.1,1469.8,405.3,1470.2,407.1z"/>
	<path class="st1" d="M1429.1,390c1.5,1.8,2.7,3.8,3.7,5.9C1430.8,394.4,1429.3,392.6,1429.1,390z"/>
	<path class="st1" d="M1481.9,426.4c1.1-1.3,2.2-2.5,3.7-3.3C1484.9,424.8,1483.9,426.2,1481.9,426.4z"/>
	<path class="st1" d="M1486,422.8c0.9-1.1,1.9-2.1,3.1-2.9C1489.1,421.1,1487.6,422.6,1486,422.8z"/>
	<path class="st1" d="M1476.4,411.1c-1.5-0.7-2.8-1.5-4-2.6C1474,408.9,1475.8,409.1,1476.4,411.1z"/>
	<path class="st1" d="M1146.9,362.1c-1,0.4-1.5,1.4-2.5,1.9c0.2-1.8,1.3-2.8,2.9-2.7c0,0.1,0,0.3,0,0.4l0,0
		C1147.2,361.9,1147.1,362,1146.9,362.1L1146.9,362.1z"/>
	<path class="st1" d="M1124.9,397.8c0.5-1.3,1.2-2.4,2.1-3.4C1127.1,396.1,1126.1,397,1124.9,397.8z"/>
	<path class="st1" d="M1455.2,398.9c0.9,0.9,1.7,1.8,2.2,3C1455.8,401.5,1455.2,400.4,1455.2,398.9z"/>
	<path class="st1" d="M1425.8,384.9c0.8,0.8,1.4,1.8,1.9,2.9C1425.9,387.5,1425.9,386.2,1425.8,384.9z"/>
	<path class="st1" d="M1146.9,363.2c0-0.3,0-0.7,0.1-1c0,0,0,0,0,0c0.3,0,0.4-0.1,0.4-0.4c0,0,0,0,0,0c0.1-0.1,0.2-0.2,0.4-0.4
		c0,0,0,0,0,0c0.1-0.1,0.2-0.1,0.3-0.1C1148.7,362.6,1148.3,363.2,1146.9,363.2z"/>
	<path class="st1" d="M1445.6,394.2c-0.9-0.6-1.7-1.3-2.2-2.2C1444.8,391.9,1445.5,392.7,1445.6,394.2z"/>
	<path class="st1" d="M1135.4,381.2c0.3-0.9,0.8-1.8,1.6-2.5C1137.1,379.9,1136.8,380.9,1135.4,381.2z"/>
	<path class="st1" d="M1487.8,418.5c-0.9-0.3-1.6-0.8-2.3-1.5C1486.7,416.8,1487.7,416.9,1487.8,418.5z"/>
	<path class="st1" d="M1427.7,387.8c0.7,0.6,1.1,1.4,1.4,2.2C1427.7,389.9,1427.4,389,1427.7,387.8z"/>
	<path class="st1" d="M1142.9,369.5c0.3-0.9,0.8-1.6,1.4-2.2C1144.3,368.3,1144.2,369.3,1142.9,369.5z"/>
	<path class="st1" d="M1472.4,408.5c-0.9-0.3-1.6-0.8-2.2-1.4C1471.2,407,1472.2,407.1,1472.4,408.5z"/>
	<path class="st1" d="M1484.9,416.6c-0.9-0.3-1.6-0.7-2.2-1.5C1483.7,415.2,1484.7,415.3,1484.9,416.6z"/>
	<path class="st1" d="M1458.6,403.2c0.6,0.5,1.2,1,1.4,1.9C1458.8,405,1458.4,404.4,1458.6,403.2z"/>
	<path class="st1" d="M1489.1,419.5c-0.4-0.3-0.8-0.7-1.3-1c0.6-0.1,1.3-0.3,1.7,0.5C1489.7,419.3,1489.4,419.4,1489.1,419.5z"/>
	<path class="st1" d="M1140.6,373.1c0.2-0.7,0.6-1.4,1.2-1.8C1141.7,372.1,1141.8,373,1140.6,373.1z"/>
	<path class="st1" d="M1127,394.4c0.2-0.7,0.6-1.3,1.2-1.8C1128.1,393.5,1128.2,394.4,1127,394.4z"/>
	<path class="st1" d="M1130.3,389.3c0.2-0.7,0.6-1.4,1.2-1.8C1131.4,388.3,1131.5,389.2,1130.3,389.3z"/>
	<path class="st1" d="M1145,366.1c0.2-0.7,0.6-1.3,1.1-1.8C1146.2,365.2,1146.4,366.1,1145,366.1z"/>
	<path class="st1" d="M1423.1,372.5c-0.5-0.2-0.9-0.6-1.1-1.1C1422.9,371.2,1423.2,371.6,1423.1,372.5z"/>
	<path class="st1" d="M1128.2,392.6c0.1-0.5,0.3-0.9,0.7-1.1C1128.9,392.1,1129,392.6,1128.2,392.6z"/>
	<path class="st1" d="M1139.9,374.2c0.1-0.5,0.3-0.9,0.7-1.1C1140.7,373.7,1140.8,374.3,1139.9,374.2z"/>
	<path class="st1" d="M1128.9,391.5c0-0.5,0.3-0.9,0.7-1.2C1129.7,390.9,1129.8,391.5,1128.9,391.5z"/>
	<path class="st1" d="M1138.4,376.4c0.1-0.5,0.3-0.9,0.7-1.1C1139.2,375.9,1139.3,376.5,1138.4,376.4z"/>
	<path class="st1" d="M1137.3,378.3c0.1-0.5,0.3-0.9,0.7-1.2C1138.1,377.7,1138.2,378.3,1137.3,378.3z"/>
	<path class="st1" d="M1134,383.4c0.1-0.5,0.3-0.9,0.7-1.2C1134.8,382.8,1134.9,383.4,1134,383.4z"/>
	<path class="st1" d="M1146.2,364.3c0-0.5,0.3-0.9,0.7-1.1C1147,363.8,1147,364.3,1146.2,364.3z"/>
	<path class="st1" d="M1454.4,397.4c0.2,0.3,0.3,0.7,0.5,1c-0.9,0.1-0.9-0.5-0.8-1.1c0,0,0.1,0,0.1,0L1454.4,397.4L1454.4,397.4z"/>
	<path class="st1" d="M1411.5,362.4c0.4,0.3,0.7,0.6,0.7,1.1C1411.3,363.6,1411.4,363,1411.5,362.4z"/>
	<path class="st1" d="M1457.8,402.2c0.4,0.2,0.7,0.6,0.8,1C1457.7,403.4,1457.7,402.8,1457.8,402.2z"/>
	<path class="st1" d="M1133.3,384.5c0.1-0.5,0.3-0.9,0.7-1.1C1134.1,384,1134.1,384.5,1133.3,384.5z"/>
	<path class="st1" d="M1144.3,367.2c0-0.3,0.1-0.6,0.4-0.7C1144.7,366.9,1144.7,367.2,1144.3,367.2z"/>
	<path class="st1" d="M1139.2,375.4c0-0.3,0.1-0.6,0.4-0.7C1139.6,375,1139.5,375.2,1139.2,375.4z"/>
	<path class="st1" d="M1420.5,369.9c-0.1-0.1-0.3-0.3-0.4-0.4C1420.3,369.7,1420.4,369.8,1420.5,369.9z"/>
	<path class="st1" d="M1420.9,370.3c-0.1-0.1-0.3-0.3-0.4-0.4C1420.6,370,1420.8,370.2,1420.9,370.3z"/>
	<path class="st1" d="M1142.2,370.6c0.1-0.2,0.2-0.3,0.3-0.5C1142.4,370.3,1142.3,370.4,1142.2,370.6z"/>
	<path class="st1" d="M1141.9,371c0-0.2,0.1-0.3,0.3-0.4C1142.1,370.7,1142,370.8,1141.9,371z"/>
	<path class="st1" d="M1421.7,371c-0.1-0.1-0.3-0.2-0.4-0.4C1421.4,370.8,1421.5,370.9,1421.7,371z"/>
	<path class="st1" d="M1422,371.4c-0.1-0.1-0.3-0.2-0.4-0.4C1421.8,371.1,1421.9,371.2,1422,371.4z"/>
	<path class="st1" d="M1142.6,369.9c0-0.2,0.1-0.3,0.3-0.4C1142.8,369.6,1142.7,369.7,1142.6,369.9z"/>
	<path class="st1" d="M1420.2,369.6c-0.1-0.1-0.3-0.3-0.4-0.4C1420,369.2,1420.1,369.3,1420.2,369.6z"/>
	<path class="st1" d="M1423.5,372.8c-0.1-0.1-0.2-0.2-0.4-0.4C1423.3,372.6,1423.4,372.7,1423.5,372.8z"/>
	<path class="st1" d="M1423.9,373.2c-0.1-0.1-0.2-0.2-0.4-0.4C1423.6,372.9,1423.7,373.1,1423.9,373.2z"/>
	<path class="st1" d="M1419.8,369.2c-0.1-0.1-0.3-0.3-0.4-0.4C1419.5,368.9,1419.7,369.1,1419.8,369.2z"/>
	<path class="st1" d="M1424.2,373.6c-0.1-0.1-0.2-0.2-0.4-0.4C1424,373.3,1424.1,373.4,1424.2,373.6z"/>
	<path class="st1" d="M1419.4,368.8c-0.1-0.1-0.3-0.3-0.4-0.4C1419.2,368.6,1419.3,368.7,1419.4,368.8z"/>
	<path class="st1" d="M1139.6,374.6c0.1-0.1,0.2-0.3,0.3-0.4C1139.8,374.3,1139.7,374.5,1139.6,374.6z"/>
	<path class="st1" d="M1133.4,374.7c-0.1,0.1-0.3,0.3-0.4,0.4C1133.1,374.8,1133.2,374.7,1133.4,374.7z"/>
	<path class="st1" d="M1419.1,368.5c-0.1-0.1-0.3-0.3-0.4-0.4C1418.9,368.1,1419,368.2,1419.1,368.5z"/>
	<path class="st1" d="M1133,375.1c-0.1,0.1-0.3,0.3-0.4,0.4C1132.8,375.3,1132.9,375.2,1133,375.1z"/>
	<path class="st1" d="M1132.7,375.4c-0.1,0.1-0.3,0.3-0.4,0.4C1132.4,375.7,1132.5,375.5,1132.7,375.4z"/>
	<path class="st1" d="M1138.2,376.8c0-0.2,0.1-0.4,0.3-0.4C1138.4,376.6,1138.3,376.7,1138.2,376.8z"/>
	<path class="st1" d="M1144.7,366.5c0.1-0.1,0.2-0.3,0.3-0.4C1144.9,366.3,1144.8,366.4,1144.7,366.5z"/>
	<path class="st1" d="M1143.3,365.1c-0.1,0.1-0.3,0.3-0.4,0.4C1143.1,365.4,1143.2,365.2,1143.3,365.1z"/>
	<path class="st1" d="M1143.7,364.8c-0.1,0.1-0.3,0.3-0.4,0.4C1143.4,365,1143.6,364.9,1143.7,364.8z"/>
	<path class="st1" d="M1137,378.7c0.1-0.1,0.2-0.3,0.3-0.4C1137.2,378.4,1137.1,378.5,1137,378.7z"/>
	<path class="st1" d="M1144.1,364.4c-0.1,0.1-0.3,0.3-0.4,0.4C1143.8,364.6,1143.9,364.5,1144.1,364.4z"/>
	<path class="st1" d="M1430.8,379.9c-0.1-0.1-0.3-0.3-0.4-0.4C1430.6,379.6,1430.7,379.7,1430.8,379.9z"/>
	<path class="st1" d="M1431.2,380.2c-0.1-0.1-0.3-0.3-0.4-0.4C1430.9,380,1431.1,380.1,1431.2,380.2z"/>
	<path class="st1" d="M1431.6,380.6c-0.1-0.1-0.3-0.3-0.4-0.4C1431.3,380.3,1431.4,380.5,1431.6,380.6z"/>
	<path class="st1" d="M1431.9,381c-0.1-0.1-0.3-0.3-0.4-0.4C1431.7,380.7,1431.8,380.8,1431.9,381z"/>
	<path class="st1" d="M1432.3,381.3c-0.1-0.1-0.3-0.3-0.4-0.4C1432,381.1,1432.2,381.2,1432.3,381.3z"/>
	<path class="st1" d="M1135.2,381.6c0.1-0.1,0.2-0.3,0.3-0.4C1135.4,381.3,1135.3,381.5,1135.2,381.6z"/>
	<path class="st1" d="M1432.7,381.7c-0.1-0.1-0.3-0.3-0.4-0.4C1432.4,381.4,1432.5,381.6,1432.7,381.7z"/>
	<path class="st1" d="M1134.9,382c0-0.2,0.1-0.3,0.3-0.4C1135.1,381.7,1135,381.9,1134.9,382z"/>
	<path class="st1" d="M1433,382.1c-0.1-0.1-0.3-0.3-0.4-0.4C1432.8,381.8,1432.9,381.9,1433,382.1z"/>
	<path class="st1" d="M1433.4,382.4c-0.1-0.1-0.3-0.2-0.4-0.4C1433.2,382.2,1433.3,382.3,1433.4,382.4z"/>
	<path class="st1" d="M1144.4,364c-0.1,0.1-0.3,0.3-0.4,0.4C1144.2,364.3,1144.3,364.2,1144.4,364z"/>
	<path class="st1" d="M1433.8,382.8c-0.1-0.1-0.3-0.2-0.4-0.4C1433.5,382.5,1433.7,382.6,1433.8,382.8z"/>
	<path class="st1" d="M1434.2,383.1c-0.1-0.1-0.3-0.3-0.4-0.4C1433.9,382.9,1434,383,1434.2,383.1z"/>
	<path class="st1" d="M1434.5,383.5c-0.1-0.1-0.3-0.3-0.4-0.4C1434.3,383.2,1434.4,383.4,1434.5,383.5z"/>
	<path class="st0" d="M1147.7,361.4c-0.1,0.1-0.2,0.2-0.4,0.4c0-0.1,0-0.3,0-0.4C1147.4,361.4,1147.6,361.4,1147.7,361.4z"/>
	<path class="st1" d="M1434.9,383.9c-0.1-0.1-0.2-0.3-0.4-0.4C1434.6,383.6,1434.8,383.7,1434.9,383.9z"/>
	<path class="st0" d="M1148,361.3c-0.1,0-0.2,0-0.3,0.1c0.1-0.1,0.2-0.2,0.4-0.3l0,0C1148,361.1,1147.9,361.2,1148,361.3z"/>
	<path class="st1" d="M1133,384.9c0.1-0.1,0.2-0.3,0.3-0.4C1133.2,384.7,1133.1,384.8,1133,384.9z"/>
	<polygon class="st0" points="1148,361 1148.1,361 1148.1,361 	"/>
	<path class="st1" d="M1132.6,385.7c0.1-0.2,0.2-0.3,0.3-0.5C1132.8,385.3,1132.7,385.5,1132.6,385.7z"/>
	<path class="st1" d="M1132.3,386c0-0.2,0.1-0.3,0.3-0.4C1132.5,385.8,1132.4,385.9,1132.3,386z"/>
	<path class="st1" d="M1131.9,386.8c0.1-0.2,0.2-0.3,0.3-0.5C1132.1,386.5,1132,386.6,1131.9,386.8z"/>
	<path class="st1" d="M1131.6,387.1c0-0.2,0.1-0.3,0.3-0.3C1131.8,386.9,1131.7,387,1131.6,387.1z"/>
	<path class="st1" d="M1130,389.7c0.1-0.1,0.2-0.3,0.3-0.4C1130.2,389.4,1130.1,389.6,1130,389.7z"/>
	<path class="st1" d="M1129.7,390.1c0.1-0.1,0.2-0.2,0.3-0.4C1129.9,389.8,1129.8,390,1129.7,390.1z"/>
	<path class="st1" d="M1445.9,394.5c-0.1-0.1-0.3-0.3-0.4-0.4C1445.7,394.3,1445.8,394.4,1445.9,394.5z"/>
	<path class="st1" d="M1446.3,394.9c-0.1-0.1-0.3-0.3-0.4-0.4C1446,394.7,1446.2,394.8,1446.3,394.9z"/>
	<path class="st0" d="M1454.4,397.4l-0.1-0.1c0,0-0.1,0-0.1,0C1454.3,397.1,1454.4,397.3,1454.4,397.4z"/>
	<path class="st1" d="M1457.4,401.8c0.1,0.1,0.2,0.3,0.4,0.4C1457.6,402.1,1457.5,401.9,1457.4,401.8z"/>
	<path class="st1" d="M1454.7,403.1c-0.1-0.1-0.3-0.3-0.4-0.4C1454.6,402.7,1454.7,402.8,1454.7,403.1z"/>
	<path class="st1" d="M1455.5,403.8c-0.1-0.1-0.3-0.3-0.4-0.4C1455.2,403.5,1455.3,403.6,1455.5,403.8z"/>
	<path class="st1" d="M1455.8,404.1c-0.1-0.1-0.3-0.3-0.4-0.4C1455.6,403.9,1455.7,404,1455.8,404.1z"/>
	<path class="st1" d="M1485.3,416.9c-0.1-0.1-0.3-0.2-0.4-0.3C1485,416.7,1485.2,416.8,1485.3,416.9z"/>
	<path class="st1" d="M1296.2,419.9c-0.1,0.1-0.2,0.2-0.3,0.2C1296,420.1,1296.1,420,1296.2,419.9z"/>
	<path class="st1" d="M1493.1,421.4c-0.1,0.1-0.3,0.2-0.4,0.4C1492.8,421.6,1493,421.5,1493.1,421.4z"/>
	<path class="st1" d="M1485.6,423.1c0.1-0.1,0.3-0.3,0.4-0.4C1485.9,422.9,1485.7,423,1485.6,423.1z"/>
	<path class="st1" d="M1069.3,426.2c-0.1-0.1-0.3-0.3-0.4-0.4C1069.1,425.9,1069.2,426,1069.3,426.2z"/>
	<path class="st1" d="M1069.7,426.5c-0.1-0.1-0.3-0.3-0.4-0.4C1069.4,426.3,1069.6,426.4,1069.7,426.5z"/>
	<path class="st1" d="M1462.5,411c0,0.8-0.6,0.7-1.2,0.8c-6.3,0.7-12.5,1.6-18.8,2.1c-3.3,0.2-6.6,0.8-10,0.9
		c-3.4,0.1-6.8,0.7-10.1,1.1c-3.1,0.4-6.2,0.7-9.2,1c-4.2,0.5-8.5,0.8-12.7,1.3c-2.6,0.4-5.2,0.6-7.8,0.7c-3,0.2-5.9,0.9-8.9,0.9
		c-1.2,0-1.5,0.5-1.4,1.5c-3.8,0.6-7.6,0.4-11.3,0.6c-5.5,0.2-10.9,0.7-16.4,0.3c10-1,20-2.1,29.9-3.1c8.9-0.9,17.8-1.9,26.7-2.8
		c8.5-0.9,16.9-1.8,25.4-2.6c8.4-0.9,16.8-1.7,25.2-2.6C1462,411,1462.2,411,1462.5,411z"/>
	<path class="st1" d="M1162,418c-1.2,0.8-2.6,0.5-3.9,0.3c-3.8-0.8-7.7-0.8-11.6-1.3c-4-0.5-8-0.7-11.9-1.3c-2.2-0.3-4.4,0-6.5-0.6
		c-0.5-0.1-1-0.1-1-0.7c4.4,0.1,8.8,0.8,13.1,1.2c6.9,0.6,13.7,1.4,20.6,2.1C1161.2,417.7,1161.7,417.7,1162,418z"/>
	<path class="st1" d="M1434.9,419.5c0.3-0.4,0.8-0.7,1.2-0.7c5.8,0,11.5-0.7,17.3-0.4c0.2,0,0.4,0.2,0.6,0.4
		C1447.7,419.3,1441.3,419.6,1434.9,419.5z"/>
	<path class="st1" d="M1394.1,421c1.1-0.8,2.5-0.3,3.7-0.5c4.5-0.8,9.1-0.6,13.6-0.6c0.3,0,0.6,0.2,0.8,0.4
		c-2.5,0.6-5.1,0.2-7.6,0.4C1401,421,1397.6,421.1,1394.1,421z"/>
	<path class="st1" d="M1455.2,418.8c1.2-0.6,2.6-0.7,3.9-0.7c2.9,0,5.7-0.7,8.6-0.4c0.9,0.1,1.2-0.3,1.2-1.2c0.7,0.3,0.9,1,1.5,1.8
		C1465.1,418.5,1460.1,419,1455.2,418.8z"/>
	<path class="st1" d="M1423.1,419.9c0.4-0.6,0.9-0.8,1.6-0.8c2.3,0,4.6,0,6.9,0c0.3,0,0.6,0.2,0.8,0.4
		C1429.3,420.1,1426.2,419.9,1423.1,419.9z"/>
	<path class="st1" d="M1384.2,421.3c0.1-0.1,0.2-0.4,0.3-0.4c2.5-0.4,5-0.7,7.4,0.1C1389.3,421.6,1386.8,421.4,1384.2,421.3z"/>
	<path class="st1" d="M1414.7,420.2c2.6-0.2,5.1-1.3,7.8-0.3C1419.9,420.4,1417.3,420.3,1414.7,420.2z"/>
	<path class="st1" d="M1467.4,414.7c-1.6-0.3-2.1-1.5-2.2-2.9C1466.1,412.5,1466.8,413.5,1467.4,414.7z"/>
	<path class="st1" d="M1350.9,422.8c0.8,0,1.5-0.1,2.4-0.1c-0.9,0-1.7-0.1-2.5-0.1C1350.8,422.6,1350.9,422.7,1350.9,422.8z"/>
	<path class="st1" d="M1468.5,416.1c-1.1,0.1-1.3-0.6-1.1-1.5C1467.9,415,1468.3,415.5,1468.5,416.1z"/>
	<path class="st1" d="M1468.8,416.5c-0.1-0.1-0.2-0.3-0.4-0.4C1468.6,416.3,1468.7,416.4,1468.8,416.5z"/>
	<path class="st0" d="M1411.4,361.8c-0.1-0.1-0.1-0.2-0.2-0.3c0,0,0-0.1,0-0.1C1411.3,361.5,1411.3,361.6,1411.4,361.8
		C1411.4,361.8,1411.4,361.8,1411.4,361.8z"/>
	<path class="st0" d="M1147.3,361.8c0,0.2-0.1,0.4-0.4,0.4C1147.1,362,1147.2,361.9,1147.3,361.8z"/>
	<path class="st0" d="M1402.6,237c0.1,65.4-52.8,120.5-120.7,120.5c-67.4,0-119.9-54.2-120.8-119.1c-0.9-68.6,54.8-123,121.8-122.5
		C1348.7,116.5,1402.8,170.2,1402.6,237z M1187,305.5c0.1,0.1,0.2,0.3,0.3,0.4c0.1,0.1,0.1,0.2,0.2,0.4c0.2,0.5,0.4,0.9,0.9,1.1l0,0
		c0.1,0.7,0.6,1.1,1.1,1.5c0.1,0.1,0.2,0.2,0.2,0.4c0.2,0.4,0.4,0.9,0.9,1.1l0,0c0.1,0.1,0.2,0.3,0.4,0.4l0,0
		c0.1,0.2,0.2,0.3,0.4,0.5c0.1,0.1,0.2,0.2,0.2,0.3c0.3,0.6,0.7,1.1,1.2,1.4l0,0c0.1,0.2,0.2,0.3,0.4,0.5c0.1,0.1,0.2,0.2,0.2,0.3
		c0.6,1,1.4,1.9,2.3,2.5l0,0c0.1,0.1,0.3,0.3,0.4,0.4l0,0c0.2,0.5,0.6,0.9,1.1,1.2c0.8,1.1,1.8,2,2.8,2.8c0.3,0.5,0.6,0.9,1.2,1.1
		l0,0c0.1,0.1,0.3,0.3,0.4,0.4l0,0c0.3,0.7,0.9,1.1,1.5,1.4l0,0c0.3,0.6,0.8,1,1.4,1.3c0.1,0.3,0.4,0.5,0.7,0.6
		c0.1,0.1,0.3,0.3,0.4,0.4l0,0c0.3,0.6,0.8,1,1.5,1.2c0.2,0.3,0.4,0.5,0.7,0.6c0.3,0.6,0.8,1,1.5,1.2c0.1,0.1,0.2,0.2,0.4,0.3
		c0.2,0.5,0.6,0.7,1.1,0.8c0,0,0,0,0,0c0.1,0.1,0.3,0.2,0.4,0.3l0,0c0.2,0.5,0.6,0.7,1,0.8l0,0c0.4,0.5,0.9,0.9,1.5,1.1
		c0.1,0.1,0.2,0.2,0.4,0.2c0.2,0.4,0.6,0.7,1.1,0.8l0,0c0.2,0.5,0.6,0.7,1.1,0.8l0,0c1.4,1.3,3.1,2.2,4.7,3l0,0
		c0.6,0.7,1.4,1.1,2.3,1.4l0,0c1.2,1,2.5,1.7,4,2.3l0,0c0.1,0.1,0.3,0.2,0.4,0.3c0.1,0.1,0.2,0.1,0.3,0.1c0.2,0.1,0.3,0.2,0.5,0.3
		c0.1,0.1,0.1,0.1,0.2,0.1c0.4,0.3,0.8,0.6,1.2,0.8c22.4,10.8,46,14.5,70.6,10.5c26.9-4.4,49.9-16.7,68-37.1
		c26.2-29.5,35.2-63.9,28-102.5c-1.2-6.5-3.1-12.8-5.7-18.9l0,0c-1.2-3.4-2.6-6.8-4.5-9.9l0,0c-0.4-1-0.7-2.1-1.5-2.9l0,0
		c0-0.5-0.2-0.9-0.6-1.2l0,0c-0.1-0.6-0.3-1.1-0.8-1.4l0,0c0-0.5-0.3-0.9-0.7-1.2l0,0c-0.2-0.7-0.6-1.4-1.2-1.9c0-0.1,0-0.2-0.1-0.2
		c0-0.2-0.1-0.4-0.3-0.4l0,0c0-0.5-0.3-0.9-0.7-1.1l0,0c-0.1-0.5-0.3-0.9-0.7-1.1l0,0c-0.1-0.5-0.3-0.9-0.8-1.1l0,0
		c-0.4-1-1-1.9-1.8-2.6l0,0c-0.4-1-1-1.9-1.9-2.5l0,0c-0.2-0.6-0.6-1.1-1.1-1.4l0,0c-0.3-0.8-0.9-1.4-1.5-1.9c0-0.1,0-0.2-0.1-0.2
		c-1.2-1.6-2.4-3.2-3.9-4.5l0,0c-0.1-0.2-0.3-0.3-0.4-0.5c-0.1-0.1-0.2-0.2-0.2-0.3c-3.1-3.7-6.6-7-10.4-10c0,0,0,0,0,0
		c-0.6-0.5-1.1-1.1-1.7-1.6c-4.8-4-10-7.5-15.3-10.6c-21.1-12.2-43.7-17.3-68-15.5c-2.6,0.2-5.2,0.2-7.8,1c-0.5,0-1,0-1.5,0.1
		c-12.9,2.1-25.2,6.1-36.7,12.3c-19.9,10.7-35.4,25.8-46.7,45.3c-3.8,6.6-7.1,13.5-9.3,20.9c-0.2,0.1-0.3,0.3-0.2,0.5
		c0,0.2-0.1,0.4-0.1,0.6c-0.3,0.2-0.3,0.5-0.3,0.9c-0.1,0.1-0.1,0.2-0.1,0.3c-0.3,0.2-0.3,0.5-0.3,0.8c-0.1,0.1-0.1,0.2-0.1,0.3
		c-0.3,0.2-0.3,0.5-0.3,0.8c0,0.1-0.1,0.2-0.1,0.4c-0.5,0.8-0.7,1.7-0.7,2.6c-0.1,0.1-0.1,0.1-0.1,0.2c-0.3,0.2-0.3,0.5-0.2,0.9
		c0,0.1,0,0.2-0.1,0.4c-0.4,0.3-0.4,0.7-0.3,1.1c0,0.2-0.1,0.4-0.1,0.6c-0.3,0.2-0.3,0.5-0.2,0.9c0,0.2-0.1,0.4-0.1,0.7
		c-0.4,0.5-0.4,1-0.3,1.6c-0.1,0.1-0.1,0.1,0,0.2c-1,3.8-1.6,7.6-1.8,11.5c0,0.4-0.1,0.7-0.1,1.1c-0.8,6.1-0.8,12.3-0.4,18.5
		c1,16,5.1,31.2,12.3,45.5c2.3,4.6,4.9,9.2,8,13.3l0,0c0.1,0.1,0.2,0.3,0.3,0.4l0,0c0.2,0.7,0.6,1.2,1.1,1.6c0,0.1,0,0.2,0.1,0.2
		C1186.8,305.3,1186.9,305.4,1187,305.5L1187,305.5z"/>
	<path class="st0" d="M1404.8,271.7c2,1.2,3.9,2.2,4.3,4.9c0.5,2.9,1.3,5.8,2.8,8.8c1.2-3.4,1.8-6.6,2.4-9.8c0.7-3.3,0.8-6.7,1.4-10
		c0.7-3.9,6.9-6.9,9.9-4.6c0.4,0.3,0.9,0.4,1.3,0.7c4.1,2,4.1,2,3.2,6.3c-1.7,8.3-3.4,16.5-5,24.8c-0.3,1.6-0.9,1.9-2.3,1.5
		c-0.7-0.2-1.4-0.4-2.1-0.2c0,0.1,0,0.2,0,0.2c0.5,1,2.7,0.3,2.2,2.2c-0.9,3.3-1.8,4.1-4.5,4.2c-0.3,0-0.6,0-1,0.1
		c0.2,0.3,0.3,0.6,0.5,0.7c2.4,1.6,1.9,3.6,0.8,5.6c-1.2,2.2-1.8,5-5.5,5.1c2.2,1.8,1.2,3.5,0.2,5.2c-4.9,8.3-10.5,16.2-16.9,23.5
		c-3.8,4.3-8.1,8.2-12,12.4c-2.3,2.5-5.1,2.6-7.9,0.7c-0.4-0.3-0.8-0.6-1.2-0.8c-0.1,0.1-0.2,0.2-0.2,0.3c0.1,1.3,0.9,2.8-0.3,4
		c-1.7,1.7-3.7,2.8-5.9,3.5c-0.5,0.2-1,0-1.2-0.5c-1.2-2.4-2.6-4.8-1.2-7.6c0.6-1.2,0.9-2.5,1.3-3.8c0.4-1.2,0.8-2.2-0.4-3.4
		c-1-1.1-0.4-2.9-0.9-4.6c1.7,0.6,2.8,1.7,3.9,2.7c1.5,1.3,2.9,2.7,4.3,4c1.9,1.7,2.8,1.6,4.6-0.1c7.2-7,14.2-14.2,20-22.5
		c3.1-4.4,6-8.8,8.5-13.5c0.5-1,0.6-1.6-0.5-2.1c-2.1-1-2.5-3.1-3.1-5c-0.3-1,0.4-1,1-0.7c1.2,0.7,2.3,1.4,3.4,2.2
		c1,0.8,1.8,0.7,2.4-0.5c0.7-1.4,1.3-2.9,2-4.3c0.4-0.9,0.2-1.3-0.7-1.6c-2.6-0.8-5.2-1.9-7.9-2.5c-2.9-0.7-4.2-2.8-5.4-5.2l0,0
		c4.1,0.9,7.9,2.3,11.9,3.5c3.9,1.2,3.8,1.3,5.4-2.5c1,0.2,1.2-0.3,1.4-1.1c1.5-7.5,3-15,4.4-22.4c0.3-1.5,0.8-3,0.7-4.7
		c-2,0.9-2.3,2.5-2.5,4.1c-0.9,5.9-1.7,11.8-3.2,17.6c0,0.1-0.1,0.3-0.1,0.4c-0.6,1-0.9,2.1-1.8,2.9c-0.1,0-0.3,0.1-0.4,0.1
		c-0.8-0.3-1.7-0.6-2.5-0.8c0,0,0,0,0,0c-0.1-0.1-0.3-0.2-0.4-0.3c0,0,0,0,0,0c-0.1-0.1-0.2-0.2-0.3-0.3c0,0,0,0,0,0
		c-0.1-0.1-0.2-0.2-0.3-0.3c-0.3-0.4-0.6-0.8-0.9-1.1c-0.1-0.1-0.2-0.2-0.3-0.3c0,0,0-0.1,0-0.1c-0.1-0.1-0.2-0.3-0.3-0.4
		c0,0,0,0,0,0c0-0.3-0.1-0.5-0.4-0.6c0,0-0.1-0.1-0.1-0.1c-0.1-0.1-0.2-0.3-0.3-0.4c-0.1-0.2-0.3-0.5-0.4-0.7
		c-0.2-0.7-0.5-1.4-1-1.9c0-0.1,0-0.2-0.1-0.3c-0.1-0.1-0.2-0.3-0.2-0.4c0-0.1,0-0.2-0.1-0.3c-0.1-0.6-0.2-1.1-0.6-1.5
		c0-0.1,0-0.2-0.1-0.3c-0.1-0.7-0.2-1.3-0.6-1.9c0-0.1,0-0.2-0.1-0.3C1405.3,275.3,1404.5,273.6,1404.8,271.7z M1369,353.5
		c1.6-0.9,3-1.5,3.2-2.9c0.1-0.7-1.1-1.3-1.9-1.8C1370.2,350.4,1369.6,351.7,1369,353.5z M1419.7,293.8c-0.1,0.1-0.2,0.1-0.3,0.2
		c0.1,0,0.2,0.1,0.3,0.1c0.1,0,0.2,0,0.3-0.1C1420,293.9,1419.8,293.8,1419.7,293.8z"/>
	<path class="st0" d="M1324.1,382.9c0.3,3.1-1.7,3.3-3.5,3.8c-1.2,0.3-2.5,0.6-3.8,0.8c-0.7,0.1-1.6,0.3-2.2,0
		c-1.5-0.9-2.7-1.5-3.3,0.9c-0.1,0.4-1.3,0.5-2,0.6c-6.8,1.2-13.7,1.9-20.6,2.2c-7.7,0.3-15.4,0.1-23.1-0.7c-0.3,0-0.6,0-0.9-0.1
		c-5.6-0.1-7-1.5-7.5-7c-0.1,0-0.3,0-0.3,0c-2.4,2.9-2.9,3.1-6.5,1.9c-4.4-1.4-4.5-1.7-2.4-5.8c0.6-1.3,1.5-2.2,2.9-2.6
		c1.3-0.4,2.5-1,3.7-1.6c1.4-0.6,2.8-0.9,3-3.1c0.1-1.2,1.7-2.3,3-3.3c0.5,3,0.4,5.8,0.3,8.6c0,0.1-0.1,0.2-0.1,0.4
		c0.1,4.1,0.2,4.6,4.3,4.8c6.3,0.4,12.6,0.9,18.9,0.8c8.6-0.2,17.1-1,25.6-2.5c1-0.2,1.5-0.5,1.2-1.7c-0.6-2.2,0.8-3.8,1.9-5.6
		c0.1-0.2,0.5-0.5,0.7-0.5c0.5,0,0.5,0.5,0.6,0.8c0.2,1.3,0.3,2.6,0.3,3.8c0,1.3,0.5,1.9,1.9,1.7c1.8-0.3,3.6-0.9,5.3-1.4
		c1.1-0.3,0.8-1.2,0.6-1.8c-0.6-2.2,0.6-3.8,1.4-5.5c0.4-0.8,0.9-0.8,1.2,0.1c0.3,1.2,0.6,2.5,0.8,3.8c0.3,1.8,0.6,2.1,2.4,1.6
		c1.6-0.5,3.1-1,4.7-1.5c0.6-0.2,0.9-0.5,0.8-1.3c-0.3-3.6,0.9-6.8,3-9.6c1.2-1.6,2.9-1.5,4.2,0.1c1.2,1.5,1.7,3.2,1.9,5.1
		c0.1,1.1,0.4,1.5,1.6,1c3.1-1.4,6-3.1,9-4.6c0.9-0.5,0.8-0.9,0.1-1.5c-0.3-0.3-0.6-0.7-1-0.8c-2.8-0.9-2.5-3.2-2.4-5.4
		c0-1.1,0.3-1.6,1.5-0.9c2.6,1.4,4.7,3.2,5.7,6c0.8,2,1.3,4.1,2,6.1c0.4,1.2,0,2-1,2.6c-9.1,5.2-18.6,9.2-28.6,12.3
		C1327.5,384.6,1325.9,384.7,1324.1,382.9z M1337.7,372.7c1.1,0,2.8-1.5,2.6-2.3c-0.3-1-1.2-1.3-2.1-1.5c-0.7-0.1-2.6,1.7-2.4,2.4
		C1335.9,372.4,1336.9,372.5,1337.7,372.7z M1257.1,377.1c-1.3,1.1-2.8,1.5-4.3,2.2c1.5,0.5,2.9,1.2,4.2,0.4
		C1257.7,379.3,1257.3,378.1,1257.1,377.1z"/>
	<path class="st0" d="M1197.9,99.3c1.4,1.7,3.1,2,4.9,2.1c1.2,0.1,1.9,0.5,1.9,1.9c-0.1,2.5,1.3,4.5,2.9,6.4c2,2.3,3,5,3.9,7.8
		c0.3,1.2,0,1.9-1,2.4c-6.6,4-12.8,8.6-18.7,13.6c-1.3,1.1-2.1,1.3-4.4,0.9c1.4,2.4-0.4,3.4-1.7,4.8c-2.2,2.2-4.4,4.5-6.5,6.8
		c-1.3,1.5-2.6,3-5.5,2.3c2.1,2.4,0.6,3.6-0.5,5c-2.1,2.7-4,5.6-6,8.4c-0.8,1.2-1.6,2.4-3.2,2.5c-1.1,0.1-0.9,0.6-0.5,1.2
		c0.6,0.8,0.5,1.5,0,2.3c-5.4,9.3-9.9,19-12.9,29.3c-0.5,1.7-1.2,2.1-3,1.7c-4.6-1.2-9.1-2.4-13.8-3.2c-3.2-0.5-4.7-2.7-6.7-5.3
		c3.9,0.9,7.3,1.8,10.7,2.6c1.4,0.3,2.9,0.6,4.3,1c1,0.2,1.4-0.2,1.7-1.1c3.3-10.4,7.8-20.3,13.5-29.6c0.6-1,0.5-1.5-0.5-2
		c-2-1.1-2.2-3.1-2.8-4.9c-0.1-0.3-0.2-0.7,0.1-0.8c0.2-0.1,0.6,0,0.8,0.1c1.2,0.6,2.3,1.5,3.2,2.4c1,1,1.8,0.8,2.5-0.3
		c2.6-3.7,5.1-7.5,8-10.9c0.7-0.8,0.7-1.4-0.1-2c-1.9-1.3-1.9-3.5-2.3-5.4c-0.1-0.3-0.1-0.6,0.2-0.8c0.3-0.2,0.6,0.1,0.8,0.3
		c0.9,0.9,1.9,1.8,2.7,2.7c1,1.2,1.7,1.2,2.8,0.1c3.1-3.3,5.9-6.7,9.4-9.6c0.9-0.7,1-1.3,0.2-2.1c-1.5-1.4-1.2-3.4-1.4-5.2
		c0-0.4-0.1-1,0.4-1.2c0.5-0.2,0.8,0.3,1,0.6c0.8,1,1.5,1.9,2.2,3c0.7,1.2,1.5,1.3,2.5,0.4c5.7-4.8,11.7-9.3,18-13.2
		c0.9-0.5,1.1-0.9,0.3-1.8c-1.5-1.7-2.9-3.5-4.3-5.2c-0.2-0.3-0.5-0.6-0.8-0.8C1197.9,104.6,1197.3,103.1,1197.9,99.3z"/>
	<path class="st0" d="M1309.9,78.2c0,4.8-0.8,9.6-1.2,14.5c-0.1,1.2,0.3,2,1.5,2.3c2.4,0.5,4.8,1.1,7.2,1.6c0.4-1.4-0.1-2.6-0.4-3.8
		c-0.3-1.2,1.6-4.5,2.8-4.8c0.6-0.2,0.6,0.4,0.8,0.8c0.9,2.3,1.3,4.7,0.6,7.2c-0.7,2.6-1.9,5-3,7.5c-0.4,0.8-1.1,1.1-2,0.9
		c-2.8-0.7-5.6-1.3-8.4-1.9c-2-0.5-2.4-2.1-2.5-3.9c-0.2,0.1-0.4,0.1-0.5,0.2c-1,2.8-3.1,2.8-5.5,2.4c-13.3-1.8-26.5-1.5-39.7,0.7
		c-0.8,0.1-1.6,0.1-2.5,0c-1.2-0.2-2.6-0.7-3.8,0.7c-0.6,0.7-1.9,1-2.9,0.8c-0.9-0.2-1.4-0.1-2.1,0.5c-0.6,0.5-1.6,1-2.3,1
		c-1.8-0.1-1.7,0.9-1.5,2.1c0,0.4,0,0.9,0.1,1.3c1.3,5.8-5.4,8.6-9.2,7.4c-1.8-0.5-2.8-1.9-3.4-3.6c-1-2.8-0.9-6.7,0.3-9.8
		c0.5,0.6,0.3,1.3,0.3,1.9c0.1,2,0,4.2,2.2,5.3c2.2,1.1,4.1,0,5.9-1.1c2.3-1.4,2.4-1.9,0.9-4.2c-0.2-0.3-0.3-0.7-0.6-0.9
		c-3.1-2.6-1.7-5.7-1.4-8.9c1.1,0.5,1.6,1.4,2.2,2.1c1,1.2,2.1,1.2,3.5,0.9c1.4-0.3,1.7-1.3,1.7-2.5c0-1.2,0.2-2.2,1.4-3
		c0.1,0.7,0.1,1.2,0.2,1.7c0.2,1-0.3,2.5,1.6,2.3c1.5-0.1,1.9-1.2,1.7-2.5c-0.2-1.6,0.6-2.6,1.6-3.7c0.7,1,0.5,2.1,0.8,3
		c0.3,1.1,0.9,1.5,2.1,1.5c12.2-0.7,24.3-2.5,36.5-1.3c3.7,0.4,7.3,0.7,10.9,1.3c1.1,0.2,1.4-0.1,1.5-1.1c0.3-2.7,0.8-5.3,0.9-8
		C1306.2,81.7,1307.8,79.9,1309.9,78.2L1309.9,78.2z"/>
	<path class="st0" d="M1404.5,159.2c1-1.3,0.4-2.3-0.1-3.2c-0.5-0.9-0.2-1.2,0.7-1.5c3.7-1.1,6.9,0.7,7.7,4.5
		c0.7,3.1-0.5,4.7-4.8,5.9c0.8,1.4,1.6,2.9,2.5,4.3c0.5,0.9,1.5,0.9,2.4,1c2.3,0.1,4.7,0.2,6.6,1.7c1.8,1.4,1.9,2.5,0.3,4.1
		c-2.9,2.8-6,4.8-10.3,4.1c-1.2-0.2-1.9-0.4-1.6-1.9c0.3-1.3,0.3-2.7,0.5-4c0.2-1.1-0.2-1.3-1.1-1.2c-2.6,0.4-4.3-0.9-5.4-3.2
		c-0.2-0.5-0.6-0.9-0.9-1.4c-0.9-1.4-1.9-2.7-0.2-4.5c-2.5,0.6-3.2-1.1-4.1-2.5c-6.5-9.7-14-18.6-22.8-26.3
		c-3.1-2.7-4.7-5.5-2.3-9.4c-0.2-0.1-0.3-0.3-0.4-0.2c-1.2,0.5-2.3,1.5-3.8,0.7c-2-1.1-3.4-2.8-4.6-4.7c-0.2-0.4-0.2-0.9,0.2-1.2
		c2-1.6,3.7-3.8,6.8-3.2c1.2,0.2,2.4,0.1,3.7,0.2c1.4,0.1,2.6,0.3,3.5-1.3c0.7-1.1,2.5-1.3,4.1-1.8c-0.7,2.5-1.9,4.5-3,6.4
		c-2.9,5-3,5.1,1.1,8.9c8.3,7.6,15.6,16.1,22.2,25.1C1402.6,156.1,1403.5,157.6,1404.5,159.2z M1374.8,119.6
		c-1.7,0.5-3.1,0.1-4.6,0.3c1,1,1.8,2.2,3.1,2C1374.2,121.9,1374.3,120.8,1374.8,119.6z M1414.6,175.7c1-0.9,2-1.2,1.7-2.3
		c-0.1-0.4-0.5-0.8-0.8-0.6C1414.7,173.3,1414.9,174.4,1414.6,175.7z"/>
	<path class="st0" d="M1211.7,366.2c0.3-1.5-0.9-2-1.8-2.6c-0.9-0.6-0.9-1-0.2-1.6c1.4-1.2,2.4-3.1,5-2.1c2.7,1,5.3,2,6,5.2
		c0.3,1.1,0,2-0.8,2.8c-0.5,0.6-1.2,1-1.6,1.8c1.5,1.2,3.5,1.5,5.2,2.3c0.5,0.2,0.9,0.1,1-0.6c0.5-2.4,1-4.8,1.5-7.2
		c0.1-0.3,0-0.6,0.1-0.9c0-1.1-0.9-2.2,0-3.2c1.1-1.4,2.5-2.4,4.4-3.3c-0.7,2.3,0.4,4.1,1.1,5.9c0.4,1,0.2,1.6-0.6,2.3
		c-3.6,3-4.1,5.9-1.6,10.1c0.4,0.7,0.7,1.5,0.4,2.3c-0.7,1.9-1.6,3.7-2.8,5.3c-0.2,0.3-0.8,1.1-1.1,0.4c-1.4-3.7-5-3.8-7.9-5
		c-1.9-0.8-3.7-1.9-5.6-2.7c-1.3-0.6-0.8-1.9-1.3-3c-1.6,1.5-3.1,0.9-4.7,0c-1.6-0.9-3.3-1.9-4.9-2.8c-2.3-1.3-3.8-2.9-2.6-5.9
		c-0.4,0-0.6,0-0.7,0.1c-2.4,2.6-4.5,1.1-6.4-0.6c-1.6-1.5-2.8-1.5-4.7-0.3c-3.6,2.4-5.6,1.9-8.4-1.3c-1.2-1.4-2.4-2.8-2.8-5.1
		c3.3,3,6.8,4.2,11,3c-0.1-0.2-0.1-0.4-0.2-0.5c-3-2.6-3.1-4.4-0.2-7.1c2-1.9,4.3-3.4,7-4.2c2.5-0.7,3.6,0.4,3.3,2.9
		c-0.2,1.5-0.9,2.9-1.5,4.3c-0.2,0.4-0.6,0.8,0,1.3c1.4,1.2,3,2.1,4.6,3c0.7,0.4,0.8-0.4,1-0.7c1.2-2,2.5-4,3.3-6.1
		c1.3-3.2,3.7-4.6,6.9-5.7c-0.1,0.9-0.6,1.5-0.9,2.2c-1.9,3.6-3.8,7.2-5.7,10.7c-0.7,1.3-0.6,2.3,0.7,3.1
		C1207.2,364.1,1209.3,365.5,1211.7,366.2c0.1,0.1,0,0.3,0.2,0.1C1211.8,366.2,1211.7,366.2,1211.7,366.2z M1192.4,353.9
		c0-1.1,0.7-2.1-0.5-2.8c-0.4-0.2-1.2-0.2-1.3,0.3C1190.5,352.7,1191.4,353.2,1192.4,353.9z"/>
	<path class="st0" d="M1164.8,291.7c-4.8,2.3-9,4.4-13.4,6.4c-1.5,0.7-1.8,1.4-1.1,2.9c5.3,11.9,12,22.9,20.5,32.7
		c1.1,1.3,2.2,2.7,3.3,4c1.4,1.6,2.8,2.7,5.2,1.8c2.1-0.8,4.4-1.1,6.6-0.2c2.1,0.8,2.5,1.8,1.6,3.9c-1.8,3.9-4.3,6.8-8.8,7.4
		c-1.2,0.2-1.5-0.1-1.7-1.2c-0.3-1.5-0.8-3-1-4.5c-0.2-1-0.7-1.2-1.5-0.8c-2.8,1.4-4.7,0.2-6.6-2c-6.8-7.9-13.1-16.2-18.2-25.3
		c-3-5.4-5.8-10.9-7.9-16.7c-0.4-1-0.2-1.5,0.8-1.9c5-2.4,10-4.8,15.1-7.2c0.7-0.4,1.5-0.5,2.3-0.3
		C1161.4,291,1162.9,291.2,1164.8,291.7z M1182.6,343.9c0.6-0.2,0.7-0.8,0.9-1.3c0.3-0.5,0-1-0.5-1.2c-0.2-0.1-0.6-0.2-0.8-0.1
		c-0.5,0.3-0.2,0.7-0.1,1.1C1182.3,342.9,1182.1,343.5,1182.6,343.9z"/>
	<path class="st0" d="M1346.6,104.7c1.9,0.1,3.8-0.5,5.6-0.5c1.2-0.1,2.3-0.2,3.5-0.2c2.5,0,4,1.1,4.7,3.3c0.7,2.2,0.1,4-1.8,5.4
		c-2,1.5-4,2.9-6.3,3.7c-1.9,0.7-3.7,0.6-5.5-0.3c-3.4-1.9-6.8-3.8-10.5-5.2c-0.9-0.4-1.4-0.3-1.9,0.4c-1.2,1.4-2.5,2.7-4.2,3.6
		c-1.8,1-3,0.8-4.5-0.6c-1.4-1.4-2.7-3-3.5-4.9c-0.1-0.3-0.4-0.7,0-1c0.3-0.2,0.6,0.1,0.8,0.3c3.3,2.2,6.9,1.9,9.9-0.7
		c0.6-0.6,1-1.2,1-2.1c0-0.7-0.1-1.3-0.2-2c-0.4-3.1,0.2-4.2,2.8-5.7c0.7-0.4,0.9-0.1,1,0.4c0.2,0.6,0.4,1.2,0.4,1.8
		c0,3,2.1,3.9,4.5,4.7c0.8,0.3,1.2-0.1,1.4-0.8c1-3.5,3.1-6.6,3.4-10.4c0.1-1.7,2.1-2.3,3.7-3.5c-0.5,2.1,0.2,3.7,1,5.1
		c0.6,1.1,0.5,1.8-0.6,2.3C1348.6,99.2,1348,102.2,1346.6,104.7c-0.1,0-0.2,0-0.3,0c0,0.1,0,0.1,0,0.2
		C1346.5,104.8,1346.6,104.8,1346.6,104.7z M1346.8,106.9c2.2,1.6,4.5,3,7,3.9c0.5,0.2,1.2,0.4,1.5-0.1c0.3-0.4,0-0.9-0.2-1.4
		c-0.6-1.5-1.8-2.3-3.4-2.4C1350.1,106.9,1348.4,106.9,1346.8,106.9z"/>
	<path class="st0" d="M1413.3,184.2c0.1,0,0.2,0,0.3-0.1c0.2-0.1,0.3-0.2,0.5-0.3c0.1,0,0.2,0,0.3-0.1c0.3,0,0.5,0,0.7-0.3
		c0.3-0.1,0.5-0.3,0.8-0.4c0.6,0,1.1-0.3,1.5-0.7c0.1,0,0.2-0.1,0.3-0.1c0.1-0.1,0.3-0.2,0.4-0.2c0.1,0,0.2,0,0.3-0.1
		c0.2-0.1,0.3-0.2,0.5-0.2c0.1,0,0.2,0,0.3-0.1c0.8-0.2,1.6-0.5,2.2-1c0,0,0,0,0,0c0.3,0,0.6,0,0.7-0.3c0,0,0,0,0,0
		c0.6-0.1,1.1-0.3,1.5-0.7c0.1,0,0.2,0,0.3-0.1c0.2-0.1,0.3-0.2,0.5-0.2c0.1,0,0.2,0,0.3-0.1c0.3,0,0.5-0.1,0.7-0.3c0,0,0.1,0,0.1,0
		c0.7-0.3,1.5-0.5,2.2-0.8c0.4,0,0.7,0.1,1.1,0.1c0.3,0.3,0.7,0.3,1.1,0.2c0.2,0,0.5,0.1,0.7,0.1c0.5,0.4,1.2,0.4,1.8,0.4
		c0.2,0.2,0.5,0.4,0.3,0.7c-0.3,0-0.5,0.1-0.7,0.3c-0.1,0-0.2,0.1-0.4,0.1c-0.1,0.1-0.3,0.2-0.4,0.2c-0.1,0-0.2,0-0.3,0.1
		c-0.2,0.1-0.3,0.2-0.5,0.2c-0.1,0-0.2,0-0.2,0.1c-0.8,0.2-1.6,0.5-2.3,1c-0.1,0-0.2,0-0.3,0.1c-0.2,0-0.4,0-0.4,0.2c0,0,0,0,0,0
		c-1.5,0.4-2.8,1.1-4.1,1.9c-0.1,0-0.2,0-0.3,0.1c-0.2,0.1-0.3,0.2-0.5,0.2c-0.1,0-0.2,0-0.3,0.1c-0.3,0-0.5,0-0.7,0.3
		c0,0-0.1,0-0.1,0c-0.6,0.1-1.1,0.2-1.4,0.7c0,0,0,0,0,0c-1.5,0.3-2.3,1-1.1,2.5c0,0,0,0,0,0c0,0.3,0,0.6,0.3,0.8
		c0.2,0.2,0.3,0.4,0.5,0.7c-0.1,0.3,0,0.6,0.2,0.8c0,0.2,0.1,0.5,0.1,0.7c-0.1,0.3,0,0.6,0.3,0.7c0,0.1,0,0.2,0.1,0.3
		c0,0.8,0.2,1.6,0.6,2.3c0,0.1,0,0.2,0.1,0.3c0,1.2,0.5,2.1,1.1,3c0.4,0.5,0.9,0.5,0.9-0.2c0-1.8,0.6-3.6-0.7-5.3c0,0,0-0.1,0-0.1
		c-0.1-0.7-0.5-1.1-1-1.5c0.1-0.4,0.3-0.6,0.7-0.8c1.2,0,2.4,0,3.7,0.1c0.2,0,0.4,0.1,0.7,0.1c0.2,0.3,0.5,0.3,0.8,0.2
		c0.1,0,0.3,0.1,0.4,0.1c0.7,0.6,1.4,1.3,2.1,1.9c0.5,2.5-0.2,4.7-1.2,6.9c-0.9,2.2-1.6,4.4-0.7,6.7c0.3,0.9,0.1,1.5-1,1.2
		c-1.5-0.3-3.1,0-4.5-0.7c-0.1-0.8-0.2-1.5-0.7-2.2c0,0,0,0,0,0c0-0.3,0-0.6-0.3-0.8c0-0.1,0-0.2-0.1-0.3c-0.1-0.1-0.2-0.3-0.3-0.4
		c0-0.1,0-0.2-0.2-0.3c0-0.2-0.1-0.3-0.3-0.3c0,0,0,0,0,0c-0.3-0.6-0.7-1-1.4-1.2c0,0,0,0,0,0c-0.7-0.9-1.6-1.2-2.6-1.4c0,0,0,0,0,0
		c-0.1-0.3-0.4-0.4-0.7-0.4c0,0,0,0,0,0c-0.1-0.1-0.2-0.2-0.4-0.2c-0.1-0.1-0.2-0.1-0.3-0.2c-0.1-0.1-0.3-0.2-0.4-0.3c0,0,0,0,0,0
		c-0.1-0.1-0.2-0.2-0.4-0.3c0,0,0,0,0,0c-0.1-0.1-0.2-0.3-0.3-0.4c-0.1-0.2-0.3-0.5-0.4-0.7c-0.1-0.7-0.2-1.4-0.6-1.9
		c0-0.1,0-0.2-0.1-0.3c0.1-0.7-0.2-1.3-0.7-1.8c0,0,0,0,0,0c-0.3-1.3-0.7-2.6-1.4-3.7c0,0,0,0,0,0c0-0.7-0.3-1.3-0.7-1.9
		c0-0.1,0-0.2-0.1-0.3c0.1-0.1,0-0.2-0.1-0.3c0-0.2,0.1-0.3,0.1-0.5c0.1-0.1,0.2-0.2,0.3-0.3c0,0,0.1,0,0.1,0
		c0.2-0.1,0.4-0.2,0.5-0.3c0.1,0,0.1,0,0.2-0.1c0.3,0,0.6,0,0.7-0.4c0,0,0,0,0,0c0.3,0,0.6,0,0.8-0.3c0.1,0,0.2,0,0.3-0.1
		C1413,184.3,1413.2,184.3,1413.3,184.2z"/>
	<path class="st0" d="M1149.6,268.5c-1.6,0.7-3,0.4-4.2,0.6c-2.9,0.4-3.9,1.7-3.3,4.6c0.8,3.8,1.8,7.6,2.6,11.4
		c0.2,1.1,0.6,1.4,1.5,0.7c0.3-0.2,0.7-0.4,0.9-0.7c1.8-2.7,4.1-1.5,6.3-0.8c1,0.3,0.8,0.7,0.3,1.3c-2,2.3-4.5,3.9-7.5,4.2
		c-2.1,0.2-4.1,0.3-6.2,0.3c-1.3,0.1-2-0.5-2.3-1.8c-1-4.7-2.2-9.3-3.2-13.9c-0.6-3,0.4-5,3.4-6.1
		C1141.6,267,1145.4,267.2,1149.6,268.5z"/>
	<path class="st0" d="M1232.6,383.6c1.2-5.9,2.1-11.5,3.5-16.9c0.6-2.4,2.9-4,5-6c-0.6,4.6-1.4,8.7-2.4,12.8
		c-0.5,1.8-0.8,3.6-1.6,5.3C1236.2,380.7,1234.9,382.4,1232.6,383.6z"/>
	<path class="st0" d="M1322.2,105.7c0.6-3.5,1.2-6.7,1.8-9.8c0.3-1.6,0.8-3.1,0.9-4.7c0.2-3.6,2.7-5.7,5.1-8.5
		c-0.2,3.4-0.8,6.2-1.4,9.1c-0.6,2.9-1.1,5.9-2.2,8.7C1325.7,102.5,1324.6,104.3,1322.2,105.7z"/>
	<path class="st0" d="M1418.2,321c-0.8,0.1-1-0.3-1.1-0.6c-0.3-0.7-0.5-1.4-0.9-2c-0.7-1.2-0.4-2.1,1-2.5c1.8-0.5,2.5-1.5,1.4-3.3
		c-0.4-0.6-0.3-1.2,0.6-1.4c0.3-0.1,0.7-0.3,1-0.4c0.9-0.3,1.9-1.6,2.5-1c0.8,0.8,1.2,2.2,1.5,3.4c0.3,1-0.8,1.3-1.5,1.6
		c-1.5,0.7-2.3,1.5-1.3,3.2c0.4,0.6,0.2,1-0.4,1.4C1420,319.9,1419,320.6,1418.2,321z"/>
	<path class="st0" d="M1335.5,361.2c-0.6-0.1-1.3-0.1-1.8-0.3c-1.1-0.4-1.8,0-2,1.1c-0.2,1.2-0.8,1.7-2,1.3
		c-0.6-0.2-1.2-0.3-1.8-0.4c-1.4-0.1-1.6-0.8-1.1-2c0.1-0.2,0.1-0.4,0.2-0.5c0.8-2.6,0.9-2.7,3.5-1.8c1.4,0.5,2,0.2,2.2-1.3
		c0.2-1.3,0.9-1.8,2.1-1.1c0.1,0,0.1,0,0.2,0c3.4,0.9,3.4,1,2,4.2C1336.5,361,1336.2,361.5,1335.5,361.2z"/>
	<path class="st0" d="M1317.8,395.4c-0.4-0.1-0.8-0.2-1.1-0.3c-1.6-0.8-3-1.3-3.8,1c-0.2,0.5-0.5,0.5-1.1,0.4
		c-3.8-0.7-4.2-1.8-2.1-5c0.5-0.8,1-0.9,1.7-0.5c0.5,0.3,1.2,0.4,1.7,0.8c0.8,0.5,1.3,0.3,1.7-0.6c0.6-1.8,1.6-1.7,3.1-0.9
		c2.4,1.4,2.5,1.2,1.1,3.7C1318.7,394.6,1318.6,395.3,1317.8,395.4z"/>
	<path class="st0" d="M1260.8,366.8c-0.4,1.2-1.1,1.5-1.6,2c-1.2,1.4-2.4,1.6-3.7,0c-0.9-1.2-1.9-1.5-3-0.2c-0.6,0.7-1.2,0.5-1.9,0
		c-2.9-2.3-2.7-3.8,0.6-5.4c0.5-0.2,0.8-0.2,1.1,0.2c0.5,0.5,1,0.9,1.4,1.5c0.7,1,1.4,1,2.2,0.1c1.1-1.3,1.9-0.9,2.9,0.3
		C1259.3,365.9,1260.2,366.4,1260.8,366.8z"/>
	<path class="st0" d="M1365.5,342c0.6,2-0.9,2.4-2.6,2.4c-1.3,0-2.1,0.3-1.9,1.8c0.2,1.2-0.6,1.5-1.6,1.6c-3.5,0.3-3.7,0.1-3.3-3.4
		c0.1-1.2,0.6-1.6,1.7-1.5c0.5,0,1-0.1,1.5,0c1.1,0.1,1.5-0.4,1.3-1.4c-0.2-1.7,0.6-2.3,2.2-2c0.2,0,0.5,0,0.7,0
		C1365.7,339.4,1365.7,339.4,1365.5,342z"/>
	<path class="st0" d="M1197,137.8c0.5,1.8-0.3,2.4-1.9,2.4c-1.4,0-2.3,0.5-1.9,2.2c0.2,1.1-0.6,1.2-1.5,1.4
		c-3.1,0.5-4.2-0.8-3.5-3.9c0.2-0.9,0.8-0.6,1.3-0.7c1.8-0.1,3.3-0.2,2.7-2.7c-0.1-0.3-0.1-0.8,0.4-0.8c1.3-0.1,2.6-0.5,3.8-0.2
		C1197.5,135.7,1196.7,137,1197,137.8z"/>
	<path class="st0" d="M1375.8,110.2c-0.6-0.1-1.5,0.8-2-0.1c-0.6-1.1-1-2.4-1.1-3.7c0-0.4,0.4-0.6,0.7-0.7c0.7-0.2,1.5-0.3,2.1-0.5
		c1.4-0.5,1.9,0,2.1,1.3c0.2,1.7,0.9,2.6,2.7,1.8c0.8-0.3,1.3,0,1.3,1c0,0.2,0.1,0.5,0.1,0.7c0.1,0.9,1.1,1.9,0.4,2.6
		c-0.8,0.9-2.2,0.9-3.4,1c-1.4,0.1-1.1-1.4-1.5-2.1C1376.9,110.9,1377,109.9,1375.8,110.2z"/>
	<path class="st0" d="M1173.5,166c0,1.3-1,1.4-1.7,1.6c-1.3,0.5-2.2,1-1.3,2.6c0.5,0.8,0,1.3-0.8,1.7c-0.7,0.3-1.3,0.6-2,0.9
		c-0.8,0.4-1.4,0.3-1.7-0.7c-0.1-0.3-0.3-0.7-0.4-1c-0.8-2.4-0.9-2.5,1.5-3.3c1.3-0.4,1.6-1,1-2.2c-0.5-1-0.4-1.7,0.9-1.9
		c0.2,0,0.5-0.1,0.7-0.2c0.8-0.3,1.9-1.2,2.3-0.7C1172.8,163.6,1173.1,165,1173.5,166z"/>
	<path class="st0" d="M1346.4,355.4c-1.4-0.6-2.1,0-2.3,1.5c-0.2,1.7-1.6,1-2.5,1c-0.7,0-2,0.2-2.1-0.6c-0.2-1.2,0.1-2.6,0.7-3.7
		c0.3-0.5,1-0.1,1.5,0c1.6,0.3,2.8,0.1,2.9-1.9c0.1-0.8,0.5-1.2,1.4-1c0.2,0.1,0.5,0.1,0.7,0.1c2.9,0.3,2.8,0.3,2.4,3.1
		C1348.9,355.9,1347.6,355.3,1346.4,355.4z"/>
	<path class="st0" d="M1155.4,269.6c1.1,0.6,2.2,1.1,3.2,1.7c0.6,0.4,0.1,0.9-0.1,1.3c-0.9,1.7-1.1,3.1,1.1,3.9
		c0.6,0.2,0.8,0.7,0.4,1.3c-0.1,0.2-0.2,0.4-0.3,0.7c-1.2,2.9-1.6,3-4.3,1.3c-1-0.7-0.5-1.5-0.2-2.1c0.7-1.5,1-2.7-1-3.6
		c-1.2-0.5-0.1-1.7,0.1-2.6C1154.4,270.7,1154.6,269.9,1155.4,269.6z"/>
	<path class="st0" d="M1219.4,114.9c-0.8-0.3-0.8-1.1-1.2-1.7c-1.1-1.5-1-2.5,1-3.1c1.8-0.6,3.4-1.5,5.1-2.4
		c1.1-0.6,1.7-0.4,2.1,0.8c0.1,0.4,0.3,0.8,0.5,1.2c0.7,1.1,0.5,1.7-0.7,2.2c-2,0.8-3.9,1.8-5.8,2.7
		C1220.1,114.6,1219.7,114.7,1219.4,114.9z"/>
	<path class="st1" d="M1417,286.4c1.6-5.8,2.4-11.7,3.2-17.6c0.2-1.6,0.5-3.3,2.5-4.1c0.1,1.7-0.4,3.2-0.7,4.7
		c-1.5,7.5-3,15-4.4,22.4c-0.2,0.9-0.4,1.4-1.4,1.1c1-1.6,1.2-3.5,1.7-5.3C1418.1,286.9,1418,286.3,1417,286.4z"/>
	<path class="st0" d="M1320.3,367.7c-1.4,0-3.8-1.3-3.5-1.9c0.6-1.3,0.8-3.5,2.1-3.7c1.2-0.2,2.9,1,4,2
		C1323.4,364.4,1321,367.7,1320.3,367.7z"/>
	<path class="st0" d="M1179.2,156.2c-1.5,0-2.4-1.2-2.1-3.8c0.3-2,2.6-1.2,3.7-1.3c1.8,0,1.2,2.2,1.3,3.3
		C1182.2,156.5,1180,155.6,1179.2,156.2z"/>
	<path class="st0" d="M1406.6,200.7c0.5-1,0.3-2.7,2-3c0.9-0.2,3.9,1.8,3.7,2.1c-1,1.1-0.7,3.2-2.3,3.6
		C1408.7,203.8,1406.5,201.8,1406.6,200.7z"/>
	<path class="st0" d="M1312.5,111.5c-0.6,0-2.8-2.4-2.8-3.2c0-0.3,3.1-3,3.3-2.8c1.1,1.1,2,2.3,2.9,3.5
		C1316.1,109.2,1312.9,111.5,1312.5,111.5z"/>
	<path class="st1" d="M1422.4,191.9c1.2,1.6,0.7,3.5,0.7,5.3c0,0.8-0.5,0.8-0.9,0.2c-0.6-0.9-1.2-1.9-1.1-3c1,0.3,1.6,0.3,1.4-1.1
		C1422.4,192.9,1422.4,192.4,1422.4,191.9z"/>
	<path class="st1" d="M1404.8,271.7c-0.3,1.9,0.6,3.7,0.7,5.5c-0.8-0.9-1.5-4.4-1-5.6c0,0,0.2,0,0.2,0L1404.8,271.7L1404.8,271.7z"
		/>
	<path class="st1" d="M1423.1,183.7c1.3-0.8,2.6-1.5,4.1-1.9C1426.1,183.1,1424.8,184,1423.1,183.7z"/>
	<path class="st1" d="M1425.7,189.6c-1.2,0-2.4,0-3.7-0.1C1423.3,188.5,1424.5,188.6,1425.7,189.6z"/>
	<path class="st1" d="M1410.7,188.9c0.7,1.1,1.2,2.4,1.4,3.7C1410.8,191.7,1410.8,190.3,1410.7,188.9z"/>
	<path class="st1" d="M1415.1,289.7c0.9-0.8,1.2-1.9,1.8-2.9C1416.8,288.1,1417.1,289.6,1415.1,289.7z"/>
	<path class="st1" d="M1418.7,187.8c-1.2-1.5-0.4-2.2,1.1-2.5C1419.6,186.1,1418.5,186.7,1418.7,187.8z"/>
	<path class="st1" d="M1429.7,191.9c-0.7-0.6-1.4-1.3-2.1-1.9C1428.9,189.9,1429.9,190.3,1429.7,191.9z"/>
	<path class="st1" d="M1416.5,199.2c1,0.3,1.9,0.6,2.6,1.4C1418,200.6,1417,200.4,1416.5,199.2z"/>
	<path class="st1" d="M1427.5,177.8c-0.7,0.3-1.5,0.5-2.2,0.8C1425.7,177.2,1426.6,177.4,1427.5,177.8z"/>
	<path class="st1" d="M1412.2,288.9c0.8,0.3,1.7,0.6,2.5,0.8C1413.6,290.3,1412.6,290.3,1412.2,288.9z"/>
	<path class="st1" d="M1427.9,181.5c0.7-0.5,1.4-0.9,2.3-1C1429.8,181.7,1428.8,181.6,1427.9,181.5z"/>
	<path class="st1" d="M1421.3,180.5c-0.6,0.6-1.4,0.9-2.2,1C1419.5,180.4,1420.4,180.5,1421.3,180.5z"/>
	<path class="st1" d="M1420.9,194.1c-0.4-0.7-0.6-1.5-0.6-2.3C1421.5,192.3,1420.7,193.4,1420.9,194.1z"/>
	<path class="st1" d="M1421.7,204c0.5,0.6,0.6,1.4,0.7,2.2C1421.2,205.8,1421.9,204.8,1421.7,204z"/>
	<path class="st1" d="M1407.4,282.2c0.5,0.5,0.8,1.2,1,1.9C1407.4,283.9,1407.3,283.1,1407.4,282.2z"/>
	<path class="st1" d="M1432.3,178.6c-0.6,0-1.3,0.1-1.8-0.4C1431.3,177.5,1431.8,178.2,1432.3,178.6z"/>
	<path class="st1" d="M1412.1,192.6c0.5,0.5,0.8,1.1,0.7,1.8C1411.7,194.2,1412.3,193.2,1412.1,192.6z"/>
	<path class="st1" d="M1419.2,200.6c0.6,0.2,1.1,0.6,1.4,1.2C1419.7,201.8,1419.1,201.6,1419.2,200.6z"/>
	<path class="st1" d="M1410,187c0.4,0.5,0.7,1.2,0.7,1.9C1409.4,188.7,1410.1,187.7,1410,187z"/>
	<path class="st1" d="M1421.4,190.3c0.5,0.4,0.9,0.8,1,1.5C1421.4,191.8,1421.2,191.1,1421.4,190.3z"/>
	<path class="st1" d="M1412.9,194.7c0.4,0.6,0.5,1.3,0.6,1.9C1412.4,196.3,1413,195.4,1412.9,194.7z"/>
	<path class="st1" d="M1405.5,277.5c0.4,0.6,0.6,1.2,0.6,1.9C1405.1,279.1,1405.6,278.2,1405.5,277.5z"/>
	<path class="st1" d="M1417.3,182.3c-0.4,0.4-0.9,0.7-1.5,0.7C1415.9,182,1416.7,182.4,1417.3,182.3z"/>
	<path class="st1" d="M1406.3,279.7c0.4,0.4,0.6,1,0.6,1.5C1405.9,281,1406.3,280.3,1406.3,279.7z"/>
	<path class="st1" d="M1429.8,178.2c-0.4,0.1-0.8,0.1-1.1-0.2C1429.2,177.3,1429.6,177.4,1429.8,178.2z"/>
	<path class="st1" d="M1419.9,185.2c0.4-0.4,0.9-0.6,1.4-0.7C1421.2,185.5,1420.4,185.2,1419.9,185.2z"/>
	<path class="st1" d="M1423.6,179.4c-0.4,0.4-0.9,0.6-1.5,0.7C1422.2,179,1423,179.4,1423.6,179.4z"/>
	<path class="st1" d="M1419.8,190c-0.3-0.2-0.3-0.5-0.2-0.8C1420.1,189.4,1420.4,189.6,1419.8,190z"/>
	<path class="st1" d="M1421.4,203.2c0.3,0.2,0.3,0.5,0.3,0.8C1421.3,203.8,1421.3,203.5,1421.4,203.2z"/>
	<path class="st1" d="M1412.6,184.5c-0.2,0.3-0.5,0.3-0.8,0.3C1411.9,184.5,1412.2,184.5,1412.6,184.5z"/>
	<path class="st1" d="M1425.3,178.6c-0.1,0.3-0.4,0.4-0.7,0.3C1424.8,178.7,1425,178.6,1425.3,178.6z"/>
	<path class="st1" d="M1411.8,184.9c-0.2,0.3-0.4,0.4-0.7,0.4C1411.2,184.9,1411.4,184.9,1411.8,184.9z"/>
	<path class="st1" d="M1432,179.7c0.1-0.3,0.4-0.4,0.7-0.3C1432.5,179.7,1432.3,179.7,1432,179.7z"/>
	<path class="st1" d="M1421.4,184.5c0.1-0.3,0.4-0.4,0.7-0.3C1421.9,184.5,1421.7,184.5,1421.4,184.5z"/>
	<path class="st1" d="M1420.2,191.5c-0.3-0.2-0.3-0.4-0.3-0.7C1420.2,191,1420.2,191.2,1420.2,191.5z"/>
	<path class="st1" d="M1409.2,285.4c0.3,0.1,0.4,0.3,0.4,0.6C1409.3,285.9,1409.2,285.6,1409.2,285.4z"/>
	<path class="st1" d="M1415.8,198.8c0.3,0,0.6,0.1,0.7,0.4C1416.2,199.2,1416,199.1,1415.8,198.8z"/>
	<path class="st1" d="M1419.1,188.6c-0.3-0.2-0.4-0.5-0.3-0.8C1419.1,188,1419.1,188.3,1419.1,188.6z"/>
	<path class="st1" d="M1427.2,189.9c-0.3,0.1-0.6,0-0.8-0.2C1426.7,189.6,1427,189.7,1427.2,189.9z"/>
	<path class="st1" d="M1422.1,180.1c-0.2,0.3-0.4,0.4-0.7,0.3C1421.5,180.1,1421.7,180.1,1422.1,180.1z"/>
	<path class="st1" d="M1415,183.4c-0.1,0.3-0.4,0.4-0.7,0.3C1414.5,183.4,1414.7,183.4,1415,183.4z"/>
	<path class="st1" d="M1424.4,179c-0.2,0.1-0.3,0.2-0.5,0.2C1424.1,179.2,1424.2,179.1,1424.4,179z"/>
	<path class="st1" d="M1431.2,180c0.1-0.1,0.3-0.2,0.4-0.2C1431.5,179.9,1431.3,180,1431.2,180z"/>
	<path class="st1" d="M1430.4,180.4c0.2-0.1,0.3-0.2,0.5-0.2C1430.7,180.2,1430.5,180.3,1430.4,180.4z"/>
	<path class="st1" d="M1418.9,181.6c-0.2,0.1-0.3,0.2-0.5,0.2C1418.5,181.8,1418.7,181.7,1418.9,181.6z"/>
	<path class="st1" d="M1427.1,181.9c0.1-0.2,0.2-0.3,0.4-0.2C1427.4,181.7,1427.3,181.8,1427.1,181.9z"/>
	<path class="st1" d="M1418.1,182c-0.1,0.1-0.3,0.2-0.4,0.2C1417.8,182.1,1417.9,182,1418.1,182z"/>
	<path class="st1" d="M1414,197.3c0.1,0.1,0.2,0.3,0.3,0.4C1414.2,197.6,1414.1,197.5,1414,197.3z"/>
	<path class="st1" d="M1414.1,183.8c-0.2,0.1-0.3,0.2-0.5,0.3C1413.8,184,1413.9,183.9,1414.1,183.8z"/>
	<path class="st0" d="M1398.9,291.9c0,0-0.1,0-0.1-0.1C1398.8,291.9,1398.8,291.9,1398.9,291.9
		C1398.9,291.9,1398.9,291.9,1398.9,291.9z"/>
	<path class="st1" d="M1422.3,184.1c0.2-0.1,0.3-0.2,0.5-0.2C1422.6,183.9,1422.5,184,1422.3,184.1z"/>
	<path class="st1" d="M1411.8,288.6c0.1,0.1,0.3,0.2,0.4,0.3C1412,288.8,1411.9,288.7,1411.8,288.6z"/>
	<path class="st1" d="M1411.4,288.2c0.1,0.1,0.2,0.2,0.3,0.3C1411.6,288.5,1411.5,288.4,1411.4,288.2z"/>
	<path class="st1" d="M1411,287.9c0.1,0.1,0.2,0.2,0.3,0.3C1411.2,288.1,1411.1,288,1411,287.9z"/>
	<path class="st1" d="M1413.3,184.2c-0.2,0.1-0.3,0.2-0.5,0.2C1413,184.3,1413.2,184.3,1413.3,184.2z"/>
	<path class="st1" d="M1409.9,286.4c0.1,0.1,0.2,0.2,0.3,0.3C1410.1,286.6,1410,286.5,1409.9,286.4z"/>
	<path class="st1" d="M1409.6,286c0.1,0.1,0.2,0.3,0.3,0.4C1409.8,286.3,1409.7,286.1,1409.6,286z"/>
	<path class="st1" d="M1408.8,284.9c0.1,0.1,0.2,0.3,0.3,0.4C1409,285.1,1408.9,285,1408.8,284.9z"/>
	<path class="st1" d="M1407,281.5c0.1,0.1,0.2,0.3,0.2,0.4C1407.2,281.8,1407.1,281.7,1407,281.5z"/>
	<path class="st0" d="M1404.8,271.7l-0.2,0c0,0-0.2,0-0.2,0C1404.6,271.5,1404.7,271.2,1404.8,271.7z"/>
	<path class="st1" d="M1410.8,185.3c-0.2,0.1-0.4,0.2-0.5,0.3C1410.5,185.5,1410.7,185.4,1410.8,185.3z"/>
	<path class="st1" d="M1410.2,185.6c-0.1,0.1-0.2,0.2-0.3,0.3C1410,185.8,1410.1,185.7,1410.2,185.6z"/>
	<path class="st1" d="M1409.8,186.4c0.1,0.1,0.1,0.2,0.1,0.3c-0.1-0.1-0.1-0.1-0.2-0.2C1409.7,186.5,1409.8,186.4,1409.8,186.4z"/>
	<path class="st1" d="M1421,202.5c0.1,0.1,0.2,0.3,0.3,0.4C1421.2,202.7,1421.1,202.6,1421,202.5z"/>
	<path class="st1" d="M1420.6,201.8c0.2,0,0.3,0.1,0.3,0.3C1420.7,202,1420.6,201.9,1420.6,201.8z"/>
	<path class="st1" d="M1415.4,198.6c0.1,0.1,0.2,0.2,0.4,0.2C1415.7,198.7,1415.6,198.7,1415.4,198.6z"/>
	<path class="st1" d="M1414.7,198.1c0.1,0.1,0.3,0.2,0.4,0.3C1415,198.3,1414.8,198.2,1414.7,198.1z"/>
	<path class="st1" d="M1414.3,197.8c0.1,0.1,0.2,0.2,0.4,0.3C1414.6,198,1414.5,197.9,1414.3,197.8z"/>
	<path class="st0" d="M1309.9,78.2c0,0,0-0.1,0.1-0.1C1309.9,78.1,1309.9,78.2,1309.9,78.2C1309.9,78.2,1309.9,78.2,1309.9,78.2z"/>
	<path class="st1" d="M1390.9,194c2.6,6.1,4.5,12.4,5.7,18.9c7.2,38.7-1.8,73.1-28,102.5c-18.1,20.4-41.1,32.6-68,37.1
		c-24.6,4-48.1,0.3-70.6-10.5c-0.4-0.2-0.8-0.5-1.2-0.8c0.6-0.1,1.3-0.3,1.8,0.1c2.6,2,5.4,1.9,8.4,1.3c4.1-0.7,8.2-1,12.2-2.1
		c5.3-1.4,10.7-2.7,16-4.4c5.6-1.9,11.1-4.1,16.5-6.5c4.4-1.9,8.7-4.3,13-6.5c0.9-0.5,2-1,2.2-2.2c4.1,0,8.2-0.1,12.3,0
		c1.2,0,1.6-0.3,1.6-1.5c-0.1-2.4,0-4.9,0.1-7.3c1.2,0.2,2.3-0.3,3.3-1c3.3-2.5,6.6-5.2,10-7.7c3.3-2.5,6.2-5.5,9.4-8.1
		c3.9-3.2,7.4-6.9,10.9-10.6c5.2-5.4,10-11.1,14.5-17.1c3.1-4.2,6.2-8.4,9-12.9c3.3-5.2,6.3-10.7,9.2-16.2c2.6-4.9,4.7-10,6.8-15.1
		c2.3-5.6,3.8-11.4,5.4-17.2c0.9-3.3,1.7-6.6-0.2-9.9C1390.7,195.6,1390.7,194.8,1390.9,194z"/>
	<path class="st1" d="M1165.2,225.7c0.6,1.3,1.9,1.5,3.1,1.8c6.8,1.6,13.7,2.3,20.7,1.8c7-0.4,13.8-1.9,20.5-4c5-1.6,9.8-3.8,14.6-6
		c1.4-0.6,1.9-1.6,1.9-3.2c-0.1-2.8-0.1-5.6,0-8.5c0-1.3,0.1-2.1-1.6-1c-1.3,0.9-2.8,1.5-4.2,2.2c-0.6,0.3-1.1,0.5-1.5-0.3
		c-0.4-0.7-0.3-1.4,0.4-1.7c1.8-0.7,1.2-1.6,0.5-2.8c-0.8-1.4-1.5-2.8-2.2-4.2c-0.5-1-0.9-1.5-1.7-0.2c-0.3,0.5-0.6,1.4-1.3,0.9
		c-0.5-0.3-0.8-1.2-0.4-2c0.7-1.2,1.2-2.5,2.5-3.3c1-0.7,1.4-0.6,1.9,0.5c1.2,2.5,2.6,5,3.9,7.5c0.3,0.6,0.5,1.7,1.5,1.1
		c0.8-0.5,2.4-0.1,2.1-1.9c-0.1-1,0-2,0-2.9c0-0.7,0.1-1.4,1-1.5c-0.1,7.4-0.2,14.8-0.2,22.2c0,31.8,0.1,63.6,0.1,95.3
		c0,1.4-0.5,3.1,1.9,3.2c0.1,0,0.1,0.4,0.1,0.6c-2.7-0.4-2.9-0.7-2.9-3.4c0-6.3,0-12.6,0-18.9c0-1.3-0.2-1.6-1.7-1.3
		c-6.3,1.4-12.5,3.1-18.9,3.8c-5.3,0.6-10.5,1.6-15.8,1.4c-0.9,0-1.8,0-2.7,0.1c-1.3,0.1-2,0.7-1.8,2.1c-3.1-4.2-5.7-8.7-8-13.3
		c-7.2-14.3-11.4-29.5-12.3-45.5C1164.5,237.9,1164.4,231.8,1165.2,225.7z"/>
	<path class="st1" d="M1357.8,147.6c-0.8,0.4-1.4-0.3-2.2-0.7c0,1.2,0.7,2,0.6,3c-0.2,1.5-0.4,2.9-1.8,4c-1.1,0.8-1.6,2-0.7,3.3
		c0.2,0.3,0.4,0.7,0.2,1c-0.9,2.4-1.3,5.1-2.7,7.3c-0.7,1.1-0.8,2.3-1.2,3.4c-0.1,0.2,0,0.6,0.2,0.6c2.2,0.8,1.4,2.6,1.6,4.1
		c-0.3,0-0.4-0.1-0.5-0.4c-0.4-2.5-0.4-2.6-3-2.6c-24.7,0-49.4,0-74.1,0c-5.1,0-10.3,0.1-15.4,0c-1.3,0-1.8,0.4-1.7,1.7
		c0.1,1.5,0.1,2.9,0,4.4c-0.1,1.3,0.2,2,1.7,1.9c0.7-0.1,1.3,0,1.1,1c-3.6-1-3.6-1-3.6-4.8c0-0.7,0-1.3,0-2c0-2.4,0.4-2.8,2.6-3.3
		c-1.2-1.6-3.2-2.2-4.7-3.5c-0.8-0.7-0.8,0.2-0.9,0.7c-0.1,0.6,0.2,1.5-0.9,1.5c-0.9-0.1-1.4-0.7-1.4-1.7c0-0.4,0-0.9,0-1.3
		c0.1-1.2,0.2-2.5,1.3-3.1c1.1-0.6,1.9,0.5,2.7,1.1c2,1.3,4,2.6,6,3.9c0.8,0.5,1.3,0.8,1.8-0.3c0.3-0.7,0.8-1.1,1.6-0.5
		c0.7,0.5,1,1.2,0.4,1.9c-1.3,1.4-0.4,1.5,0.8,1.5c1.8,0,3.7-0.1,5.5,0c1.5,0.1,2.3-0.4,3-1.8c3.8-8,7-16.2,8.7-24.9
		c0.8-4.3,1.7-8.6,1.8-13c0.1-2.7,0.1-5.4,0.3-8c0.1-1.6-0.6-2.1-2-2c-0.1,0-0.1,0-0.2,0c-1,0-2.2-0.3-2.8,0.2
		c-0.7,0.6,0.4,1.5,0.6,2.4c0.6,3.4-1.3,5.8-4.7,5.9c-1.8,0-3.7-0.2-5.4-0.7c-2.9-0.9-3.9-2.2-3.8-5.2c0-1.2-0.1-2-1.5-1.8
		c2.5-0.7,5.2-0.8,7.8-1c24.2-1.8,46.9,3.3,68,15.5c5.4,3.1,10.5,6.6,15.3,10.6C1356.7,146.5,1357.2,147.1,1357.8,147.6z
		 M1274.8,125.6c0.5,0,1,0.1,1.5,0c0.9-0.2,1.8-0.6,1.9-1.7c0.1-1.1-0.7-1.5-1.5-1.8c-2-0.7-4.1-1.1-6.2-0.8
		c-0.9,0.1-1.7,0.5-1.7,1.6c0,1,0.6,1.7,1.5,1.9C1271.7,125.2,1273.2,125.7,1274.8,125.6z"/>
	<path class="st1" d="M1390.9,194c-1-0.3-1.6-1.2-2.8-1.2c-0.6,0-0.7-0.7-0.4-1.3c0.5-1.3-0.3-1.6-1.3-1.8c-1.8-0.2-3.6-0.5-5.4-0.7
		c-1-0.1-1.8-0.1-1.1,1.3c0.3,0.5,0.5,1.1-0.1,1.5c-0.6,0.4-1.2,0-1.6-0.5c-0.1-0.1-0.2-0.2-0.2-0.3c-0.5-1.5-2.3-2.9-1.2-4.7
		c1-1.5,2.6,0,3.9-0.2c1.2-0.1,2.5,0.1,3.6,0.5c1.7,0.6,2.3-0.1,2.1-1.7c0-0.2,0-0.5,0.1-0.7C1388.3,187.2,1389.7,190.6,1390.9,194z
		"/>
	<path class="st1" d="M1216.4,333.9c1.2,0.2,1.8-0.2,1.6-1.5c-0.1-0.6,0-1.2,0-1.8c0.1-1.3,0.1-2.4-1.7-1.4
		c-0.3,0.2-0.6,0.2-0.8-0.1c-0.2-0.5-0.3-1.1,0.1-1.4c1.2-1,2.3-2.2,4-2.3c0.8,0,1.3,0.2,1.3,1.1c0,3.5-0.1,7,0.3,10.4
		C1219.4,336.1,1217.8,335.2,1216.4,333.9z"/>
	<path class="st1" d="M1167.1,213c0.1,0.9,0.1,1.8-0.1,2.7c-0.2,0.9-0.6,1.8,0.8,2.3c0.8,0.3,0.7,1.6,0,1.8c-1.8,0.6-1.7,2-1.7,3.3
		c0,0.6-0.1,1.1-0.7,1.4C1165.5,220.7,1166.1,216.8,1167.1,213z"/>
	<path class="st1" d="M1368.2,157.6c-0.6,0.2-1-0.2-1.4-0.6c-2.6-2.6-5.2-5.3-8.1-7.7c-0.5-0.4-1.1-0.8-0.9-1.7
		C1361.6,150.6,1365,153.9,1368.2,157.6z"/>
	<path class="st1" d="M1372.7,162.8c-1.8-0.4-3.7-2.6-3.9-4.5C1370.3,159.6,1371.5,161.2,1372.7,162.8z"/>
	<path class="st1" d="M1223.4,338.2c1.8,0,3.2,0.5,4,2.3C1226,340,1224.6,339.3,1223.4,338.2z"/>
	<path class="st1" d="M1379.1,171.5c-1.7-0.1-2.1-1.1-1.8-2.6C1378.2,169.6,1378.7,170.5,1379.1,171.5z"/>
	<path class="st1" d="M1193.5,313.7c1.5,0.2,2.3,1,2.3,2.5C1194.9,315.5,1194.1,314.7,1193.5,313.7z"/>
	<path class="st1" d="M1386.5,184.1c-1.8-0.3-1.5-1.6-1.5-2.9C1385.7,182,1386.1,183,1386.5,184.1z"/>
	<path class="st1" d="M1221.1,336.9c1.1,0,2.5-0.7,2.3,1.4C1222.6,337.9,1221.8,337.6,1221.1,336.9z"/>
	<path class="st1" d="M1377.3,168.9c-1.5-0.2-1.9-1.2-1.9-2.5C1376.3,167.1,1376.9,167.9,1377.3,168.9z"/>
	<path class="st1" d="M1374.3,164.9c-1.3,0-1.6-0.8-1.5-1.9C1373.5,163.5,1374.1,164.1,1374.3,164.9z"/>
	<path class="st1" d="M1205.7,325.8c0.9-0.1,1.7-0.1,1.5,1.2C1206.6,326.8,1206.1,326.4,1205.7,325.8z"/>
	<path class="st1" d="M1201.7,322.1c1.1-0.2,1.6,0.3,1.5,1.4C1202.5,323.2,1202,322.8,1201.7,322.1z"/>
	<path class="st1" d="M1382.8,177.4c-1.4,0-1.2-1-1.2-1.9C1382.3,176,1382.6,176.7,1382.8,177.4z"/>
	<path class="st1" d="M1169.4,204c0,0.9,0.1,1.9-0.7,2.6C1168.6,205.6,1168.9,204.8,1169.4,204z"/>
	<path class="st1" d="M1188.4,307.4c1.1-0.1,1.2,0.6,1.1,1.5C1189,308.5,1188.6,308.1,1188.4,307.4z"/>
	<path class="st1" d="M1375.4,166.4c-1.1,0.1-1.3-0.6-1.1-1.4C1374.9,165.3,1375.3,165.7,1375.4,166.4z"/>
	<path class="st1" d="M1191.6,311.5c1.1-0.1,1.4,0.5,1.2,1.4C1192.3,312.6,1191.9,312.1,1191.6,311.5z"/>
	<path class="st1" d="M1185.5,303.4c1.2,0,1.2,0.7,1.1,1.6C1186.1,304.5,1185.6,304,1185.5,303.4z"/>
	<path class="st1" d="M1203.2,323.5c0.9-0.1,1.5,0.2,1.4,1.3C1204,324.6,1203.5,324.1,1203.2,323.5z"/>
	<path class="st1" d="M1212.3,331c1-0.2,1.6,0,1.5,1.1C1213.2,331.9,1212.7,331.6,1212.3,331z"/>
	<path class="st1" d="M1207.9,327.6c0.9-0.1,1.6,0.1,1.5,1.2C1208.8,328.6,1208.3,328.2,1207.9,327.6z"/>
	<path class="st1" d="M1384.3,180c-1.2,0.1-0.8-0.8-0.8-1.4C1384,178.9,1384.2,179.4,1384.3,180z"/>
	<path class="st1" d="M1196.2,316.6c1-0.2,1.3,0.3,1.1,1.2C1196.8,317.5,1196.4,317.1,1196.2,316.6z"/>
	<path class="st1" d="M1200.1,320.7c0.9-0.2,1.4,0.1,1.2,1.1C1200.7,321.6,1200.4,321.1,1200.1,320.7z"/>
	<path class="st1" d="M1209.8,329.1c0.6,0,1.2-0.1,1.1,0.8C1210.3,329.8,1210,329.5,1209.8,329.1z"/>
	<path class="st1" d="M1211.3,330.2c0.6,0,1.2-0.1,1,0.8C1211.8,330.9,1211.4,330.6,1211.3,330.2z"/>
	<path class="st1" d="M1380.6,173.8c-0.9,0.1-0.9-0.5-0.7-1.1C1380.3,172.9,1380.5,173.3,1380.6,173.8z"/>
	<path class="st1" d="M1214.2,332.4c0.6,0,1.2-0.1,1.1,0.8C1214.8,333.1,1214.4,332.8,1214.2,332.4z"/>
	<path class="st1" d="M1215.3,333.1c0.6-0.1,1.2-0.1,1.1,0.8C1215.9,333.8,1215.5,333.6,1215.3,333.1z"/>
	<path class="st1" d="M1379.9,172.6c-0.9,0.1-0.8-0.5-0.8-1.1C1379.5,171.8,1379.8,172.2,1379.9,172.6z"/>
	<path class="st1" d="M1384.9,181.2c-0.8,0-0.8-0.6-0.6-1.2C1384.7,180.3,1384.9,180.7,1384.9,181.2z"/>
	<path class="st1" d="M1381.3,174.9c-0.9,0-0.8-0.5-0.7-1.1C1381,174,1381.2,174.4,1381.3,174.9z"/>
	<path class="st1" d="M1187.6,306.3c0.9-0.1,1,0.4,0.9,1.1C1188,307.2,1187.7,306.8,1187.6,306.3z"/>
	<path class="st1" d="M1189.8,309.3c0.9-0.1,0.9,0.4,0.9,1.1C1190.2,310.1,1190,309.7,1189.8,309.3z"/>
	<path class="st1" d="M1383.5,178.6c-0.9,0-0.8-0.5-0.7-1.2C1383.2,177.7,1383.5,178.1,1383.5,178.6z"/>
	<path class="st1" d="M1167.5,211.3c0,0.6,0.2,1.1-0.3,1.6C1167.1,212.3,1167.1,211.7,1167.5,211.3z"/>
	<path class="st1" d="M1168.3,208c0,0.4,0.1,0.8-0.3,1.1C1167.9,208.7,1167.9,208.3,1168.3,208z"/>
	<path class="st1" d="M1169.7,202.8c0.1,0.3,0,0.6-0.3,0.8C1169.4,203.3,1169.4,203,1169.7,202.8z"/>
	<path class="st1" d="M1168.6,206.8c0.1,0.3,0.1,0.6-0.2,0.9C1168.3,207.3,1168.3,207,1168.6,206.8z"/>
	<path class="st1" d="M1170.1,201.7c0.1,0.3,0.1,0.6-0.3,0.8C1169.7,202.2,1169.7,201.9,1170.1,201.7z"/>
	<path class="st1" d="M1167.8,209.7c0.1,0.3,0.1,0.6-0.2,0.9C1167.5,210.3,1167.5,210,1167.8,209.7z"/>
	<path class="st1" d="M1170.4,200.5c0.1,0.3,0.1,0.7-0.3,0.9C1170.1,201.1,1170.1,200.8,1170.4,200.5z"/>
	<path class="st1" d="M1228.1,340.9c0.2,0.1,0.3,0.2,0.5,0.3C1228.4,341,1228.3,340.9,1228.1,340.9z"/>
	<path class="st1" d="M1227.4,340.5c0.1,0.1,0.3,0.2,0.4,0.3C1227.7,340.7,1227.6,340.6,1227.4,340.5z"/>
	<path class="st1" d="M1210.8,329.9c0.2,0,0.4,0.1,0.4,0.3C1211.1,330.1,1211,330,1210.8,329.9z"/>
	<path class="st1" d="M1205.3,325.4c0.1,0.1,0.3,0.3,0.4,0.4C1205.6,325.7,1205.5,325.5,1205.3,325.4z"/>
	<path class="st1" d="M1201.3,321.7c0.1,0.1,0.3,0.3,0.4,0.4C1201.6,322,1201.4,321.9,1201.3,321.7z"/>
	<path class="st1" d="M1381.6,175.3c-0.1-0.1-0.2-0.3-0.3-0.4C1381.5,174.9,1381.6,175.1,1381.6,175.3z"/>
	<path class="st1" d="M1195.8,316.2c0.1,0.1,0.3,0.3,0.4,0.4C1196.1,316.5,1195.9,316.3,1195.8,316.2z"/>
	<path class="st1" d="M1192.9,312.9c0.1,0.2,0.3,0.3,0.4,0.5C1193.1,313.2,1193,313,1192.9,312.9z"/>
	<path class="st1" d="M1191,310.7c0.2,0.1,0.4,0.2,0.4,0.5C1191.3,311,1191.1,310.8,1191,310.7z"/>
	<path class="st1" d="M1190.7,310.3c0.1,0.1,0.2,0.3,0.4,0.4C1190.9,310.6,1190.8,310.4,1190.7,310.3z"/>
	<path class="st1" d="M1186.7,305.1c0.1,0.1,0.2,0.3,0.3,0.4C1186.9,305.4,1186.8,305.3,1186.7,305.1z"/>
	<path class="st1" d="M1185.2,302.9c0.1,0.1,0.2,0.3,0.3,0.4C1185.4,303.2,1185.3,303.1,1185.2,302.9z"/>
	<path class="st1" d="M1368.8,158.3c-0.2-0.1-0.4-0.2-0.4-0.5C1368.5,158,1368.7,158.2,1368.8,158.3z"/>
	<path class="st1" d="M1170.8,199.4c-0.1,0.2-0.1,0.4-0.2,0.5C1170.5,199.7,1170.6,199.5,1170.8,199.4z"/>
	<path class="st1" d="M1187,305.5c0.1,0.1,0.2,0.3,0.3,0.4C1187.2,305.8,1187.1,305.7,1187,305.5z"/>
	<path class="st1" d="M1369,353.5c0.6-1.8,1.2-3.1,1.3-4.7c0.9,0.5,2.1,1.1,1.9,1.8C1372,352,1370.6,352.6,1369,353.5z"/>
	<path class="st1" d="M1337.7,372.7c-0.7-0.2-1.7-0.3-1.9-1.4c-0.1-0.7,1.7-2.5,2.4-2.4c0.9,0.1,1.8,0.5,2.1,1.5
		C1340.5,371.1,1338.8,372.6,1337.7,372.7z"/>
	<path class="st1" d="M1257.1,377.1c0.2,1,0.6,2.2-0.1,2.6c-1.3,0.8-2.7,0.1-4.2-0.4C1254.3,378.6,1255.8,378.1,1257.1,377.1z"/>
	<path class="st1" d="M1374.8,119.6c-0.6,1.1-0.6,2.3-1.5,2.4c-1.3,0.1-2.1-1-3.1-2C1371.8,119.7,1373.1,120.1,1374.8,119.6z"/>
	<path class="st1" d="M1414.6,175.7c0.3-1.4,0.1-2.4,1-2.9c0.3-0.2,0.7,0.3,0.8,0.6C1416.6,174.5,1415.6,174.8,1414.6,175.7z"/>
	<path class="st1" d="M1192.4,353.9c-1-0.8-2-1.3-1.7-2.5c0.1-0.5,0.9-0.5,1.3-0.3C1193.1,351.8,1192.5,352.8,1192.4,353.9z"/>
	<path class="st1" d="M1182.6,343.9c-0.5-0.4-0.3-1-0.5-1.5c-0.1-0.4-0.4-0.9,0.1-1.1c0.2-0.1,0.6,0,0.8,0.1
		c0.5,0.3,0.7,0.7,0.5,1.2C1183.3,343.1,1183.3,343.7,1182.6,343.9z"/>
	<path class="st1" d="M1346.8,106.9c1.6,0,3.3-0.1,4.9,0c1.6,0.1,2.7,0.9,3.4,2.4c0.2,0.4,0.5,1,0.2,1.4c-0.4,0.5-1,0.3-1.5,0.1
		C1351.2,109.9,1349,108.5,1346.8,106.9z"/>
	<path class="st0" d="M1286,321c-2.3,0-4.6-0.1-6.9-0.1c-0.9,0-1.4-0.2-1.3-1.2c0-0.3,0.1-0.9-0.3-1c-1.9-0.4-1.3-1.8-1.3-2.9
		c0-2.5-0.5-5.1,0.2-7.6c7.7-0.1,15.3-0.2,23-0.2c1.4,0,1.8-0.4,1.7-1.8c-0.1-3,0-6,0-9c0-34.9,0-69.8,0-104.7c0-4.3,0-4.3,4.2-4.3
		c14.9-0.1,29.8-0.1,44.7-0.2c1.3,0,1.9,0.3,1.8,1.8c0,0.5-0.6,1.6,0.8,1.6c1.9-0.3,2.5,0.6,2.3,2.4c-0.2,1.1,0,2.3,0,3.4
		c0,0.6,0.1,1.3-0.8,1.3c-0.1-0.1-0.2-0.1-0.3,0c-0.6,0-1.3,0-1.9,0c-0.7,0-1.4,0-2.1,0c-0.5,0-1.1,0-1.6,0c-2.4,0-4.8,0-7.3,0
		c-0.4,0-0.8,0-1.2,0c-8.6,0-17.1,0-25.7-0.1c-1.3,0-1.1,0.7-1.1,1.5c0,6.2,0,12.4,0,18.6c0,6.4,0.1,12.9,0.1,19.3
		c0,2.2,0,4.4,0,6.7c0,0.7-0.1,1.3-0.1,2c0,13.2,0,26.3,0,39.5c0,1.5,0.1,2.9,0.1,4.4c0,0.7,0,1.5,0,2.2c-0.1,3.5-0.2,7.1,0,10.6
		c0,3,0,5.9,0,8.9c0,2.4-0.1,4.9-0.1,7.3c0,1.3-0.4,1.5-1.6,1.5c-4.1,0-8.2,0-12.3,0c-2.1,0-4.3,0-6.4,0
		C1290.4,321,1288.2,321,1286,321z"/>
	<path class="st1" d="M1352.5,191.4c-1.4,0-0.8-1.1-0.8-1.6c0.1-1.4-0.5-1.8-1.8-1.8c-14.9,0.1-29.8,0.1-44.7,0.2
		c-4.2,0-4.2,0.1-4.2,4.3c0,34.9,0,69.8,0,104.7c0,3-0.1,6,0,9c0,1.3-0.3,1.8-1.7,1.8c-7.7,0-15.3,0.1-23,0.2c0.3-1,1.1-0.6,1.7-0.6
		c4,0,8.1-0.1,12.1,0c1.2,0,2.1-0.1,2.6-1.4c0.2-0.5,0.6-0.9,0.9-1.4c1.1-1.3,2-1.2,2.8,0.3c0.4,0.8,0.7,1.6,1.4,2.1
		c1,0.7,2.3,0.1,2.4-1c0.1-1.2,0-2.3,0-3.5c0-14.7,0.1-29.5,0-44.2c0-3.2,1.1-6.7-2-9.5c-0.3,1.2,0.3,2.5-0.2,3.7
		c-0.2,0.4-0.2,0.8-0.7,0.9c-0.2-2.3-0.2-4.7,0-7c1.6,0.9,1.6-0.9,2-1.5c1.5-2.1,0.5-4.3-2-4.8c0-0.4-0.1-0.9-0.1-1.3
		c0-14.9,0-29.8,0-44.6c0-1.1,0-2-1.5-1.8c-1.5,0.2-2-0.4-1.8-1.8c0.2-1.4-0.4-1.8-1.8-1.8c-1.8,0.1-3.7,0.1-5.5,0
		c-1.6-0.1-1.9,0.5-1.9,2c0,24.8,0,49.6,0,74.4c0,8.6,0,17.1,0,25.7c0,1.4-0.4,2-1.9,1.8c-1.1-0.1-2.2,0-3.3-0.1
		c0.7-0.7,1.6-0.3,2.4-0.4c1.3,0,2-0.5,2-2c-0.1-7.6,0-15.3,0-22.9c0-0.5,0.2-1.1-0.3-1.3c-0.6-0.3-1,0.2-1.4,0.6
		c-4.9,3.7-10,7-15.3,10.2c-3.6,2.2-7.2,4-10.9,6c-0.6,0.3-1.2,0.7-1.9,0.6c0-0.6-0.1-1.2-0.1-1.8c0-18.1,0-36.3,0-54.4
		c0-8.4,0-16.8,0-25.2c0-1.1-0.1-1.9-1.5-1.7c-0.9,0.1-1.2-0.3-1.2-1.2c0-0.7,0-1.3,0-2c0.1,0,0.1-0.1,0.2-0.1
		c0.8,0.3,1.4,0.4,2.1-0.4c3.7-4.2,7.4-8.4,10.6-13c0.4-0.5,0.5-1.1,0.5-1.7c5.5,0,11-0.1,16.5-0.1c21.5,0,42.9,0,64.4,0
		c-0.7,1.2-1.1,2.6-1.5,3.9c-0.4,1.1,0.1,1.5,1.1,1.5c1.6,0,3.2,0.1,4.8,0c1.4-0.1,2.1,0.3,2,1.8
		C1352.2,190,1352.4,190.7,1352.5,191.4z"/>
	<path class="st0" d="M1238.3,298.1c0,0.6,0,1.3,0,1.9c-0.1,0.1-0.1,0.2,0,0.3c0,2.4,0,4.7,0,7.1c-0.4,1.5,0.5,1.4,1.5,1.4
		c5.5,0,11.1,0,16.6,0.1c4.8,0,4.9,0,4.7,4.9c0,0.7-0.1,1.3,0.9,1c0.9,0.1,1.8,0.1,2.6,0.1c0.7,0,1.1,0.2,1.2,1
		c-0.1,1.4-0.2,2.8,0,4.3c0,0.4,0,0.8,0,1.2c-0.1,0.1-0.1,0.2,0,0.2c-0.1,0.1-0.1,0.1-0.1,0.2c-1.1,0.1-2.2-0.2-3.3,0.2
		c-0.2,0-0.5,0-0.7,0c-0.7-0.3-1.5-0.3-2.2,0c-1.5-0.3-3-0.3-4.4,0c-1.1-0.3-2.2-0.3-3.3,0c-3.3-0.4-6.6-0.1-9.9-0.2
		c-3.3,0-6.6,0-9.9,0c-2.8,0-2.8,0-3-2.7c0-0.2-0.1-0.6-0.1-0.6c-2.3-0.1-1.9-1.8-1.9-3.2c0-31.8-0.1-63.6-0.1-95.3
		c0-7.4,0.1-14.8,0.2-22.2c0,0,0.1,0,0.1,0c2.6,0,5.1,0.1,7.7,0c1.2,0,1.6,0.4,1.6,1.6c0,0.7-0.7,1.7,0.6,2.1c0.9,0,1.2,0.4,1.2,1.3
		c0,2.4,0,4.8,0.1,7.2c0,0.4-0.1,0.7-0.1,1.1c0,19.5,0,39,0,58.5c0,7.2,0.1,14.4,0.1,21.6c0,2.1,0,4.2,0,6.3
		C1238.3,297.7,1238.3,297.9,1238.3,298.1z"/>
	<path class="st0" d="M1345.9,182.1c-21.5,0-42.9,0-64.4,0c-5.5,0-11,0.1-16.5,0.1c-0.8,0-1.7-0.1-2.5-0.1c-2.5,0-2.5,0-2.7-2.4
		c0.2-1-0.4-1-1.1-1c-1.5,0.2-1.8-0.6-1.7-1.9c0.1-1.5,0.1-2.9,0-4.4c-0.1-1.3,0.4-1.7,1.7-1.7c5.1,0,10.3,0,15.4,0
		c24.7,0,49.4,0,74.1,0c2.6,0,2.6,0,3,2.6c0,0.3,0.2,0.4,0.5,0.4c2.5,0.2,2.5,0.2,2.5,2.8c0,1.3-0.1,2.7,0,4
		c0.1,1.3-0.5,1.6-1.7,1.6C1350.4,182,1348.2,182.1,1345.9,182.1z"/>
	<path class="st1" d="M1238.3,291.1c0-7.2-0.1-14.4-0.1-21.6c0-19.5,0-39,0-58.5c0-0.4,0.1-0.7,0.1-1.1c2.7-0.6,3.5-1.7,3.5-4.3
		c0-2.3,0-4.7,0-7c0-0.6-0.3-1.4,0.7-1.7c0,0,0.1,0.1,0.1,0.1c0,0.8-0.1,1.6-0.1,2.4c0,25.9,0,51.8,0,77.8c0,8.2,0,16.4-0.1,24.6
		c-0.9-0.2-0.6-1-0.6-1.5c0-2.7,0-5.4,0-8.1c0-2.3-0.6-2.6-2.6-1.6C1238.9,290.8,1238.6,291,1238.3,291.1z"/>
	<path class="st0" d="M1251.9,188.1c0,0.4,0,0.8,0,1.3c-0.2,0.9-0.1,1.9,0,2.8c-0.3,0.9-1.1,0.6-1.7,0.6c-2.3,0.1-4.6-0.1-6.9,0.2
		c-0.6-0.2-1.2-0.2-1.8,0c-1.1-0.3-2.2-0.3-3.3-0.1c-1.2,0-2.4,0-3.6,0c-1.5-0.3-3-0.3-4.5,0c-0.8-0.3-2.3,0.5-2.1-1.2
		c0.2-1.2-1.3-1.4-1.2-2.5c0.2-1.9,0.2-3.9,0.2-5.9c0,0,0.1,0,0.1,0c0.5,0,1,0,1.5,0c6.5,0,13.1,0,19.6,0c0.7,0,1.8-0.2,1.7,1
		c-0.1,1.6,0.8,1.5,1.9,1.4c0,0.1,0,0.2,0.1,0.2C1251.9,186.7,1251.9,187.4,1251.9,188.1z"/>
	<path class="st0" d="M1251.9,173.8c0,0.3,0,0.6,0,0.9c-0.3,1.8,0.2,3.6-0.2,5.4c-1.8-0.2-3.7-0.2-5.5,0c-1.3,0-2.7,0-4,0
		c-4,0-7.9-0.1-11.9-0.1c-1.2,0-1.9,0-2.7-1.6c-1.3-2.7-0.7-5.1-0.5-7.6c6.5,0,13.1,0.1,19.6,0.1c1.6,0,3.3-0.3,3.6,2
		c0.5,0.3,1.4-0.1,1.6,0.8C1251.8,173.6,1251.8,173.7,1251.9,173.8z"/>
	<path class="st1" d="M1169.8,213.5c-0.3-1.3,0.2-2.5,0.4-3.8c0.3-1.9,2.3-3.4,4.4-3.5c2.5-0.1,3.7,0.7,4.5,3.1
		c0.8,2.5,0.8,5,0.2,7.6c-0.5,2.1-2.4,3.6-4.5,3.7c-2.3,0-3.6-1-4.5-3.3C1169.8,216,1169.6,214.8,1169.8,213.5z M1176.7,213.5
		c0.2-1.2-0.1-2.4-0.4-3.5c-0.2-0.9-0.9-1.4-1.7-1.4c-0.9,0-1.4,0.5-1.6,1.5c-0.4,2.2-0.5,4.5,0.1,6.7c0.2,0.7,0.5,1.2,1.3,1.3
		c0.9,0,1.5-0.3,1.9-1.1C1176.8,215.8,1176.8,214.7,1176.7,213.5z"/>
	<path class="st1" d="M1270.5,128.6c2.2,0.3,5.2,0.5,7.3,3c1.2,1.4,1.1,3.1,0.5,4.7c-0.6,1.7-1.8,2.7-3.8,2.7c-2.1,0-4.1-0.3-6.1-1
		c-2.8-1-4.2-3-3.7-5.5C1265.2,129.6,1266.6,128.6,1270.5,128.6z M1274.2,136.3c1-0.1,1.7-0.6,2-1.5c0.4-1-0.4-1.4-1.1-1.8
		c-1.8-1.2-3.8-1.3-5.9-1.4c-1.1,0-2,0.1-2.3,1.3c-0.3,1.2,0.7,1.7,1.6,2.1C1270.3,135.8,1272.3,135.9,1274.2,136.3z"/>
	<path class="st1" d="M1269.7,154c-3.4,0-6.1-1.3-8.4-3.3c-1.4-1.3-1.5-3.2-0.8-5c0.7-1.8,1.9-3,4-2.8c3.2,0.2,5.9,1.4,8.2,3.5
		c1.7,1.5,1.5,3.4,0.7,5.2C1272.7,153.2,1271.5,154.4,1269.7,154z M1264.5,145.7c-0.9,0-1.5,0.4-1.9,1.1c-0.4,0.7,0,1.3,0.5,1.8
		c1.6,1.6,3.8,2,5.9,2.6c1,0.3,1.8,0.1,2.3-0.8c0.6-1.1-0.1-1.9-0.9-2.5C1268.6,146.8,1266.6,146,1264.5,145.7z"/>
	<path class="st1" d="M1216.4,209.9c0,0.6-0.3,0.9-0.8,1.1c-1.9,0.7-3.7,1.5-5.6,2.3c-0.7,0.3-1.2,0.2-1.5-0.5
		c-0.3-0.7-0.2-1.4,0.6-1.6c1.7-0.4,1.3-1.4,0.8-2.4c-0.7-1.6-1.4-3.1-1.9-4.7c-0.4-1.2-0.8-1.3-1.5-0.3c-0.3,0.4-0.7,1.1-1.3,0.7
		c-0.6-0.4-0.8-1.2-0.4-2c0.1-0.3,0.3-0.6,0.5-0.8c1-1.1,1.6-2.9,3.2-2.7c1.6,0.2,1.4,2.2,2,3.4c0.9,1.8,1.6,3.7,2.2,5.6
		c0.4,1,0.9,1.4,1.9,1C1215.7,208.5,1216.2,209,1216.4,209.9z"/>
	<path class="st1" d="M1180.8,209c0-1.4,3.2-3.8,4.6-3.6c0.8,0.1,0.9,0.7,1,1.3c0.3,2.8,0.8,5.7,1.1,8.5c0.1,1.1,0.3,1.8,1.7,1.3
		c0.7-0.3,1.2,0.1,1.3,0.9c0.1,0.7-0.1,1.2-0.9,1.3c-2.1,0.3-4.2,0.7-6.3,1c-0.8,0.1-1.1-0.5-1.2-1.1c-0.2-0.7,0.2-1.1,0.8-1.2
		c2.1-0.2,1.8-1.7,1.6-3.1c-0.2-1.5-0.5-3-0.6-4.5c-0.1-1.3-0.5-1.2-1.3-0.5c-0.4,0.4-0.9,0.8-1.4,0.6
		C1180.7,209.9,1180.8,209.4,1180.8,209z"/>
	<path class="st1" d="M1197.9,205.9c-0.5,0.4-0.8,0.7-1.1,1c-0.4,0.3-0.7,1-1.3,0.5c-0.6-0.5-0.6-1.3-0.1-1.8
		c0.6-0.9,1.3-1.8,2.1-2.5c1.2-1,2.5-0.6,3,0.9c0.8,2.6,1.6,5.2,2.3,7.9c0.2,0.9,0.4,1.5,1.5,1.1c0.8-0.3,1.5,0,1.7,0.9
		c0.3,1.1-0.5,1.1-1.3,1.3c-1.7,0.5-3.4,1-5.1,1.5c-0.9,0.3-1.5,0.3-1.9-0.7c-0.4-1,0.3-1.4,1.1-1.5c1.2-0.2,1.5-0.6,1.1-1.8
		C1199.2,210.5,1198.6,208.3,1197.9,205.9z"/>
	<path class="st1" d="M1256.5,156.7c0-0.4,0-0.7,0-1.1c0.1-2.2,0.7-2.6,2.7-1.6c2.4,1.2,4.8,2.5,7.1,3.8c0.9,0.5,1.5,0.7,1.9-0.5
		c0.2-0.9,1-0.8,1.7-0.5c0.8,0.4,0.8,1,0.4,1.7c-0.9,1.6-1.7,3.2-2.5,4.9c-0.4,0.8-0.9,1.2-1.7,0.8c-0.8-0.4-0.8-1.1-0.4-1.7
		c0.8-1.3,0.1-1.7-0.9-2.2c-1.6-0.8-3.1-1.7-4.7-2.5c-0.7-0.4-1.3-0.5-1.3,0.6c0,0.6,0.3,1.5-0.8,1.5c-0.9-0.1-1.4-0.7-1.4-1.7
		C1256.5,157.7,1256.5,157.2,1256.5,156.7C1256.5,156.7,1256.5,156.7,1256.5,156.7z"/>
	<path class="st1" d="M1251.7,180c0.4-1.8-0.1-3.6,0.2-5.4c0.3,1.3,0.8,2.4,1.7,3.5c1.4,1.7,0.9,4.6-0.8,6.3c-0.4,0.4-1.1,0.6-1,1.4
		c-1,0.1-2,0.1-1.9-1.4c0.1-1.3-0.9-1-1.7-1c-6.5,0-13.1,0-19.6,0c-0.5,0-1,0-1.5,0c2-0.7,4.1-0.2,6.1-0.3c1-0.1,1.8,0.1,2.2-1.3
		c0.4-1.4,2-1.8,2.7-0.7c1.5,2.4,3.7,2.1,6.1,1.9c-0.7-1-1.3-1.9-2-2.9c1.3,0,2.7,0,4,0c0.6,0.9,1.3,1.6,2.2,2
		c0.7,0.3,1.4,1.2,2.3,0.6C1251.7,182.1,1251.9,181.1,1251.7,180z"/>
	<path class="st1" d="M1227,183.4c-0.1,2-0.1,3.9-0.2,5.9c-0.1,1.1,1.3,1.3,1.2,2.5c-0.2,1.7,1.3,0.9,2.1,1.2
		c0.5,1.6,1.7,2.6,2.8,3.7c0.7,0.6,1.6,0.6,2.3,0.1c0.8-0.6,0.8-1.4,0.2-2.2c-0.3-0.5-0.6-1-0.9-1.6c1.2,0,2.4,0,3.6,0
		c0.6,2,0.6,3.8-0.8,5.5c-0.6,0.8-0.2,1.9-0.3,2.9c-1.3-0.3-0.7-1.4-0.6-2.1c0-1.2-0.4-1.6-1.6-1.6c-2.6,0.1-5.1,0-7.7,0
		c0-0.3,0.1-0.6,0.5-0.7c0.9-0.1,1-0.4,0.4-1.1c-1.4-1.9-2.1-4-1.7-6.4c0.2-1.5,0-3,0.1-4.6C1226.4,184.3,1226.1,183.6,1227,183.4z"
		/>
	<path class="st1" d="M1250.3,172.7c-0.3-2.3-2-2-3.6-2c-6.5,0-13.1-0.1-19.6-0.1c0.4-0.9,1.2-0.5,1.8-0.5c6.3,0,12.6,0,18.9,0
		C1250.2,170.2,1250.3,170.2,1250.3,172.7z"/>
	<path class="st1" d="M1242.5,196.9c0.7-1.2,1.8-0.7,2.7-0.6c2.1,0.1,4.2,0.1,6.2,0.6l-0.1,0.1c-2.9,0-5.8,0-8.8,0L1242.5,196.9z"/>
	<path class="st1" d="M1241.5,193c0.6-0.2,1.2-0.2,1.8,0c0,0.6-0.3,1.1-1,1C1241.7,194,1241.5,193.5,1241.5,193z"/>
	<path class="st1" d="M1251.9,192.1c-0.2-0.9-0.2-1.9,0-2.8C1252.3,190.3,1252.3,191.2,1251.9,192.1z"/>
	<path class="st1" d="M1251.9,188.1c0-0.7,0-1.4,0-2C1252.3,186.7,1252.3,187.4,1251.9,188.1z"/>
	<path class="st1" d="M1251.9,173.8c-0.1-0.1-0.1-0.2,0-0.3c0,0.1,0.1,0.1,0.1,0.2C1252,173.7,1251.9,173.8,1251.9,173.8z"/>
	<path class="st1" d="M1251.4,197c0.1,0.1,0.2,0.2,0.3,0.4c-0.1,0-0.1,0.1-0.2,0.1C1251.5,197.3,1251.5,197.2,1251.4,197
		C1251.4,197,1251.4,197,1251.4,197z"/>
	<path class="st1" d="M1312.9,237.8c0-6.4-0.1-12.9-0.1-19.3c0-6.2,0-12.4,0-18.6c0-0.8-0.1-1.5,1.1-1.5c8.6,0.1,17.1,0.1,25.7,0.1
		c-1.1,0.7-1.7,1.8-2.3,3c-2.9,5.8-6,11.4-9.6,16.8c-4.2,6.4-8.6,12.4-13.4,18.4C1314,237.2,1313.6,237.8,1312.9,237.8z"/>
	<path class="st1" d="M1347,266.1c-0.5-0.6-1-1.3-1.4-1.9c-1.2-1.9-1.1-3.9,0.3-5.6c1.4-1.7,2.9-2.1,5.1-1.4
		c2.6,0.9,4.6,2.6,6.2,4.7c1.4,1.8,1.1,4.2-0.3,5.9c-1.5,1.8-3,2-5.4,1c-0.6-0.3-1.3-0.5-2.1-0.9c0.2,1.1,0.9,1.6,1.3,2.3
		c1.3,2.1,1.1,4-0.6,5.8c-1.7,1.8-3.2,2.1-5.5,0.8c-2.6-1.5-4.9-3.2-5.9-6.2c-0.6-1.8,0-3.7,1.7-5c1.4-1.1,3.2-1.3,4.9-0.3
		C1345.7,265.9,1346.3,266.2,1347,266.1c0,0.5,0.3,0.7,0.7,0.7c0,0.4,0.1,0.7,0.6,0.7c0.1,0,0.2-0.1,0.2-0.2
		c-0.1-0.4-0.5-0.4-0.8-0.5C1347.5,266.6,1347.3,266.4,1347,266.1z M1346.7,274.9c1,0.1,1.6-0.2,1.9-0.7c0.4-0.6,0.3-1.3-0.1-1.9
		c-1.3-2-3.1-3.4-5.2-4.5c-0.7-0.4-1.5-0.4-2.1,0.4c-0.6,0.8-0.5,1.7,0.2,2.3c1.3,1.4,2.6,2.9,4.3,3.9
		C1346.1,274.7,1346.6,274.9,1346.7,274.9z M1348.4,259.6c-0.3,0-0.7,0.4-0.9,0.9c-0.3,0.9-0.1,1.8,0.5,2.4c1.5,1.5,3.1,2.8,5.1,3.8
		c0.7,0.3,1.2,0.2,1.7-0.2c0.5-0.5,0.8-1.1,0.6-1.8C1355,263.1,1350.4,259.6,1348.4,259.6z"/>
	<path class="st1" d="M1372.8,227.9c0.4,0.8,1.1,1.1,1.8,1.5c2.4,1.4,3,3.8,1.8,6.4c-1.1,2.3-2.8,3-6,2.1c-0.9-0.2-1.8-0.8-2.8-0.8
		l0,0c-0.2-0.3-0.4-0.4-0.7-0.4l0,0c-0.3-0.7-0.9-0.9-1.5-1.3c-2.3-1.7-2.7-3.9-1.4-6.5c1-1.9,3.1-2.6,5.7-1.9
		c0.6,0.2,1.2,0.6,2.1,0.4c-1.1-0.8-2.3-1.4-3.2-2.3c-1.6-1.8-1.8-2.9-0.6-5.3c1-2,2.6-2.9,4.6-2.5c2.4,0.5,4.7,1.4,6.8,2.7
		c1.8,1.1,2.3,3.8,1.4,5.9c-0.9,2-2.9,3.1-5.1,2.6C1374.7,228.3,1373.7,228.1,1372.8,227.9c0,0-0.1-0.1-0.2-0.1
		C1372.7,227.8,1372.7,227.9,1372.8,227.9z M1372.8,235.6c0.6,0,1.2-0.2,1.6-1c0.4-0.8,0.3-1.4-0.3-2c-1.7-1.6-3.8-2.3-6-3.1
		c-0.9-0.3-1.6-0.2-2,0.6c-0.4,0.8-0.5,1.8,0.3,2.4C1368.2,234,1370.2,235,1372.8,235.6z M1376.4,225.7c1.2,0,1.9,0.1,2.2-0.7
		c0.2-0.8,0.2-1.7-0.6-2.3c-1.8-1.3-3.9-2.2-6.2-2.5c-0.9-0.1-1.6,0.2-1.9,1.1c-0.3,0.8,0,1.6,0.7,2.1
		C1372.6,224.5,1374.6,225.5,1376.4,225.7z"/>
	<path class="st1" d="M1367.6,237.1c1.2,1,2.5,2,3.6,3.1c1.4,1.4,1.4,3.3,0.1,5.7c-0.8,1.4-2.7,2.2-4.4,1.7c-3.3-0.9-6.4-2.1-8-5.5
		c-0.9-1.8-0.2-3.3,0.9-4.7c1.2-1.4,2.6-2.2,4.5-1.5c0.8,0.3,1.6,0.9,2.6,0.8l0,0C1367,237,1367.3,237.1,1367.6,237.1L1367.6,237.1z
		 M1367.9,244.8c0.8,0.1,1.5-0.2,1.8-1c0.3-0.7-0.1-1.3-0.6-1.8c-1.7-1.7-3.6-2.8-5.9-3.4c-0.8-0.2-1.4,0.1-1.9,0.7
		c-0.5,0.7-0.3,1.4,0.2,1.8C1363.3,243.1,1365.4,244.4,1367.9,244.8z"/>
	<path class="st1" d="M1332.5,276.1c0.2,0,0.5,0,0.7,0c2.9,0.2,7.6,5.5,7.6,8.3c0,1.9-1.1,3.2-2.6,4.2c-1.7,1.1-3.4,0.6-4.8-0.4
		c-2-1.5-4-3.2-5.1-5.6C1327,279.6,1329.2,276.1,1332.5,276.1z M1338.2,284.5c0-1.6-4.4-5.9-6-5.8c-1.2,0-2,1.1-1.4,2.3
		c1,2.2,2.8,3.8,4.8,5.1C1336.9,286.9,1338.2,286,1338.2,284.5z"/>
	<path class="st1" d="M1382.8,203.6c-2.1-0.2-5-0.5-7.1-2.8c-2.2-2.4-0.9-6.9,2.3-7.4c2.9-0.5,5.9,0.1,8.4,1.6
		c2.2,1.3,2.7,3.3,2,5.7C1387.7,202.9,1386.5,203.6,1382.8,203.6z M1380.4,196.3c-1.7,0-3.2-0.2-3.4,1.3c-0.2,1.6,1.3,2,2.5,2.4
		c1.5,0.4,2.9,0.7,4.4,1c1.1,0.2,2-0.3,2.4-1.3c0.4-1-0.4-1.6-1.1-2.1C1383.6,196.6,1381.8,196.5,1380.4,196.3z"/>
	<path class="st1" d="M1312.8,303.3c-0.2-3.5-0.1-7.1,0-10.6c0.9,0,0.9-0.8,1.2-1.4c0.9-1.5,1.9-1.6,2.9-0.2
		c1.7,2.2,3.4,4.3,5.1,6.5c0.6,0.7,1,1.2,1.9,0.4c0.5-0.5,1.2-0.7,1.7,0c0.7,0.8,0.1,1.4-0.4,1.9c-1.3,1.1-2.6,2.2-4,3.2
		c-0.7,0.5-1.5,1-2.2,0c-0.8-1,0.1-1.3,0.7-1.7c0.8-0.6,0.9-1.2,0.2-2c-1.2-1.4-2.3-3-3.5-4.4c-0.6-0.7-0.7-0.8-1.6,0.1
		c-2.1,2-1.5,4.4-1.6,6.7C1313.2,302.2,1313.4,302.8,1312.8,303.3z"/>
	<path class="st1" d="M1351.4,253.3c0-0.5,0-0.9,0-1.2c0.2-2.3,1.3-2.8,3.2-1.6c2.1,1.4,4.2,2.8,6.2,4.2c0.8,0.6,1.5,1,2.3-0.1
		c0.5-0.7,1.2-0.9,1.9-0.3c0.7,0.6,0.1,1.3-0.2,1.8c-0.9,1.4-1.9,2.8-2.8,4.3c-0.5,0.7-1.1,1.3-2,0.8c-0.8-0.5-0.6-1.3-0.2-1.9
		c0.6-1.1,0.3-1.6-0.7-2.2c-1.1-0.6-2-1.3-3-2c-1.2-0.8-2.3-2.3-2.9,0.6c-0.3,1.2-1.2,0.2-1.5-0.3
		C1351.2,254.7,1351.5,253.9,1351.4,253.3z"/>
	<path class="st1" d="M1320.9,287.9c0.1-0.9,0.4-2.1,1.1-3.2c0.8-1.2,1.6-1.7,2.8-0.2c1.6,2,3.4,3.9,5.1,5.9
		c0.7,0.9,1.5,1.3,2.4,0.4c0.9-0.8,1.3,0,1.8,0.5c0.7,0.8-0.1,1-0.6,1.4c-1.4,1.2-2.8,2.4-4.1,3.6c-0.6,0.6-1.1,0.9-1.9,0.2
		c-0.7-0.7-0.4-1.3,0.2-1.9c1-0.8,0.9-1.5,0-2.4c-1.3-1.2-2.4-2.6-3.6-3.9c-0.6-0.7-1.1-1-1.4,0.2c-0.2,0.7-0.4,1.2-1.2,1
		C1320.9,289.4,1320.9,288.8,1320.9,287.9z"/>
	<path class="st1" d="M1372.4,207.4c0-2,0.7-2.5,2.3-2.1c2.7,0.8,5.4,1.5,8.1,2.3c1,0.3,1.5,0.2,1.7-0.8c0.2-1,0.8-1.2,1.6-0.9
		c0.8,0.3,0.8,1,0.6,1.7c-0.5,1.7-1,3.5-1.5,5.3c-0.2,0.9-0.7,1.3-1.6,1c-0.9-0.2-1-0.9-0.7-1.6c0.6-1.2-0.1-1.7-1.1-1.9
		c-1.9-0.5-3.8-1-5.6-1.6c-0.9-0.3-1.3-0.2-0.9,0.9c0.2,0.6,0.5,1.4-0.4,1.7c-0.9,0.2-1.3-0.6-1.5-1.2
		C1372.9,209.1,1372.6,208.1,1372.4,207.4z"/>
	<path class="st1" d="M1312.8,290.4c0-1.5-0.1-2.9-0.1-4.4c0-13.2,0-26.3,0-39.5c0-0.7,0.1-1.3,0.1-2c0.6,0.5,0.3,1.1,0.3,1.7
		c0,14.1,0,28.3,0,42.4C1313.2,289.2,1313.4,289.9,1312.8,290.4z"/>
	<path class="st1" d="M1340.8,198.5c2.4,0,4.8,0,7.3,0C1345.7,199,1343.2,199,1340.8,198.5z"/>
	<path class="st1" d="M1349.6,198.5c0.7,0,1.4,0,2.1,0C1351,199,1350.3,199,1349.6,198.5z"/>
	<path class="st1" d="M1353.7,198.5c0.1-0.1,0.2-0.1,0.3,0C1353.9,198.7,1353.8,198.7,1353.7,198.5z"/>
	<path class="st0" d="M1297.4,246.7c-0.2,2.3-0.2,4.7,0,7c0,1.5-0.1,3.1-0.1,4.6c0,14.1,0,28.3,0,42.4c0,3.1,0.4,2.6-2.6,2.7
		c-2.9,0-5.9,0-8.8-0.1c0.1-1-0.6-1-1.3-1c-1.7,0.1-3.5,0.2-5.2-0.1c0,0,0,0,0,0c0.1-3,0.2-6.1,0.3-9.1c0,0,0,0,0,0
		c1.1,0,2.2-0.1,3.3,0.1c1.5,0.2,1.9-0.4,1.9-1.8c-0.1-8.6,0-17.1,0-25.7c0-24.8,0-49.6,0-74.4c0-1.5,0.3-2.1,1.9-2
		c1.8,0.1,3.7,0.1,5.5,0c1.4-0.1,2,0.4,1.8,1.8c-0.2,1.4,0.4,2.1,1.8,1.8c1.5-0.2,1.5,0.6,1.5,1.8c0,14.9,0,29.8,0,44.6
		c0,0.4,0,0.9,0.1,1.3c0,0.4,0,0.7,0,1.1c-0.1,1.3-0.1,2.7,0,4C1297.4,245.9,1297.4,246.3,1297.4,246.7z"/>
	<path class="st0" d="M1251.4,197c0.1,0.1,0.2,0.3,0.3,0.4c0,0.7,0,1.3,0,2c0,0.8,0.3,1.3,1.2,1.2c1.4-0.2,1.5,0.6,1.5,1.7
		c0,8.4,0,16.8,0,25.2c0,18.1,0,36.3,0,54.4c0,0.6,0.1,1.2,0.1,1.8c0,2.9,0,5.8-0.1,8.6c0,0.9,0.3,1.4,1.3,1.3c0.1,0,0.2,0,0.4,0
		c3.3,0.1,3.3,0.1,3.5,3.3c0,0.4-0.1,1.1,0.4,1.1c2,0,1.4,1.4,1.4,2.4c0,4.7,0,4.7-4.6,4.7c-3.2,0-6.5-0.1-9.7,0
		c-1.8,0.1-2.8-0.2-2.6-2.3c-0.1-1.3-1.2-0.5-1.7-0.8c-0.1-0.1-0.1-0.2-0.2-0.3c0-8.2,0.1-16.4,0.1-24.6c0-25.9,0-51.8,0-77.8
		c0-0.8,0-1.6,0.1-2.4C1245.5,197,1248.5,197,1251.4,197z"/>
	<path class="st1" d="M1224.6,331.4c0-1.1-0.1-2.2,0.3-3.3c0.9-2.4,2.3-3.3,5.3-3.2c2,0.1,3,1.1,3.6,3.5c0.6,2.3,0.8,4.5,0.4,6.8
		c-0.4,2.1-1.7,3.5-3.9,3.7c-2.8,0.2-4.2-0.6-5-2.9c-0.3-0.8-0.5-1.6-0.7-2.5C1224.5,332.9,1224.6,332.1,1224.6,331.4z
		 M1227.5,331.2c-0.1,1.4,0,2.7,0.4,4c0.3,0.9,1,1.4,1.9,1.5c0.9,0.1,1.3-0.7,1.5-1.4c0.6-2.4,0.2-4.7-0.5-7
		c-0.2-0.7-0.8-1.2-1.7-1.1c-0.9,0.2-1.4,0.7-1.5,1.6C1227.5,329.6,1227.5,330.4,1227.5,331.2z"/>
	<path class="st1" d="M1280.8,325.5c0,0.8-0.2,1.1-0.7,1.3c-1.9,0.7-3.8,1.4-5.6,2.2c-0.8,0.4-1.3,0.1-1.7-0.5
		c-0.3-0.6-0.2-1.3,0.5-1.5c1.9-0.6,1.4-1.7,0.9-3c-0.6-1.4-1.3-2.9-1.8-4.4c-0.4-1-0.7-1.3-1.4-0.3c-0.3,0.5-0.8,1.2-1.5,0.5
		c-0.4-0.4-0.7-1.2-0.2-1.8c0.5-0.7,1-1.5,1.6-2.2c1.4-1.6,2.6-1.4,3.4,0.6c1,2.5,2,5,3,7.5c0.4,1,0.8,1.2,1.8,0.9
		C1280.1,324.4,1280.7,324.8,1280.8,325.5z"/>
	<path class="st1" d="M1239.7,323.9c0.6-0.1,1,0.2,1.1,1c0.3,2.6,0.7,5.2,1.1,7.7c0.2,1.1,0.1,2.6,2,2.3c0.9-0.1,1.1,0.6,1.2,1.3
		c0.1,0.8-0.5,0.9-1.1,0.9c-2.1,0.3-4.2,0.7-6.3,1c-0.7,0.1-1-0.3-1.1-1c-0.1-0.8,0.3-1.4,1-1.4c1.9-0.1,1.6-1.1,1.3-2.4
		c-0.3-1.4-0.4-2.9-0.5-4.3c-0.1-1.2-0.4-1.8-1.7-1c-0.4,0.2-0.8,1-1.3,0.1c-0.4-0.6-0.6-1.2,0.2-1.8
		C1237,325.5,1237.7,323.8,1239.7,323.9z"/>
	<path class="st1" d="M1251.7,322c1.1-0.2,2.2-0.2,3.3,0c0.7,2.7,1.4,5.4,2,8.2c0.2,1.1,0.6,1.6,1.8,1.5c0.7-0.1,1.5-0.1,1.6,0.8
		c0.1,1-0.6,1.4-1.4,1.6c-1.8,0.4-3.7,0.8-5.5,1.3c-0.7,0.2-1.3,0.3-1.4-0.6c-0.1-0.7-0.4-1.6,0.7-1.7c1.7-0.1,1.7-1.1,1.3-2.4
		c-0.5-1.6-0.9-3.3-1.3-4.9c-0.2-1-0.4-1.4-1.3-0.5c-0.4,0.4-0.9,1.3-1.6,0.5c-0.5-0.6-0.5-1.4,0.3-2.1
		C1250.9,323.2,1251.5,322.7,1251.7,322z"/>
	<path class="st1" d="M1262.4,322c1.1-0.4,2.2-0.1,3.3-0.2c0.3,2.1,1.2,4,1.8,5.9c0.3,0.9,0.8,1,1.5,0.7c1.1-0.5,1.5,0.2,1.7,1
		c0.4,1.1-0.6,1-1.1,1.2c-1.8,0.6-3.7,1.1-5.6,1.8c-0.8,0.3-1.2,0.1-1.4-0.6c-0.3-0.8-0.1-1.4,0.7-1.6c1.8-0.3,1.6-1.2,1.1-2.6
		C1263.6,325.9,1263,323.9,1262.4,322z"/>
	<path class="st1" d="M1262.1,314.8c-1,0.3-0.9-0.3-0.9-1c0.2-4.9,0.2-4.9-4.7-4.9c-5.5,0-11.1-0.1-16.6-0.1c-1,0-1.9,0-1.5-1.4
		c0.5,0.8,1.2,0.7,1.9,0.7c6.3,0,12.6,0,18.9,0c2.1,0,2.9,0.7,2.9,2.8C1262.1,312.2,1262.1,313.5,1262.1,314.8z"/>
	<path class="st1" d="M1286,321c2.2,0,4.4,0,6.5,0C1289.9,322.9,1287.8,322.9,1286,321z"/>
	<path class="st1" d="M1279.7,293c-0.1,3-0.2,6.1-0.3,9.1c-0.6-0.2-0.9-0.7-0.7-1.3c0.6-2.3,0.3-4.6,0.3-6.9
		C1279,293.5,1279.1,293,1279.7,293z"/>
	<path class="st1" d="M1279.4,302.2c1.7,0.3,3.5,0.2,5.2,0.1c0.7,0,1.4,0,1.3,1c-1.7-0.4-3.5-0.3-5.2-0.3
		C1280.2,302.9,1279.4,303.1,1279.4,302.2z"/>
	<path class="st1" d="M1259.5,322c0.7-0.2,1.5-0.3,2.2,0c-0.4,0.6-0.4,1.5-1.4,1.4C1259.7,323.3,1259.5,322.6,1259.5,322z"/>
	<path class="st1" d="M1265.9,320.1c-0.2-1.4-0.2-2.8,0-4.3C1266.3,317.3,1266.3,318.7,1265.9,320.1z"/>
	<path class="st1" d="M1242.6,302.2c0.6,0.2,1.6-0.6,1.7,0.8C1243.7,302.8,1242.8,303.4,1242.6,302.2z"/>
	<path class="st1" d="M1238.3,298.1c0-0.2,0-0.4,0-0.6C1238.6,297.7,1238.6,297.9,1238.3,298.1z"/>
	<path class="st1" d="M1265.8,321.6c-0.1-0.1,0-0.2,0-0.2c0,0.1,0.1,0.1,0.1,0.2C1265.9,321.6,1265.9,321.6,1265.8,321.6z"/>
	<path class="st1" d="M1238.3,300.3c-0.1-0.1-0.1-0.2,0-0.3c0,0.1,0.1,0.1,0.1,0.2C1238.4,300.2,1238.3,300.3,1238.3,300.3z"/>
	<path class="st1" d="M1297.4,241.5c1.9,2.2,2.7,2.6,0,4C1297.3,244.2,1297.3,242.9,1297.4,241.5z"/>
</g>
<g>
	<path class="st0" d="M191,180v31.3c0,2.9-0.9,5.3-2.8,7.5c-2.3,2.7-5.2,4.1-8.8,4.1h-51.3c-4.4,0-8.2-1.4-11.5-4.2
		c-4.2-3.6-6.3-8.2-6.3-13.9v-12.2l7.3-5.9h7.1v18.1c0,1.9,0.7,3.4,2,4.6c1.2,1,2.4,1.5,3.7,1.5h44.9c0.9,0,1.4-0.4,1.4-1.3V180H191
		z M142.4,177.5c2.1,0,3.8,0.7,5.2,2.1c1.4,1.4,2.1,3.1,2.1,5.1c0,2.1-0.7,3.8-2.1,5.2c-1.4,1.4-3.1,2.1-5.2,2.1
		c-2,0-3.7-0.7-5.1-2.1c-1.4-1.4-2.1-3.1-2.1-5.2c0-2,0.7-3.7,2.1-5.1C138.7,178.2,140.4,177.5,142.4,177.5z M159.1,177.5
		c2.1,0,3.8,0.7,5.2,2.1c1.4,1.4,2.1,3.1,2.1,5.1c0,2.1-0.7,3.8-2.1,5.2c-1.4,1.4-3.1,2.1-5.2,2.1c-2,0-3.7-0.7-5.1-2.1
		c-1.4-1.4-2.1-3.1-2.1-5.2c0-2,0.7-3.7,2.1-5.1C155.4,178.2,157.1,177.5,159.1,177.5z"/>
	<path class="st0" d="M218.3,156.2v53.4c0,0.1,0,0.3,0.1,0.6l0.1,0.1c0.2,0.4,0.6,0.7,1.1,0.7h3.5v12h-7.6c-3,0-5.7-1.1-8-3.3
		c-2.4-2.3-3.5-5.1-3.5-8.3v-55.2H218.3z"/>
	<path class="st0" d="M239.1,196.4c0-5.3,1.9-9.6,5.8-12.9c3.5-3,8.3-4.5,14.4-4.5c5.2,0,9.6,1.3,13.2,3.9c5.4,3.9,8.1,9.9,8.1,17.8
		c0,7.2-1.7,13.1-5.2,17.9c-3.5,4.7-8.2,7.1-14.1,7.1c-5,0-9-1.9-11.9-5.6c-2.2,1.9-4.8,2.8-7.6,2.8h-19.5v-12h15.4
		c0.4,0,0.8-0.1,1-0.4c0.2-0.3,0.4-0.6,0.4-0.9V196.4z M253.4,210.9c1.4,1.8,3.3,2.7,5.5,2.7c2.2,0,4-1.1,5.4-3.2
		c1.4-2.1,2.1-4.9,2.1-8.4c0-3.7-0.7-6.6-2.1-8.5c-1.4-1.7-3.2-2.6-5.6-2.6c-1.6,0-2.9,0.6-3.9,1.7c-0.9,1.1-1.3,2.4-1.3,3.8V210.9z
		"/>
	<path class="st0" d="M311.2,222.9c-6.6,0-11.9-2.3-15.9-7c-3.5-4-5.2-8.7-5.2-14.3c0-7,1.8-12.4,5.5-16.2c4.3-4.4,9.8-6.5,16.4-6.5
		c4.8,0,8.8,1.1,12.1,3.3c5,3.3,7.5,8,7.5,14.2v14.5h3v12h-3.1c-0.7,6.8-3.5,12.2-8.2,16c-2.9,2.4-6.4,4.2-10.6,5.2
		c-2.9,0.7-5.9,1.1-9,1.1c-1.4,0-2.8-0.1-4.3-0.3l-6.2-7.6v-5c2.9,0.6,5.6,0.9,8.2,0.9c8.7,0,13.9-3.5,15.5-10.4H311.2z
		 M317.1,196.4c0-1.9-0.7-3.4-2.1-4.5c-0.9-0.7-2-1-3.2-1c-2.3,0-4.2,0.9-5.5,2.7c-1.4,1.8-2.1,4.1-2.1,7c0,6.8,3.4,10.3,10.2,10.3
		h2.8V196.4z"/>
	<path class="st0" d="M365,156.2v53.9c0,0.2,0,0.5,0.1,0.8h4.6v12h-3l-4-4.3h-0.2c-2.4,2.9-5.4,4.3-9.1,4.3h-19.5v-12h15.4
		c0.4,0,0.7-0.1,0.8-0.3c0.4-0.2,0.6-0.6,0.6-1v-53.4H365z"/>
	<path class="st0" d="M382,197.5c2.3-6.8,6.3-11.8,12.1-14.9c4.1-2.3,8.9-3.5,14.3-3.5c5.1,0,9.7,1.4,13.8,4.1
		c5,3.2,8.5,7.9,10.7,14.3l-1.1,2.9c-1.4,0.8-3.3,2.3-5.7,4.6c-2.2,2.2-3.9,4.2-4.9,6h12.7v12h-21.9c-1.5,0-2.9-0.7-4.3-2.2h-0.4
		c-1.4,1.5-2.9,2.2-4.6,2.2H369v-12h24.7c-1-1.7-2.6-3.7-4.9-5.8c-2.4-2.4-4.4-4-5.8-4.8L382,197.5z M418.1,196.9
		c-0.9-2.2-2.7-3.9-5.2-4.9c-1.6-0.6-3.3-0.9-5.1-0.9c-2.4,0-4.6,0.4-6.5,1.3c-2.2,1-3.6,2.5-4.4,4.5c1.2,0.7,3,2.5,5.3,5.1
		c2.6,3,4.3,5.4,5,7.3h0.6c0.9-2.2,2.7-4.8,5.5-7.7C415.3,199.2,416.9,197.7,418.1,196.9z"/>
	<path class="st0" d="M448.3,210.9c-0.6-2.8-0.8-6.2-0.8-10.2c0-7.2,2.4-12.8,7.1-16.9c3.9-3.2,8.5-4.9,14.1-4.9
		c6.2,0,11.1,1.5,14.6,4.5c3.9,3.3,5.8,7.6,5.8,12.9v13.2c0,0.4,0.1,0.7,0.4,0.9c0.3,0.2,0.7,0.4,1.1,0.4h1.5v12h-5.7
		c-2.9,0-5.4-0.9-7.6-2.8c-2.9,3.7-7,5.6-12.1,5.6c-5,0-9.4-2-13-5.9h-0.4l-2.4,3.1h-17.6v-12H448.3z M474.7,196.4
		c0-1.4-0.5-2.7-1.4-3.8c-1.1-1.1-2.5-1.7-4.3-1.7c-2.3,0-4.1,0.9-5.4,2.8c-1.3,1.8-2,4.4-2,7.6c0,8.3,2.2,12.4,6.7,12.4
		c2.2,0,4.3-0.9,6.3-2.8V196.4z"/>
	<path class="st0" d="M522.5,156.2v55.2c0,2.7-0.9,5.2-2.6,7.4c-2.4,2.8-5.4,4.2-9,4.2h-19.5v-12h15.4c0.4,0,0.7-0.1,0.9-0.3
		c0.3-0.2,0.5-0.6,0.5-1v-53.4H522.5z"/>
	<path class="st0" d="M549.8,156.2v63.2l-7.3,5.9h-7.1v-69.1H549.8z"/>
	<path class="st0" d="M620.1,177.5v32.1c0,0.4,0.1,0.7,0.4,0.9c0.2,0.2,0.6,0.4,1.1,0.4h3.2v12h-7.4c-3.2,0-6.1-1.2-8.7-3.7
		c-3,3-6.7,4.6-11,4.6h-0.1h-0.2c-6.2,0-11.1-2.6-14.6-7.7c-2.9-4-4.3-8.9-4.3-14.5c0-6.8,2.2-12.5,6.5-17c3.9-4,8.8-6.1,14.6-6.1
		c3.2,0,6.3,0.7,9.4,2l3.8-3H620.1z M596,159.5c2.1,0,3.8,0.7,5.2,2.1c1.4,1.4,2.1,3.1,2.1,5.1c0,2-0.7,3.7-2.1,5.1
		c-1.4,1.4-3.2,2.1-5.2,2.1c-2,0-3.7-0.7-5.1-2.1c-1.4-1.4-2.1-3.1-2.1-5.1c0-2.1,0.7-3.8,2.1-5.2C592.3,160.2,594,159.5,596,159.5z
		 M605.6,191.6c-1.5-0.4-2.9-0.6-4.2-0.6c-2.7,0-4.9,0.9-6.4,2.8c-1.6,1.9-2.3,4.4-2.3,7.7c0,3.1,0.9,5.7,2.6,7.6c1.7,2,3.9,3,6.7,3
		c1.1,0,2.3-0.2,3.7-0.5V191.6z M612.7,159.5c2.1,0,3.8,0.7,5.2,2.1c1.4,1.4,2.1,3.1,2.1,5.1c0,2-0.7,3.7-2.1,5.1
		c-1.4,1.4-3.2,2.1-5.2,2.1c-2,0-3.7-0.7-5.1-2.1c-1.4-1.4-2.1-3.1-2.1-5.1c0-2.1,0.7-3.8,2.1-5.2
		C609,160.2,610.7,159.5,612.7,159.5z"/>
	<path class="st0" d="M631.2,227.2c2.1,0,3.8,0.7,5.2,2.1c1.4,1.4,2.1,3.2,2.1,5.2c0,2-0.7,3.7-2.1,5.1c-1.4,1.4-3.2,2.1-5.2,2.1
		c-2,0-3.7-0.7-5.1-2.1c-1.4-1.4-2.1-3.1-2.1-5.1c0-2.1,0.7-3.8,2.1-5.2C627.5,227.9,629.2,227.2,631.2,227.2z M655.2,180v30
		c0,0.2,0,0.5,0.1,0.8h4.7v12h-2.9l-4.1-4.3h-0.3c-2.3,2.9-5.3,4.3-9,4.3h-19.5v-12H639c0.6,0,1.1-0.2,1.4-0.6
		c0.3-0.3,0.5-0.7,0.5-1.3v-29H655.2z M647.9,227.2c2.1,0,3.8,0.7,5.2,2.1c1.4,1.4,2.1,3.2,2.1,5.2c0,2-0.7,3.7-2.1,5.1
		c-1.4,1.4-3.2,2.1-5.2,2.1c-2,0-3.7-0.7-5.1-2.1c-1.4-1.4-2.1-3.1-2.1-5.1c0-2.1,0.7-3.8,2.1-5.2
		C644.2,227.9,645.9,227.2,647.9,227.2z"/>
	<path class="st0" d="M690.4,180v30c0,0.2,0,0.5,0.1,0.8h4.6v12h-2.9l-4.1-4.3h-0.2c-2.4,2.9-5.4,4.3-9.1,4.3h-19.5v-12h14.9
		c0.6,0,1-0.2,1.3-0.6c0.4-0.3,0.6-0.7,0.6-1.3v-29H690.4z M683.1,159.5c2.1,0,3.8,0.7,5.2,2.1c1.4,1.4,2.1,3.1,2.1,5.2
		c0,2-0.7,3.7-2.1,5.1c-1.4,1.4-3.1,2.1-5.2,2.1c-2,0-3.7-0.7-5.1-2.1c-1.4-1.4-2.1-3.1-2.1-5.1c0-2,0.7-3.7,2.1-5.1
		C679.4,160.2,681.1,159.5,683.1,159.5z"/>
	<path class="st0" d="M711.5,210.9c-1.8-3.6-2.7-7.4-2.7-11.5c0-3.7,0.8-7.1,2.5-10.3c1.9-3.2,4.4-5.7,7.7-7.5
		c3.3-1.8,6.9-2.8,10.9-2.8c6,0,11,2,15.1,6c4,3.9,6.1,8.8,6.1,14.5c0,4.1-0.9,7.9-2.7,11.5h4.9v12h-14.5c-3.9,0-6.7-0.6-8.7-1.7
		h-0.6c-1.9,1.1-4.9,1.7-8.8,1.7h-26.4v-12H711.5z M721.5,159.5c2.1,0,3.8,0.7,5.2,2.1c1.4,1.4,2.1,3.1,2.1,5.2c0,2-0.7,3.7-2.1,5.1
		c-1.4,1.4-3.1,2.1-5.1,2.1c-2,0-3.7-0.7-5.1-2.1c-1.4-1.4-2.1-3.1-2.1-5.1c0-2,0.7-3.7,2.1-5.1
		C717.7,160.2,719.4,159.5,721.5,159.5z M729.9,210.7c4.7-0.9,7-4.3,7-10c-0.1-2.9-0.7-5.2-2-7c-1.3-1.8-2.9-2.8-5-2.8
		c-2,0-3.6,0.9-4.9,2.8c-1.3,1.9-2,4.2-2,7C723,206.4,725.3,209.7,729.9,210.7z M738.2,159.5c2.1,0,3.8,0.7,5.2,2.1
		c1.4,1.4,2.1,3.1,2.1,5.2c0,2-0.7,3.7-2.1,5.1c-1.4,1.4-3.1,2.1-5.1,2.1c-2,0-3.7-0.7-5.1-2.1c-1.4-1.4-2.1-3.1-2.1-5.1
		c0-2,0.7-3.7,2.1-5.1C734.4,160.2,736.1,159.5,738.2,159.5z"/>
	<path class="st0" d="M783.8,180v31.3c0,2.7-0.9,5.2-2.7,7.4c-2.4,2.8-5.3,4.2-9,4.2h-19.5v-12H768c0.4,0,0.7-0.1,0.9-0.3
		c0.3-0.2,0.5-0.6,0.5-1V180H783.8z M761.2,159.5c2,0,3.7,0.7,5.1,2.1c1.4,1.4,2.1,3.1,2.1,5.1c0,2-0.7,3.7-2.1,5.1
		c-1.4,1.4-3.1,2.1-5.1,2.1c-2.1,0-3.8-0.7-5.2-2.1c-1.4-1.4-2.1-3.1-2.1-5.1c0-2.1,0.7-3.8,2.1-5.2
		C757.4,160.2,759.1,159.5,761.2,159.5z M777.9,159.5c2,0,3.7,0.7,5.1,2.1c1.4,1.4,2.1,3.1,2.1,5.1c0,2-0.7,3.7-2.1,5.1
		c-1.4,1.4-3.1,2.1-5.1,2.1c-2.1,0-3.8-0.7-5.2-2.1c-1.4-1.4-2.1-3.1-2.1-5.1c0-2.1,0.7-3.8,2.1-5.2
		C774.1,160.2,775.8,159.5,777.9,159.5z"/>
	<path class="st0" d="M855.5,177.5v32.1c0,0.4,0.1,0.7,0.4,0.9c0.2,0.2,0.6,0.4,1.1,0.4h3.2v12h-7.4c-3.2,0-6.1-1.2-8.7-3.7
		c-3,3-6.7,4.6-11,4.6H833h-0.2c-6.2,0-11.1-2.6-14.6-7.7c-2.9-4-4.3-8.9-4.3-14.5c0-6.8,2.2-12.5,6.5-17c3.9-4,8.8-6.1,14.6-6.1
		c3.2,0,6.3,0.7,9.4,2l3.8-3H855.5z M831.4,159.5c2.1,0,3.8,0.7,5.2,2.1c1.4,1.4,2.1,3.1,2.1,5.1c0,2-0.7,3.7-2.1,5.1
		c-1.4,1.4-3.2,2.1-5.2,2.1c-2,0-3.7-0.7-5.1-2.1c-1.4-1.4-2.1-3.1-2.1-5.1c0-2.1,0.7-3.8,2.1-5.2
		C827.7,160.2,829.4,159.5,831.4,159.5z M841,191.6c-1.5-0.4-2.9-0.6-4.2-0.6c-2.7,0-4.9,0.9-6.4,2.8c-1.6,1.9-2.3,4.4-2.3,7.7
		c0,3.1,0.9,5.7,2.6,7.6c1.7,2,3.9,3,6.7,3c1.1,0,2.3-0.2,3.7-0.5V191.6z M848.1,159.5c2.1,0,3.8,0.7,5.2,2.1
		c1.4,1.4,2.1,3.1,2.1,5.1c0,2-0.7,3.7-2.1,5.1c-1.4,1.4-3.2,2.1-5.2,2.1c-2,0-3.7-0.7-5.1-2.1c-1.4-1.4-2.1-3.1-2.1-5.1
		c0-2.1,0.7-3.8,2.1-5.2C844.4,160.2,846.1,159.5,848.1,159.5z"/>
	<path class="st0" d="M866.6,227.2c2.1,0,3.8,0.7,5.2,2.1c1.4,1.4,2.1,3.2,2.1,5.2c0,2-0.7,3.7-2.1,5.1c-1.4,1.4-3.2,2.1-5.2,2.1
		c-2,0-3.7-0.7-5.1-2.1c-1.4-1.4-2.1-3.1-2.1-5.1c0-2.1,0.7-3.8,2.1-5.2C862.9,227.9,864.6,227.2,866.6,227.2z M890.7,180v30
		c0,0.2,0,0.5,0.1,0.8h4.7v12h-2.9l-4.1-4.3h-0.3c-2.3,2.9-5.3,4.3-9,4.3h-19.5v-12h14.8c0.6,0,1.1-0.2,1.4-0.6
		c0.3-0.3,0.5-0.7,0.5-1.3v-29H890.7z M883.3,227.2c2.1,0,3.8,0.7,5.2,2.1c1.4,1.4,2.1,3.2,2.1,5.2c0,2-0.7,3.7-2.1,5.1
		c-1.4,1.4-3.2,2.1-5.2,2.1c-2,0-3.7-0.7-5.1-2.1c-1.4-1.4-2.1-3.1-2.1-5.1c0-2.1,0.7-3.8,2.1-5.2
		C879.6,227.9,881.3,227.2,883.3,227.2z"/>
	<path class="st0" d="M925.8,156.2v53.9c0,0.2,0,0.5,0.1,0.8h4.6v12h-3l-4-4.3h-0.2c-2.4,2.9-5.4,4.3-9.1,4.3h-19.5v-12h15.4
		c0.4,0,0.7-0.1,0.8-0.3c0.4-0.2,0.6-0.6,0.6-1v-53.4H925.8z"/>
	<path class="st0" d="M976.3,154.8v13.5l-16,10.1c6.6,3.2,11.9,8,16,14.2c3.8,5.7,5.7,11.6,5.7,17.7c0,3.7-1.1,6.7-3.3,9.1
		c-2.2,2.4-5,3.6-8.4,3.6h-40.5v-12h36.3c0.9,0,1.3-0.5,1.3-1.4c0-4.8-2.3-9.4-7-13.7c-5.5-4.8-11.6-7.6-18.4-8.1
		c-0.6-0.1-0.8-0.4-0.8-0.9v-11.7L976.3,154.8z"/>
	<path class="st0" d="M209.2,298v34.1c0,3.1-1,5.8-3,8.1c-2.5,3-5.7,4.5-9.5,4.5h-55.8c-4.7,0-8.9-1.5-12.5-4.6
		c-4.6-3.9-6.9-9-6.9-15.1v-13.3l7.9-6.4h7.7V325c0,2,0.7,3.7,2.1,5c1.3,1.1,2.6,1.6,4.1,1.6h48.8c1,0,1.5-0.5,1.5-1.4V298H209.2z
		 M156.3,295.3c2.2,0,4.1,0.8,5.6,2.3c1.5,1.6,2.3,3.4,2.3,5.6c0,2.2-0.8,4.1-2.3,5.6c-1.5,1.5-3.4,2.3-5.6,2.3
		c-2.2,0-4-0.8-5.6-2.3c-1.6-1.5-2.3-3.4-2.3-5.6c0-2.2,0.8-4,2.3-5.6C152.2,296.1,154.1,295.3,156.3,295.3z M174.4,295.3
		c2.2,0,4.1,0.8,5.6,2.3c1.5,1.6,2.3,3.4,2.3,5.6c0,2.2-0.8,4.1-2.3,5.6c-1.5,1.5-3.4,2.3-5.6,2.3c-2.2,0-4-0.8-5.6-2.3
		c-1.6-1.5-2.3-3.4-2.3-5.6c0-2.2,0.8-4,2.3-5.6C170.4,296.1,172.3,295.3,174.4,295.3z"/>
	<path class="st0" d="M238.9,272.1v58.1c0,0.1,0,0.3,0.1,0.6l0.1,0.1c0.2,0.5,0.6,0.7,1.2,0.7h3.8v13.1h-8.2c-3.3,0-6.2-1.2-8.7-3.6
		c-2.6-2.5-3.9-5.5-3.9-9v-60.1H238.9z"/>
	<path class="st0" d="M256.7,299.8c6.4-2,12.3-2.9,17.8-2.9c8.1,0,14.8,2.5,20.4,7.6c5.1,4.7,7.7,10.5,7.7,17.4v8.9
		c0,0.3,0,0.6,0.1,0.9h3.1v13.1h-2l-3.8-4.7h-0.3c-2.5,3.1-5.8,4.7-9.8,4.7h-46.7v-13.1h42.2c0.9,0,1.4-0.5,1.4-1.4v-6.7
		c0-3.9-1.5-7.1-4.6-9.6c-3.1-2.5-6.9-3.8-11.5-3.8c-3.8,0-8.5,0.7-14,2.1V299.8z M273,349.4c2.2,0,4,0.8,5.6,2.3
		c1.6,1.6,2.3,3.5,2.3,5.7c0,2.2-0.8,4-2.3,5.6c-1.6,1.6-3.4,2.3-5.6,2.3c-2.2,0-4.1-0.8-5.6-2.3c-1.5-1.6-2.3-3.4-2.3-5.6
		c0-2.2,0.8-4.1,2.3-5.7C268.8,350.2,270.7,349.4,273,349.4z"/>
	<path class="st0" d="M338.9,298v32.7c0,0.3,0,0.6,0.1,0.9h5v13.1h-3.1l-4.5-4.7h-0.2c-2.6,3.1-5.9,4.7-9.9,4.7H305v-13.1h16.2
		c0.6,0,1.1-0.2,1.4-0.6c0.4-0.3,0.6-0.8,0.6-1.4V298H338.9z M314.4,275.7c2.2,0,4,0.8,5.6,2.3c1.6,1.6,2.3,3.4,2.3,5.6
		c0,2.2-0.8,4-2.3,5.6c-1.6,1.6-3.4,2.3-5.6,2.3c-2.2,0-4.1-0.8-5.6-2.3c-1.5-1.6-2.3-3.4-2.3-5.6c0-2.2,0.8-4.1,2.3-5.6
		C310.3,276.5,312.1,275.7,314.4,275.7z M332.5,275.7c2.2,0,4,0.8,5.6,2.3c1.6,1.6,2.3,3.4,2.3,5.6c0,2.2-0.8,4-2.3,5.6
		c-1.6,1.6-3.4,2.3-5.6,2.3c-2.2,0-4.1-0.8-5.6-2.3c-1.5-1.6-2.3-3.4-2.3-5.6c0-2.2,0.8-4.1,2.3-5.6
		C328.4,276.5,330.3,275.7,332.5,275.7z"/>
	<path class="st0" d="M377.2,298v32.7c0,0.3,0,0.6,0.1,0.9h5v13.1h-3.1l-4.5-4.7h-0.2c-2.6,3.1-5.9,4.7-9.9,4.7h-21.2v-13.1h16.2
		c0.6,0,1.1-0.2,1.4-0.6c0.4-0.3,0.6-0.8,0.6-1.4V298H377.2z M369.3,275.7c2.2,0,4.1,0.8,5.6,2.3c1.5,1.5,2.3,3.4,2.3,5.6
		c0,2.2-0.8,4-2.3,5.6c-1.5,1.6-3.4,2.3-5.6,2.3c-2.2,0-4-0.8-5.6-2.3c-1.6-1.6-2.3-3.4-2.3-5.6c0-2.2,0.8-4,2.3-5.6
		C365.2,276.5,367.1,275.7,369.3,275.7z"/>
	<path class="st0" d="M398,331.6c-0.6-3-0.9-6.7-0.9-11.1c0-7.8,2.6-14,7.7-18.4c4.2-3.5,9.3-5.3,15.3-5.3c6.8,0,12.1,1.6,15.9,4.9
		c4.2,3.6,6.3,8.3,6.3,14v14.4c0,0.4,0.1,0.7,0.4,1c0.3,0.3,0.7,0.4,1.2,0.4h1.6v13.1h-6.2c-3.1,0-5.9-1-8.3-3
		c-3.2,4.1-7.6,6.1-13.2,6.1c-5.5,0-10.2-2.1-14.1-6.4h-0.4l-2.6,3.3h-19.2v-13.1H398z M426.7,315.9c0-1.6-0.5-2.9-1.5-4.2
		c-1.2-1.2-2.7-1.8-4.7-1.8c-2.5,0-4.5,1-5.9,3c-1.4,2-2.1,4.8-2.1,8.3c0,9,2.4,13.5,7.3,13.5c2.4,0,4.7-1,6.9-3V315.9z"/>
	<path class="st0" d="M478.8,272.1v60.1c0,3-0.9,5.6-2.8,8c-2.6,3-5.9,4.6-9.8,4.6h-21.2v-13.1h16.7c0.4,0,0.7-0.1,1-0.3
		c0.3-0.3,0.5-0.6,0.5-1.1v-58.1H478.8z"/>
	<path class="st0" d="M508.4,272.1v68.8l-7.9,6.4h-7.7v-75.2H508.4z"/>
	<path class="st0" d="M584.8,295.3v31.4c0,6.2-2.4,11.1-7.1,14.6c-3.9,2.9-8.9,4.4-15,4.4c-8.1,0-14.4-2.9-18.8-8.8
		c-2.8-4.3-4.3-9.2-4.3-14.8c0-7.6,2.5-13.9,7.6-18.9c4.5-4.5,10-6.7,16.4-6.7c3.3,0,6.4,0.7,9.1,2.2l4.3-3.3H584.8z M558.7,275.7
		c2.2,0,4,0.8,5.6,2.3c1.6,1.6,2.3,3.4,2.3,5.6c0,2.2-0.8,4-2.3,5.6c-1.6,1.6-3.4,2.3-5.6,2.3c-2.2,0-4.1-0.8-5.6-2.3
		c-1.5-1.6-2.3-3.4-2.3-5.6c0-2.2,0.8-4.1,2.3-5.6C554.6,276.5,556.5,275.7,558.7,275.7z M569.2,310.6c-1.9-0.5-3.5-0.8-4.7-0.8
		c-2.8,0-5.1,1.1-6.9,3.2c-1.8,2.2-2.6,5.1-2.6,8.7c0,3.3,0.7,5.9,2.1,7.9c1.4,1.9,3.3,2.9,5.6,2.9c2,0,3.6-0.6,4.9-1.9
		c1.1-1.1,1.6-2.5,1.6-4.1V310.6z M576.9,275.7c2.2,0,4,0.8,5.6,2.3c1.6,1.6,2.3,3.4,2.3,5.6c0,2.2-0.8,4-2.3,5.6
		c-1.6,1.6-3.4,2.3-5.6,2.3c-2.2,0-4.1-0.8-5.6-2.3c-1.5-1.6-2.3-3.4-2.3-5.6c0-2.2,0.8-4.1,2.3-5.6
		C572.8,276.5,574.7,275.7,576.9,275.7z"/>
	<path class="st0" d="M622.8,298v42.8c0,9.2-3,16.2-8.9,21.1c-3.5,2.9-7.5,4.9-12.3,6.1c-2.4,0.5-5,0.8-7.9,0.8l-2.6-0.2l-6.4-8
		v-5.4c0.2,0.1,0.6,0.1,1.1,0.2c1.8,0.3,3.3,0.5,4.7,0.5c5.6-0.1,9.8-1.5,12.5-4.2c2.8-2.8,4.2-7,4.2-12.8v-41H622.8z"/>
	<path class="st0" d="M652.4,272.1v68.8l-7.9,6.4h-7.7v-75.2H652.4z"/>
	<path class="st0" d="M673.6,297.4c1.8-0.4,4.2-0.6,7.3-0.6c8.3,0,15,2.6,20.1,7.8c4.5,4.7,6.8,10.6,6.8,17.8v9.7
		c0,3.7-1.4,6.8-4.1,9.2c-2.4,2.2-5.3,3.3-8.5,3.3h-31.9v-13.1h27.4c0.9,0,1.4-0.5,1.4-1.4v-6.6c0-4.1-1.3-7.5-3.8-10.1
		s-5.8-4-9.9-4c-2.1,0-3.7,0.1-4.9,0.4V297.4z"/>
	<path class="st0" d="M720.3,368.8c-0.9-2-1.3-3.8-1.3-5.3c0-3,0.9-5.4,2.6-7.3c1.8-1.9,4-2.8,6.8-2.8c2,0,4.1,0.3,6.3,0.9v6.4
		c-1.7-0.5-2.9-0.7-3.8-0.7c-2.6,0-3.9,1.5-3.9,4.4c0,1.3,0.2,2.3,0.7,2.9c0.7,1,1.7,1.5,3.1,1.5h7.1v3l-2.7,3.5h-18.7v-6.5H720.3z
		 M736.6,272.1v68.8l-7.9,6.4h-7.8v-75.2H736.6z"/>
	<path class="st0" d="M776,331.6c-2.1-4.1-3.1-8.4-3.1-12.8c0-6.9,2.6-12.4,7.7-16.6c4.4-3.6,9.8-5.4,16.1-5.4
		c8.1,0,14.1,2.7,18,8.1c2.2,3.2,3.3,6.8,3.3,10.9v16.3c0,4-1.6,7.3-4.7,9.8c-2.3,1.8-4.9,2.7-7.9,2.7h-23.3c-0.9,0-1.4,0.5-1.4,1.4
		v30.1l-7.9,6.3H765v-38.5c0-3.4,1.1-6.3,3.4-8.8c2.3-2.5,5-3.7,8.1-3.7H776z M802.4,315.9c0-2.4-0.9-4.1-2.7-5.3
		c-0.9-0.5-1.9-0.7-2.9-0.7c-5.6,0-8.4,3.6-8.4,10.7c0,7.4,3.8,11.1,11.4,11.1h1.3c0.9,0,1.4-0.5,1.4-1.4V315.9z"/>
	<path class="st0" d="M846.2,272.1v58.1c0,0.1,0,0.3,0.1,0.6l0.1,0.1c0.2,0.5,0.6,0.7,1.2,0.7h3.8v13.1h-8.2c-3.3,0-6.2-1.2-8.7-3.6
		c-2.6-2.5-3.9-5.5-3.9-9v-60.1H846.2z"/>
	<path class="st0" d="M884.5,272.1l-0.1,38.5c8.5-9.2,18.6-13.8,30.3-13.8c8.5,0,15.6,2.5,21.2,7.5c5.2,4.7,7.8,10.6,7.8,17.8v6.2
		c0,1.6,0,2.7,0,3.5h3.2v13.1h-1.9l-3.9-4.7H941c-2.6,3.1-5.9,4.7-9.8,4.7h-80.6v-13.1h18.3v-59.6H884.5z M928.1,323.7
		c-0.1-4.5-2-8.1-5.7-10.7c-2.7-2-5.9-2.9-9.4-2.9c-4.3,0-8.7,1.4-13,4.1c-6,3.7-11.2,9.5-15.6,17.5h42.2c1,0,1.5-0.5,1.5-1.4V323.7
		z M908.3,275.7c2.2,0,4,0.8,5.6,2.3c1.6,1.5,2.3,3.4,2.3,5.6c0,2.2-0.8,4-2.3,5.6c-1.6,1.6-3.4,2.3-5.6,2.3c-2.2,0-4.1-0.8-5.6-2.3
		c-1.5-1.6-2.3-3.4-2.3-5.6c0-2.2,0.8-4,2.3-5.6C904.2,276.5,906.1,275.7,908.3,275.7z"/>
	<path class="st0" d="M980.2,298v34.1c0,3-1,5.6-2.9,8c-2.6,3-5.8,4.6-9.7,4.6h-21.2v-13.1H963c0.4,0,0.7-0.1,1-0.3
		c0.3-0.3,0.5-0.6,0.5-1.1V298H980.2z M972.3,275.7c2.2,0,4.1,0.8,5.6,2.3c1.5,1.5,2.3,3.4,2.3,5.6c0,2.2-0.8,4-2.3,5.6
		c-1.5,1.6-3.4,2.3-5.6,2.3c-2.2,0-4-0.8-5.6-2.3c-1.6-1.6-2.3-3.4-2.3-5.6c0-2.2,0.8-4,2.3-5.6
		C968.2,276.5,970.1,275.7,972.3,275.7z"/>
</g>
</svg>
